<?xml version="1.0" encoding="UTF-8"?>
<svg version="1.1" xmlns="http://www.w3.org/2000/svg" width="500" height="500">
<path d="M0 0 C1.13917374 0.00666183 1.13917374 0.00666183 2.30136108 0.01345825 C3.59247299 0.01368484 3.59247299 0.01368484 4.90966797 0.01391602 C5.83991791 0.02423859 6.77016785 0.03456116 7.72860718 0.04519653 C8.68020721 0.04802643 9.63180725 0.05085632 10.61224365 0.05377197 C13.6589706 0.06498914 16.70540621 0.09009641 19.75204468 0.11550903 C21.81454044 0.12553685 23.8770408 0.13466304 25.93954468 0.14285278 C31.00215735 0.16493349 36.06455158 0.19947374 41.12704468 0.24050903 C41.32861443 5.45892593 40.65550866 10.00436436 39.26376343 15.00222778 C39.07111404 15.71530594 38.87846466 16.42838409 38.67997742 17.16307068 C38.27322414 18.6592337 37.86203974 20.1541985 37.44662476 21.64797974 C36.81436403 23.92866068 36.20131419 26.2139187 35.5899353 28.50027466 C35.19068424 29.95957129 34.79033132 31.418567 34.38876343 32.87722778 C34.20738327 33.55645798 34.02600311 34.23568817 33.83912659 34.9355011 C31.84457374 42.0043071 31.84457374 42.0043071 29.12704468 44.24050903 C26.09653136 44.60824341 23.43491941 44.73027427 20.40829468 44.66629028 C19.12686584 44.66135811 19.12686584 44.66135811 17.81954956 44.65632629 C16.01393007 44.64590545 14.20834414 44.62595541 12.40292358 44.59719849 C9.63759992 44.55317706 6.8731439 44.53577088 4.10751343 44.52371216 C2.35359465 44.51028563 0.59968656 44.49536199 -1.15420532 44.47879028 C-1.9823877 44.47140335 -2.81057007 44.46401642 -3.66384888 44.45640564 C-6.9719963 44.40132603 -9.71413065 44.29345059 -12.87295532 43.24050903 C-14.59862371 38.96307307 -13.03552366 35.07635971 -11.85342407 30.82644653 C-11.525476 29.61017075 -11.525476 29.61017075 -11.19090271 28.36932373 C-10.72719771 26.65844803 -10.25871358 24.94886146 -9.78579712 23.24050903 C-9.06207067 20.62135496 -8.35608502 17.99788289 -7.6522522 15.37332153 C-7.1995234 13.71157753 -6.74578171 12.05010908 -6.29092407 10.38894653 C-6.0793718 9.60248749 -5.86781952 8.81602844 -5.64985657 8.0057373 C-3.54046184 0.45463607 -3.54046184 0.45463607 0 0 Z " fill="#427096" transform="translate(71.87295532226563,203.75949096679688)"/>
<path d="M0 0 C1.29210136 0.00212242 1.29210136 0.00212242 2.61030579 0.00428772 C5.36133294 0.00988485 8.11227869 0.02243679 10.86328125 0.03515625 C12.72851445 0.04017162 14.59374892 0.04473446 16.45898438 0.04882812 C21.03128136 0.05985333 25.6035175 0.07711598 30.17578125 0.09765625 C32.21582031 3.80957031 32.21582031 3.80957031 31.85546875 6.40234375 C31.58992188 7.25054687 31.324375 8.09875 31.05078125 8.97265625 C30.75816406 9.94332031 30.46554688 10.91398437 30.1640625 11.9140625 C29.83792969 12.96464844 29.51179688 14.01523437 29.17578125 15.09765625 C28.52544313 17.36720357 27.87977488 19.63809317 27.23828125 21.91015625 C26.90183594 23.07546875 26.56539062 24.24078125 26.21875 25.44140625 C25.49467962 27.9797204 24.78789418 30.51806483 24.1015625 33.06640625 C23.75480469 34.33484375 23.40804687 35.60328125 23.05078125 36.91015625 C22.73882812 38.07160156 22.426875 39.23304688 22.10546875 40.4296875 C21.17578125 43.09765625 21.17578125 43.09765625 19.17578125 44.09765625 C16.12510556 44.19696576 13.09772088 44.23745976 10.046875 44.23046875 C9.14203873 44.23142548 8.23720245 44.2323822 7.3049469 44.23336792 C5.39087861 44.23404898 3.47680801 44.23219986 1.56274414 44.22802734 C-1.37814479 44.22267186 -4.31888142 44.22797803 -7.25976562 44.234375 C-9.11588576 44.23371433 -10.97200579 44.23243339 -12.828125 44.23046875 C-14.15620934 44.2335051 -14.15620934 44.2335051 -15.51112366 44.23660278 C-21.70926467 44.21261033 -21.70926467 44.21261033 -22.82421875 43.09765625 C-22.41593261 35.41521092 -20.4493505 28.16011369 -18.44067383 20.76611328 C-17.88285621 18.70840793 -17.33827481 16.64750402 -16.79492188 14.5859375 C-16.44218263 13.269323 -16.08869409 11.95290897 -15.734375 10.63671875 C-15.41605713 9.45287598 -15.09773926 8.2690332 -14.76977539 7.04931641 C-13.82421875 4.09765625 -13.82421875 4.09765625 -11.82421875 1.09765625 C-7.87657605 -0.21822465 -4.11332519 -0.02534648 0 0 Z " fill="#D7C766" transform="translate(96.82421875,251.90234375)"/>
<path d="M0 0 C1.65 0.33 3.3 0.66 5 1 C8.3 11.56 11.6 22.12 15 33 C18.3 22.44 21.6 11.88 25 1 C26.98 0.67 28.96 0.34 31 0 C33.11663999 4.02240676 34.72968183 7.92452015 36.04296875 12.2734375 C36.39423828 13.42714844 36.74550781 14.58085937 37.10742188 15.76953125 C37.46384766 16.95933594 37.82027344 18.14914063 38.1875 19.375 C38.55552734 20.58800781 38.92355469 21.80101562 39.30273438 23.05078125 C40.20662288 26.03243945 41.10554099 29.01550221 42 32 C45.28037986 24.90755793 47.31355039 17.50181214 49.48242188 10.00976562 C49.77826172 9.01009766 50.07410156 8.01042969 50.37890625 6.98046875 C50.6426001 6.07192139 50.90629395 5.16337402 51.17797852 4.22729492 C52 2 52 2 54 0 C55.32 0 56.64 0 58 0 C59.73609966 5.08506322 58.03686724 8.89857194 56.32421875 13.73046875 C56.03899857 14.56210037 55.75377838 15.39373199 55.45991516 16.25056458 C54.85605036 18.0032594 54.2463106 19.75393968 53.63110352 21.50268555 C52.68871924 24.18403091 51.76580703 26.87148487 50.84570312 29.56054688 C50.25634134 31.26341339 49.6658839 32.96590118 49.07421875 34.66796875 C48.65845833 35.87576241 48.65845833 35.87576241 48.23429871 37.10795593 C46.23232679 42.76767321 46.23232679 42.76767321 44 45 C41.5625 45.0625 41.5625 45.0625 39 44 C36.33386332 38.61069698 34.59643769 32.91812452 32.8125 27.1875 C32.53986328 26.32962891 32.26722656 25.47175781 31.98632812 24.58789062 C30 18.26051457 30 18.26051457 30 16 C27.05819977 18.47436753 26.16735617 20.84120612 25.02734375 24.47265625 C24.68509766 25.53677734 24.34285156 26.60089844 23.99023438 27.69726562 C23.64283203 28.80779297 23.29542969 29.91832031 22.9375 31.0625 C22.24373737 33.26344602 21.54476949 35.46276014 20.83984375 37.66015625 C20.53425537 38.63605713 20.22866699 39.61195801 19.91381836 40.61743164 C19 43 19 43 17 45 C14.625 45.1875 14.625 45.1875 12 44 C7.77075797 37.04477057 5.71742119 28.50008427 3.25 20.8125 C2.83878906 19.56791016 2.42757813 18.32332031 2.00390625 17.04101562 C1.61589844 15.83767578 1.22789062 14.63433594 0.828125 13.39453125 C0.4765332 12.31018799 0.12494141 11.22584473 -0.23730469 10.10864258 C-1.01664369 6.93216256 -1.21620059 4.25704398 -1 1 C-0.67 0.67 -0.34 0.34 0 0 Z M28 13 C29 15 29 15 29 15 Z " fill="#FDFDFD" transform="translate(380,228)"/>
<path d="M0 0 C2.67578125 0.32958984 2.67578125 0.32958984 4.6328125 2.10839844 C5.55126953 3.34323975 5.55126953 3.34323975 6.48828125 4.60302734 C7.1740625 5.51665039 7.85984375 6.43027344 8.56640625 7.37158203 C12.00249755 12.19006376 15.37630949 17.04145993 18.67578125 21.95458984 C19.35511719 22.95876953 20.03445313 23.96294922 20.734375 24.99755859 C22.38529117 27.43905433 24.03234652 29.88305479 25.67578125 32.32958984 C27.56209668 30.44327441 26.91843417 27.18758291 26.9921875 24.66943359 C27.0129686 24.00496719 27.03374969 23.34050079 27.05516052 22.65589905 C27.12071783 20.52640441 27.1795691 18.39678316 27.23828125 16.26708984 C27.28146064 14.82632137 27.32507474 13.38556585 27.36914062 11.94482422 C27.47640518 8.40654944 27.57765496 4.86813115 27.67578125 1.32958984 C29.33192782 0.94740217 31.00035149 0.61563883 32.67578125 0.32958984 C34.84300664 2.49681524 33.86479492 7.53194831 33.87890625 10.54443359 C33.88460632 11.47050919 33.8903064 12.39658478 33.8961792 13.35072327 C33.90564376 15.31363781 33.91216894 17.27656836 33.91601562 19.23950195 C33.92572913 22.25093108 33.9567419 25.26168025 33.98828125 28.27294922 C33.9948101 30.17593994 34.00006104 32.07893556 34.00390625 33.98193359 C34.01625305 34.8871727 34.02859985 35.7924118 34.0413208 36.7250824 C34.0383197 37.56257523 34.0353186 38.40006805 34.03222656 39.26293945 C34.03769501 40.37094154 34.03769501 40.37094154 34.04327393 41.50132751 C33.67578125 43.32958984 33.67578125 43.32958984 30.67578125 45.32958984 C27.58416334 45.16923179 26.13792121 44.77594694 23.89575195 42.61035156 C23.36554443 41.87574707 22.83533691 41.14114258 22.2890625 40.38427734 C21.69432129 39.57055664 21.09958008 38.75683594 20.48681641 37.91845703 C19.590354 36.63696777 19.590354 36.63696777 18.67578125 35.32958984 C18.10005371 34.51393555 17.52432617 33.69828125 16.93115234 32.85791016 C15.22128001 30.40353395 13.53827505 27.93287706 11.86328125 25.45458984 C11.29158203 24.61412109 10.71988281 23.77365234 10.13085938 22.90771484 C7.96638199 19.72331334 5.81159133 16.53330497 3.67578125 13.32958984 C1.78946582 15.21590527 2.43312833 18.47159678 2.359375 20.98974609 C2.3385939 21.65421249 2.31781281 22.31867889 2.29640198 23.00328064 C2.23084467 25.13277528 2.1719934 27.26239653 2.11328125 29.39208984 C2.07010186 30.83285832 2.02648776 32.27361384 1.98242188 33.71435547 C1.87515732 37.25263025 1.77390754 40.79104854 1.67578125 44.32958984 C-0.79921875 44.82458984 -0.79921875 44.82458984 -3.32421875 45.32958984 C-5.1496681 40.6458711 -5.58127047 36.71451933 -5.58984375 31.70068359 C-5.5917572 30.98856216 -5.59367065 30.27644073 -5.59564209 29.54273987 C-5.5969959 28.04598637 -5.59335593 26.5492208 -5.58496094 25.05249023 C-5.57423355 22.77023845 -5.58489129 20.48877082 -5.59765625 18.20654297 C-5.59633482 16.74625479 -5.59377277 15.28596709 -5.58984375 13.82568359 C-5.58758789 12.50753662 -5.58533203 11.18938965 -5.58300781 9.83129883 C-5.26120817 5.47698532 -4.89936245 0.69476253 0 0 Z M1.67578125 10.32958984 C2.67578125 12.32958984 2.67578125 12.32958984 2.67578125 12.32958984 Z " fill="#FDFDFD" transform="translate(287.32421875,227.67041015625)"/>
<path d="M0 0 C1.20269531 -0.02578125 2.40539062 -0.0515625 3.64453125 -0.078125 C10.08726912 0.51855635 13.99477505 3.49069059 18.1875 8.25 C22.8369193 15.05807827 23.19114357 22.46901303 21.796875 30.5 C20.03439497 36.28454984 16.11403309 39.91150688 11.1875 43.25 C4.62781055 46.47625249 -2.6813848 46.07127612 -9.625 44.25 C-15.37423009 40.64263994 -19.75353905 35.7862298 -21.8125 29.25 C-22.88083775 20.66956105 -22.06967961 13.29016321 -16.8125 6.25 C-11.67186191 1.37932978 -6.94669094 0.0887756 0 0 Z M-13.125 12.9375 C-15.92005287 18.42408526 -16.62966865 23.57009295 -14.75 29.5 C-12.99718884 33.42034996 -10.71023101 36.33790554 -6.8125 38.25 C-1.73674897 39.69535624 2.69432601 39.84911457 7.5625 37.6875 C12.41685737 34.82391949 14.65124785 31.31840116 16.0625 25.875 C16.2600965 20.14470162 15.43122157 15.48574784 11.875 10.875 C7.97018255 7.06099226 5.09114638 6.1612926 -0.25 5.875 C-6.17601904 6.03250217 -9.3127337 8.50702835 -13.125 12.9375 Z " fill="#FDFDFD" transform="translate(351.8125,227.75)"/>
<path d="M0 0 C6.55300662 2.72726287 9.64784688 6.54569376 12.75 12.75 C15.09257271 18.80164616 14.02944212 25.63646898 11.86328125 31.5703125 C8.98612429 37.20348297 4.66788149 40.72689292 -1.25 42.75 C-3.82128906 42.99291992 -3.82128906 42.99291992 -6.515625 42.98046875 C-7.48757812 42.97853516 -8.45953125 42.97660156 -9.4609375 42.97460938 C-10.96527344 42.95624023 -10.96527344 42.95624023 -12.5 42.9375 C-13.51835937 42.93685547 -14.53671875 42.93621094 -15.5859375 42.93554688 C-23.10959507 42.89040493 -23.10959507 42.89040493 -24.25 41.75 C-24.33874135 38.64748799 -24.36518455 35.5673188 -24.34765625 32.46484375 C-24.3462413 31.53402481 -24.34482635 30.60320587 -24.34336853 29.6441803 C-24.33775172 26.65858809 -24.3251964 23.67306971 -24.3125 20.6875 C-24.30748716 18.66862087 -24.30292388 16.64974057 -24.29882812 14.63085938 C-24.28777683 9.67054428 -24.27050095 4.71028468 -24.25 -0.25 C-18.1759278 -3.2870361 -6.3767446 -1.99205604 0 0 Z M-17.25 5.75 C-18.59217439 8.43434877 -18.37961685 10.52503134 -18.3828125 13.52734375 C-18.38410156 14.68041016 -18.38539063 15.83347656 -18.38671875 17.02148438 C-18.38285156 18.23126953 -18.37898437 19.44105469 -18.375 20.6875 C-18.37886719 21.89341797 -18.38273438 23.09933594 -18.38671875 24.34179688 C-18.38542969 25.49615234 -18.38414062 26.65050781 -18.3828125 27.83984375 C-18.38168457 28.90066162 -18.38055664 29.96147949 -18.37939453 31.05444336 C-18.36696125 33.8497444 -18.36696125 33.8497444 -17.25 36.75 C-7.21773851 37.49248189 -7.21773851 37.49248189 1.75 33.75 C6.42054337 28.57453302 7.10784069 25.35395902 7.02734375 18.51171875 C6.51171483 13.37721664 3.88023155 10.88023155 0.375 7.375 C-5.33121007 4.81704376 -11.09108376 5.44627262 -17.25 5.75 Z " fill="#FDFDFD" transform="translate(178.25,229.25)"/>
<path d="M0 0 C1.57421875 1.265625 1.57421875 1.265625 2.4296875 3.28125 C2.47738281 3.93609375 2.52507812 4.5909375 2.57421875 5.265625 C1.91421875 5.925625 1.25421875 6.585625 0.57421875 7.265625 C-2.23264797 6.95375092 -4.59641315 6.20116406 -7.23828125 5.203125 C-12.41766219 3.67977767 -16.58494627 3.59301222 -21.67578125 5.453125 C-25.66139279 8.08000533 -27.91558656 10.73504092 -29.42578125 15.265625 C-30.0575812 20.61003115 -29.82951911 25.18551977 -26.8203125 29.7578125 C-23.22905593 33.6407958 -18.95743629 35.10717793 -13.80078125 35.640625 C-10.4193792 35.26491366 -7.58880388 34.4999753 -4.42578125 33.265625 C-3.93078125 28.315625 -3.93078125 28.315625 -3.42578125 23.265625 C-4.58207031 23.28302734 -4.58207031 23.28302734 -5.76171875 23.30078125 C-7.26605469 23.31431641 -7.26605469 23.31431641 -8.80078125 23.328125 C-9.79851562 23.33972656 -10.79625 23.35132813 -11.82421875 23.36328125 C-14.42578125 23.265625 -14.42578125 23.265625 -16.42578125 22.265625 C-16.09578125 20.615625 -15.76578125 18.965625 -15.42578125 17.265625 C-12.80050936 17.21180394 -10.17633412 17.17204187 -7.55078125 17.140625 C-6.80441406 17.12386719 -6.05804688 17.10710937 -5.2890625 17.08984375 C-3.33383664 17.0722291 -1.37836104 17.16242311 0.57421875 17.265625 C3.18464087 19.87604712 2.86268663 21.77683685 2.89648438 25.33789062 C2.89326172 26.11841797 2.89003906 26.89894531 2.88671875 27.703125 C2.90283203 28.47978516 2.91894531 29.25644531 2.93554688 30.05664062 C2.94049902 35.8060824 2.94049902 35.8060824 1.26635742 37.90649414 C-4.22804633 42.31961572 -10.67167034 42.81950618 -17.4609375 42.60546875 C-23.87005745 41.87082654 -28.6180724 39.67574608 -32.86328125 34.765625 C-37.03081288 28.53174064 -38.14327515 20.85863508 -36.92578125 13.515625 C-35.14791437 7.31559556 -31.45544673 2.14750196 -25.92578125 -1.234375 C-17.70317945 -4.7696203 -7.93671309 -3.69695323 0 0 Z " fill="#FDFDFD" transform="translate(252.42578125,230.734375)"/>
<path d="M0 0 C0.97710937 -0.00257813 1.95421875 -0.00515625 2.9609375 -0.0078125 C3.98445313 -0.00007812 5.00796875 0.00765625 6.0625 0.015625 C7.08601563 0.00789062 8.10953125 0.00015625 9.1640625 -0.0078125 C10.14117187 -0.00523437 11.11828125 -0.00265625 12.125 0 C13.02347656 0.00225586 13.92195313 0.00451172 14.84765625 0.00683594 C17.0625 0.265625 17.0625 0.265625 19.0625 2.265625 C18.70299708 9.98111085 16.0852466 18.20467787 13.0625 25.265625 C10.57254335 26.51060333 8.87255089 26.39496872 6.08984375 26.3984375 C4.61741211 26.40037109 4.61741211 26.40037109 3.11523438 26.40234375 C2.08720703 26.39847656 1.05917969 26.39460938 0 26.390625 C-1.03189453 26.39449219 -2.06378906 26.39835937 -3.12695312 26.40234375 C-4.10728516 26.40105469 -5.08761719 26.39976562 -6.09765625 26.3984375 C-7.00136963 26.39730957 -7.90508301 26.39618164 -8.83618164 26.39501953 C-10.9375 26.265625 -10.9375 26.265625 -11.9375 25.265625 C-10.65416738 0.02675006 -10.65416738 0.02675006 0 0 Z " fill="#939E7D" transform="translate(61.9375,251.734375)"/>
<path d="M0 0 C1.37595398 4.54853577 0.47301577 8.13073885 -0.8125 12.5625 C-0.99103516 13.22185547 -1.16957031 13.88121094 -1.35351562 14.56054688 C-3.37130663 21.80856872 -3.37130663 21.80856872 -5 24 C-7.25 24.609375 -7.25 24.609375 -10 24.75 C-11.47146484 24.82927734 -11.47146484 24.82927734 -12.97265625 24.91015625 C-13.97167969 24.93980469 -14.97070312 24.96945313 -16 25 C-17.39025391 25.05994141 -17.39025391 25.05994141 -18.80859375 25.12109375 C-23.19775042 25.23196398 -26.12154276 25.2351929 -30 23 C-29.50387003 14.89654389 -26.679915 7.59474067 -24 0 C-15.83325905 -0.94120241 -8.16674095 -0.94120241 0 0 Z " fill="#7D9184" transform="translate(136,223)"/>
<path d="M0 0 C0.66 0.33 1.32 0.66 2 1 C2.31241455 3.71446979 2.51336592 6.33909361 2.625 9.0625 C2.66367187 9.82111328 2.70234375 10.57972656 2.7421875 11.36132812 C2.83673562 13.24047195 2.91946756 15.12020336 3 17 C5.33294775 17.04241723 7.66702567 17.04092937 10 17 C11.91943466 15.08056534 11.35423266 11.62644345 11.5 9.0625 C11.88978186 2.22043628 11.88978186 2.22043628 13 0 C22.24 0 31.48 0 41 0 C42.80499452 4.5124863 43.32056056 6.8643764 43.375 11.5625 C43.40335937 12.67753906 43.43171875 13.79257812 43.4609375 14.94140625 C42.91107456 18.59007308 41.8205199 19.72017265 39 22 C36.91858446 19.91858446 37.26911239 15.81393047 36.9375 12.9375 C36.84662109 12.17888672 36.75574219 11.42027344 36.66210938 10.63867188 C36.4375626 8.7595699 36.21829022 6.87983905 36 5 C33.69 5 31.38 5 29 5 C29 10.28 29 15.56 29 21 C27.68 21 26.36 21 25 21 C24.80558632 18.7089095 24.61966865 16.41709663 24.4375 14.125 C24.33308594 12.84882813 24.22867187 11.57265625 24.12109375 10.2578125 C24 7 24 7 25 5 C22.69 4.67 20.38 4.34 18 4 C17.83564453 5.46373047 17.83564453 5.46373047 17.66796875 6.95703125 C17.43013672 8.86548828 17.43013672 8.86548828 17.1875 10.8125 C17.03667969 12.07707031 16.88585937 13.34164063 16.73046875 14.64453125 C15.74534725 19.1697685 15.74534725 19.1697685 13 21 C8.04412581 22.21865759 6.15437105 22.58767981 1.5625 20.25 C-1 18 -1 18 -2 15 C-1.93846494 12.622509 -1.80517197 10.24645273 -1.625 7.875 C-1.53476562 6.61429687 -1.44453125 5.35359375 -1.3515625 4.0546875 C-1 1 -1 1 0 0 Z " fill="#F2D667" transform="translate(319,286)"/>
<path d="M0 0 C0 0.99 0 1.98 0 3 C-3.3 3.33 -6.6 3.66 -10 4 C-10 4.99 -10 5.98 -10 7 C-8.9275 7.103125 -7.855 7.20625 -6.75 7.3125 C-3.14179128 7.97400493 -1.63604977 8.57483421 1 11 C1.4125 9.9275 1.825 8.855 2.25 7.75 C3.69585942 4.44326596 5.01089326 2.15879931 8 0 C12.23280936 -1.19796491 14.57730324 -1.12473019 18.8125 0.125 C22 2 22 2 23.4375 4.1875 C24.17955741 7.89778704 24.72002428 11.24829457 24 15 C22.00639338 17.92810972 20.50123757 19.50369764 17.09765625 20.62890625 C12.26828379 21.509502 9.16373795 20.7758253 5 18 C4.34 17.01 3.68 16.02 3 15 C2.195625 15.804375 1.39125 16.60875 0.5625 17.4375 C-0.625 18.625 -1.8125 19.8125 -3 21 C-4.64933228 20.93600474 -6.29615131 20.79926084 -7.9375 20.625 C-8.83339844 20.53476562 -9.72929687 20.44453125 -10.65234375 20.3515625 C-13 20 -13 20 -15 19 C-14.505 17.515 -14.505 17.515 -14 16 C-6.57142857 15.85714286 -6.57142857 15.85714286 -3 17 C-3 16.01 -3 15.02 -3 14 C-6.96 12.35 -10.92 10.7 -15 9 C-14.64 2.64 -14.64 2.64 -12 0 C-7.8106521 -1.3964493 -4.2853023 -0.77490216 0 0 Z M8.0625 4.625 C6.68434799 7.70557508 6.51253392 9.65737548 7 13 C8.5 15.5 8.5 15.5 11 17 C14.20195936 17.45742277 16.07553259 17.55468045 18.875 15.875 C20.5432007 13.0946655 20.38281779 11.19014822 20 8 C19.1155391 5.05292754 19.1155391 5.05292754 17 3 C13.22491472 2.39328987 11.06863502 2.10372547 8.0625 4.625 Z " fill="#F2D96D" transform="translate(274,287)"/>
<path d="M0 0 C4.70588235 0.70588235 4.70588235 0.70588235 6 2 C6.11355804 4.92197246 6.16418839 7.81940784 6.16796875 10.7421875 C6.17129715 11.62149933 6.17462555 12.50081116 6.17805481 13.4067688 C6.18312837 15.27133662 6.185463 17.13591356 6.18530273 19.00048828 C6.18748544 21.85594665 6.20562604 24.71101651 6.22460938 27.56640625 C6.22754394 29.37499867 6.22952831 31.18359294 6.23046875 32.9921875 C6.23765427 33.84851776 6.24483978 34.70484802 6.25224304 35.58712769 C6.24916641 36.38450348 6.24608978 37.18187927 6.24291992 38.00341797 C6.24434494 38.70433563 6.24576996 39.4052533 6.24723816 40.12741089 C6 42 6 42 4 45 C0.125 44.125 0.125 44.125 -1 43 C-1.1011692 39.90918535 -1.13968558 36.84117445 -1.1328125 33.75 C-1.13376923 32.82155273 -1.13472595 31.89310547 -1.13571167 30.93652344 C-1.13639355 28.96940035 -1.13453872 27.00227504 -1.13037109 25.03515625 C-1.12502295 22.01296974 -1.13031582 18.99093185 -1.13671875 15.96875 C-1.13605797 14.06249967 -1.13477681 12.15624943 -1.1328125 10.25 C-1.13483673 9.33959961 -1.13686096 8.42919922 -1.13894653 7.49121094 C-1.11494969 1.11494969 -1.11494969 1.11494969 0 0 Z " fill="#FEFEFE" transform="translate(266,228)"/>
<path d="M0 0 C2.625 0.375 2.625 0.375 5 1 C5.04934399 6.94481181 5.08569282 12.88950509 5.10986328 18.83447266 C5.11993671 20.85793127 5.13359595 22.88137528 5.15087891 24.90478516 C5.17506847 27.80895589 5.18646949 30.71293461 5.1953125 33.6171875 C5.20563507 34.52556366 5.21595764 35.43393982 5.22659302 36.36984253 C5.22674408 37.21056305 5.22689514 38.05128357 5.22705078 38.91748047 C5.231492 39.65916473 5.23593323 40.400849 5.24050903 41.16500854 C5 43 5 43 3 45 C-0.53571429 44.46428571 -0.53571429 44.46428571 -2 43 C-2.11356724 39.9936175 -2.16418912 37.01107558 -2.16796875 34.00390625 C-2.17129715 33.1000267 -2.17462555 32.19614716 -2.17805481 31.26487732 C-2.18312796 29.34903473 -2.18546302 27.43318328 -2.18530273 25.51733398 C-2.18748813 22.57846582 -2.20563665 19.63997348 -2.22460938 16.70117188 C-2.22754337 14.84375129 -2.22952813 12.98632891 -2.23046875 11.12890625 C-2.23765427 10.24554092 -2.24483978 9.3621756 -2.25224304 8.45204163 C-2.22882139 2.22882139 -2.22882139 2.22882139 0 0 Z " fill="#FDFDFD" transform="translate(202,228)"/>
<path d="M0 0 C1.32 0.66 2.64 1.32 4 2 C4.08086376 4.93804996 4.1404283 7.87388075 4.1875 10.8125 C4.21263672 11.64587891 4.23777344 12.47925781 4.26367188 13.33789062 C4.27333984 14.14033203 4.28300781 14.94277344 4.29296875 15.76953125 C4.3086792 16.50792236 4.32438965 17.24631348 4.34057617 18.00708008 C3.90493579 20.55627893 3.02363976 21.44060519 1 23 C-0.953125 23.00390625 -0.953125 23.00390625 -3 22 C-4.921875 19.71484375 -4.921875 19.71484375 -6.75 16.9375 C-7.67039062 15.55884766 -7.67039062 15.55884766 -8.609375 14.15234375 C-9.06828125 13.44207031 -9.5271875 12.73179687 -10 12 C-10.66 15.3 -11.32 18.6 -12 22 C-13.32 22.33 -14.64 22.66 -16 23 C-17.05619003 18.71702469 -17.11702092 14.57014354 -17.0625 10.1875 C-17.05798828 9.49462891 -17.05347656 8.80175781 -17.04882812 8.08789062 C-17.03713156 6.39188932 -17.01919924 4.69593297 -17 3 C-15.35 2.34 -13.7 1.68 -12 1 C-8.40521193 4.32850747 -5.77635232 7.98971331 -3 12 C-2.95101563 11.38511719 -2.90203125 10.77023437 -2.8515625 10.13671875 C-2.77679688 9.32847656 -2.70203125 8.52023437 -2.625 7.6875 C-2.52058594 6.48673828 -2.52058594 6.48673828 -2.4140625 5.26171875 C-2 3 -2 3 0 0 Z " fill="#FBDC59" transform="translate(404,285)"/>
<path d="M0 0 C3.56943833 2.58214687 4.7688666 4.20547895 6 8.4375 C6 12.58956112 5.33117811 14.58093877 3 18 C0.56689965 20.28563972 -1.07488563 20.96395658 -4.40625 21.09375 C-8.54016835 20.85057833 -11.21228933 20.59558612 -14.5625 18.0625 C-17.23649008 14.22590554 -17.39162514 11.69950166 -17 7 C-15.28782963 3.63907297 -13.93586045 1.59791085 -10.75 -0.4375 C-6.93940558 -1.21693977 -3.72934532 -1.15270673 0 0 Z M-10.375 4.6875 C-12.51609852 7.58481068 -12.51609852 7.58481068 -13 11 C-11.64172754 14.37097738 -11.64172754 14.37097738 -9 17 C-5.41499591 17.66707548 -5.41499591 17.66707548 -2 17 C0.81870287 14.18129713 0.7303841 11.90943055 1 8 C0.69844 5.56156227 0.69844 5.56156227 -1 4 C-4.94046913 2.83245359 -6.93784514 2.24531102 -10.375 4.6875 Z " fill="#F8DF70" transform="translate(380,287)"/>
<path d="M0 0 C-0.33 0.99 -0.66 1.98 -1 3 C-1.95712891 3.07347656 -1.95712891 3.07347656 -2.93359375 3.1484375 C-3.75988281 3.22320312 -4.58617187 3.29796875 -5.4375 3.375 C-6.26121094 3.44460938 -7.08492188 3.51421875 -7.93359375 3.5859375 C-8.61550781 3.72257812 -9.29742187 3.85921875 -10 4 C-10.33 4.66 -10.66 5.32 -11 6 C-9.906875 6.12375 -8.81375 6.2475 -7.6875 6.375 C-4 7 -4 7 -1 9 C-0.41796875 10.875 -0.41796875 10.875 -0.1875 13 C-0.09855469 13.70125 -0.00960938 14.4025 0.08203125 15.125 C0 17 0 17 -2 19 C-6.99065483 20.21579803 -11.38565925 20.53044493 -16 18 C-15.67 16.68 -15.34 15.36 -15 14 C-13.9275 14.165 -12.855 14.33 -11.75 14.5 C-7.96971248 15.08810915 -7.96971248 15.08810915 -4 15 C-4 14.01 -4 13.02 -4 12 C-4.69867188 11.87882812 -5.39734375 11.75765625 -6.1171875 11.6328125 C-7.02726562 11.46523438 -7.93734375 11.29765625 -8.875 11.125 C-9.77992188 10.96257812 -10.68484375 10.80015625 -11.6171875 10.6328125 C-14 10 -14 10 -16 8 C-16.125 4.375 -16.125 4.375 -16 1 C-9.89244786 -3.54817713 -6.80259433 -3.14677833 0 0 Z " fill="#EDD76E" transform="translate(426,288)"/>
<path d="M0 0 C0.66 0.33 1.32 0.66 2 1 C2.31241455 3.71446979 2.51336592 6.33909361 2.625 9.0625 C2.66367187 9.82111328 2.70234375 10.57972656 2.7421875 11.36132812 C2.83673562 13.24047195 2.91946756 15.12020336 3 17 C5.33294775 17.04241723 7.66702567 17.04092937 10 17 C11.91943466 15.08056534 11.35423266 11.62644345 11.5 9.0625 C11.88978186 2.22043628 11.88978186 2.22043628 13 0 C13.66 0 14.32 0 15 0 C15.24849534 2.93703525 15.47448285 5.87286332 15.6875 8.8125 C15.76033203 9.64587891 15.83316406 10.47925781 15.90820312 11.33789062 C15.96298828 12.14033203 16.01777344 12.94277344 16.07421875 13.76953125 C16.16062622 14.87711792 16.16062622 14.87711792 16.2487793 16.00708008 C16 18 16 18 14.73364258 19.70581055 C11.80508818 21.89201909 8.54908215 22.23437335 5 22 C-0.62043796 19.13868613 -0.62043796 19.13868613 -2 15 C-1.93846494 12.622509 -1.80517197 10.24645273 -1.625 7.875 C-1.53476562 6.61429687 -1.44453125 5.35359375 -1.3515625 4.0546875 C-1 1 -1 1 0 0 Z " fill="#EED578" transform="translate(319,286)"/>
<path d="M0 0 C1.5 1.375 1.5 1.375 3 3 C3 3.66 3 4.32 3 5 C5.37199666 6.18599833 6.76069536 6.10084264 9.40234375 6.0625 C10.28833252 6.05412109 11.17432129 6.04574219 12.0871582 6.03710938 C13.027771 6.02486328 13.96838379 6.01261719 14.9375 6 C22.3484708 5.94463321 29.63794784 6.03448496 37 7 C37 5.68 37 4.36 37 3 C39 1 39 1 42.125 0.875 C43.07375 0.91625 44.0225 0.9575 45 1 C44.25 6.75 44.25 6.75 42 9 C39.09394007 9.18777386 36.28486889 9.25552545 33.37890625 9.23046875 C32.52320541 9.23001053 31.66750458 9.22955231 30.78587341 9.2290802 C28.97434098 9.22605642 27.16281118 9.21816638 25.35131836 9.20581055 C22.5772175 9.18759663 19.80345118 9.18530057 17.02929688 9.18554688 C15.27083045 9.18063001 13.51236628 9.17480095 11.75390625 9.16796875 C10.92258682 9.16685593 10.0912674 9.1657431 9.23475647 9.16459656 C5.90958981 9.1371927 3.17592849 9.05864283 0 8 C-1.22393475 5.04215769 -0.96516243 3.00272755 0 0 Z " fill="#8E9C83" transform="translate(59,239)"/>
<path d="M0 0 C1.13917374 0.00666183 1.13917374 0.00666183 2.30136108 0.01345825 C3.16210236 0.01360931 4.02284363 0.01376038 4.90966797 0.01391602 C5.83991791 0.02423859 6.77016785 0.03456116 7.72860718 0.04519653 C8.68020721 0.04802643 9.63180725 0.05085632 10.61224365 0.05377197 C13.6589706 0.06498914 16.70540621 0.09009641 19.75204468 0.11550903 C21.81454044 0.12553685 23.8770408 0.13466304 25.93954468 0.14285278 C31.00215735 0.16493349 36.06455158 0.19947374 41.12704468 0.24050903 C41.12704468 0.57050903 41.12704468 0.90050903 41.12704468 1.24050903 C36.93963227 1.40942514 32.7521025 1.57524008 28.56454468 1.74050903 C27.3831189 1.78820435 26.20169312 1.83589966 24.98446655 1.88504028 C15.15675003 2.27044093 15.15675003 2.27044093 10.93954468 2.17800903 C7.66869365 2.25069461 6.45503501 3.00563831 4.12704468 5.24050903 C3.79704468 4.25050903 3.46704468 3.26050903 3.12704468 2.24050903 C2.13704468 2.73550903 2.13704468 2.73550903 1.12704468 3.24050903 C1.12704468 4.23050903 1.12704468 5.22050903 1.12704468 6.24050903 C0.46704468 6.90050903 -0.19295532 7.56050903 -0.87295532 8.24050903 C-0.87295532 10.3968494 -0.42643172 12.16497255 0.12704468 14.24050903 C-1.19295532 14.57050903 -2.51295532 14.90050903 -3.87295532 15.24050903 C-3.54295532 16.23050903 -3.21295532 17.22050903 -2.87295532 18.24050903 C-4.18495936 19.59483579 -5.51926936 20.92784386 -6.87295532 22.24050903 C-7.20295532 22.24050903 -7.53295532 22.24050903 -7.87295532 22.24050903 C-5.8061347 0.74557456 -5.8061347 0.74557456 0 0 Z " fill="#16519A" transform="translate(71.87295532226563,203.75949096679688)"/>
<path d="M0 0 C1.13598633 0.00483398 1.13598633 0.00483398 2.29492188 0.00976562 C3.47344727 0.02233398 3.47344727 0.02233398 4.67578125 0.03515625 C5.47306641 0.03966797 6.27035156 0.04417969 7.09179688 0.04882812 C9.05732382 0.06059775 11.0228121 0.07853277 12.98828125 0.09765625 C12.65828125 0.75765625 12.32828125 1.41765625 11.98828125 2.09765625 C9.27381146 2.4100708 6.64918764 2.61102217 3.92578125 2.72265625 C3.16716797 2.76132813 2.40855469 2.8 1.62695312 2.83984375 C-0.2521907 2.93439187 -2.13192211 3.01712381 -4.01171875 3.09765625 C-4.01171875 4.08765625 -4.01171875 5.07765625 -4.01171875 6.09765625 C-4.34171875 6.75765625 -4.67171875 7.41765625 -5.01171875 8.09765625 C-5.67171875 8.09765625 -6.33171875 8.09765625 -7.01171875 8.09765625 C-6.35171875 8.42765625 -5.69171875 8.75765625 -5.01171875 9.09765625 C-4.38671875 11.16015625 -4.38671875 11.16015625 -4.01171875 13.09765625 C-4.67171875 13.09765625 -5.33171875 13.09765625 -6.01171875 13.09765625 C-6.01171875 14.41765625 -6.01171875 15.73765625 -6.01171875 17.09765625 C-6.96304688 17.80341797 -6.96304688 17.80341797 -7.93359375 18.5234375 C-10.64625402 20.57832865 -10.74653904 21.97941978 -11.26171875 25.28515625 C-11.41125 26.18621094 -11.56078125 27.08726562 -11.71484375 28.015625 C-11.8128125 28.70269531 -11.91078125 29.38976562 -12.01171875 30.09765625 C-13.00171875 30.42765625 -13.99171875 30.75765625 -15.01171875 31.09765625 C-14.29769478 25.22500966 -13.01212557 19.58251494 -11.57421875 13.84765625 C-11.35701172 12.95046875 -11.13980469 12.05328125 -10.91601562 11.12890625 C-10.70138672 10.2678125 -10.48675781 9.40671875 -10.265625 8.51953125 C-10.07299072 7.7419043 -9.88035645 6.96427734 -9.68188477 6.16308594 C-9.01171875 4.09765625 -9.01171875 4.09765625 -7.01171875 1.09765625 C-4.30455633 0.19526878 -2.77395107 -0.02085677 0 0 Z " fill="#969D7F" transform="translate(92.01171875,251.90234375)"/>
<path d="M0 0 C2.475 0.495 2.475 0.495 5 1 C4.69201674 2.48011371 4.378482 3.95907325 4.0625 5.4375 C3.88847656 6.26121094 3.71445313 7.08492187 3.53515625 7.93359375 C3 10 3 10 2 11 C-5.54020033 12.1084505 -14.67023464 13.44325512 -22 11 C-21.67 9.68 -21.34 8.36 -21 7 C-20.67 7.33 -20.34 7.66 -20 8 C-18.08575543 7.8981629 -18.08575543 7.8981629 -15.9375 7.5625 C-13.9884375 7.2840625 -13.9884375 7.2840625 -12 7 C-11.67 7.66 -11.34 8.32 -11 9 C-9.35 9 -7.7 9 -6 9 C-6.66 8.34 -7.32 7.68 -8 7 C-7.67 6.34 -7.34 5.68 -7 5 C-5.02 5 -3.04 5 -1 5 C-0.67 3.35 -0.34 1.7 0 0 Z " fill="#99A37E" transform="translate(129,236)"/>
<path d="M0 0 C1.32 0.66 2.64 1.32 4 2 C4.08086376 4.93804996 4.1404283 7.87388075 4.1875 10.8125 C4.21263672 11.64587891 4.23777344 12.47925781 4.26367188 13.33789062 C4.27817383 14.54155273 4.27817383 14.54155273 4.29296875 15.76953125 C4.31653442 16.87711792 4.31653442 16.87711792 4.34057617 18.00708008 C3.90483807 20.55685078 3.02651306 21.44275551 1 23 C-0.984375 22.97265625 -0.984375 22.97265625 -3 22 C-4.703125 19.93359375 -4.703125 19.93359375 -6.25 17.4375 C-6.77078125 16.61121094 -7.2915625 15.78492188 -7.828125 14.93359375 C-8.21484375 14.29550781 -8.6015625 13.65742188 -9 13 C-8.34 12.67 -7.68 12.34 -7 12 C-3.7457985 14.83430453 -2.4793247 16.68607774 -2 21 C-1.01 20.34 -0.02 19.68 1 19 C1.25030977 16.41619823 1.25030977 16.41619823 1 14 C0.34 14.66 -0.32 15.32 -1 16 C-4.80666984 14.55609075 -6.26602582 12.65047197 -8 9 C-7.67 8.34 -7.34 7.68 -7 7 C-5.68 8.65 -4.36 10.3 -3 12 C-2.95101563 11.38511719 -2.90203125 10.77023437 -2.8515625 10.13671875 C-2.77679688 9.32847656 -2.70203125 8.52023437 -2.625 7.6875 C-2.55539062 6.88699219 -2.48578125 6.08648437 -2.4140625 5.26171875 C-2 3 -2 3 0 0 Z " fill="#EDD065" transform="translate(404,285)"/>
<path d="M0 0 C0.66 0.33 1.32 0.66 2 1 C2.31241455 3.71446979 2.51336592 6.33909361 2.625 9.0625 C2.66367187 9.82111328 2.70234375 10.57972656 2.7421875 11.36132812 C2.83673562 13.24047195 2.91946756 15.12020336 3 17 C5.97 17 8.94 17 12 17 C12.33 18.32 12.66 19.64 13 21 C8.05 21 3.1 21 -2 21 C-2.70958847 16.74246919 -3.18526241 13.06899662 -3.25 8.8125 C-3.27578125 7.78769531 -3.3015625 6.76289063 -3.328125 5.70703125 C-3 3 -3 3 -1.484375 1.13671875 C-0.99453125 0.76160156 -0.5046875 0.38648438 0 0 Z " fill="#F0D66A" transform="translate(303,286)"/>
<path d="M0 0 C0.66 0.33 1.32 0.66 2 1 C0.85062114 6.55533118 -0.50051835 12.02801098 -2 17.5 C-2.33 18.7065625 -2.66 19.913125 -3 21.15625 C-4 24 -4 24 -6 25 C-9.06242321 25.08711775 -12.10186465 25.1154846 -15.1640625 25.09765625 C-16.07127045 25.0962413 -16.97847839 25.09482635 -17.91317749 25.09336853 C-20.81715155 25.08776096 -23.72104915 25.07520718 -26.625 25.0625 C-28.59114472 25.05748598 -30.55729065 25.0529229 -32.5234375 25.04882812 C-37.3489879 25.03778906 -42.17448097 25.02051935 -47 25 C-46.125 18.25 -46.125 18.25 -45 16 C-44.34 16.33 -43.68 16.66 -43 17 C-43 19.31 -43 21.62 -43 24 C-32.11 23.67 -21.22 23.34 -10 23 C-9.34 21.02 -8.68 19.04 -8 17 C-5.875 16.125 -5.875 16.125 -4 16 C-2.42421759 10.70987333 -1.15058556 5.39795989 0 0 Z " fill="#F0DB78" transform="translate(122,271)"/>
<path d="M0 0 C0.33 0 0.66 0 1 0 C1.66 3.3 2.32 6.6 3 10 C4.74965358 10.05429959 6.49979787 10.09292823 8.25 10.125 C9.22453125 10.14820313 10.1990625 10.17140625 11.203125 10.1953125 C14.0196498 9.99862781 15.60949036 9.44568916 18 8 C18 7.34 18 6.68 18 6 C18.66 6 19.32 6 20 6 C20 5.01 20 4.02 20 3 C20.66 3 21.32 3 22 3 C21.05634768 7.24643544 20.25302449 10.82528954 17 13.875 C12.54500859 15.54562178 8.57846491 15.16008401 4 14 C1.47376318 12.0899185 0.39313226 10.78626453 -1 8 C-1.125 4.4375 -1.125 4.4375 -1 1 C-0.67 0.67 -0.34 0.34 0 0 Z " fill="#E9D26C" transform="translate(364,293)"/>
<path d="M0 0 C3.96 0 7.92 0 12 0 C12.66 1.32 13.32 2.64 14 4 C13.360625 4.61875 12.72125 5.2375 12.0625 5.875 C9.96116416 7.82597612 9.96116416 7.82597612 9 10 C7.68 9.67 6.36 9.34 5 9 C5.33 6.69 5.66 4.38 6 2 C5.01 2.66 4.02 3.32 3 4 C2.01 4 1.02 4 0 4 C0 2.68 0 1.36 0 0 Z " fill="#BCB975" transform="translate(115,252)"/>
<path d="M0 0 C0.66 0 1.32 0 2 0 C2.33 1.98 2.66 3.96 3 6 C-0.4141235 8.27608233 -1.15710661 8.16488977 -5.0625 7.6875 C-5.94035156 7.58824219 -6.81820313 7.48898437 -7.72265625 7.38671875 C-10 7 -10 7 -12 6 C-11.67 5.01 -11.34 4.02 -11 3 C-3.57142857 2.85714286 -3.57142857 2.85714286 0 4 C0 2.68 0 1.36 0 0 Z " fill="#EFD974" transform="translate(271,300)"/>
<path d="M0 0 C1.32 0.33 2.64 0.66 4 1 C3.55123384 2.64846769 3.09069512 4.29373455 2.625 5.9375 C2.36976562 6.85402344 2.11453125 7.77054687 1.8515625 8.71484375 C1 11 1 11 -1 12 C-2.54023996 12.06950541 -4.08334988 12.08452357 -5.625 12.0625 C-6.85089844 12.04896484 -6.85089844 12.04896484 -8.1015625 12.03515625 C-9.04128906 12.01775391 -9.04128906 12.01775391 -10 12 C-10.33 11.34 -10.66 10.68 -11 10 C-10.01 9.67 -9.02 9.34 -8 9 C-8 9.66 -8 10.32 -8 11 C-6.02 11 -4.04 11 -2 11 C-2 10.01 -2 9.02 -2 8 C-2.66 7.67 -3.32 7.34 -4 7 C-3.34 6.030625 -2.68 5.06125 -2 4.0625 C0.09113148 1.4700747 0.09113148 1.4700747 0 0 Z " fill="#AEB178" transform="translate(74,266)"/>
<path d="M0 0 C14.19 0 28.38 0 43 0 C43 0.33 43 0.66 43 1 C38.81258759 1.16891611 34.62505782 1.33473105 30.4375 1.5 C28.66536133 1.57154297 28.66536133 1.57154297 26.85742188 1.64453125 C17.02970535 2.0299319 17.02970535 2.0299319 12.8125 1.9375 C9.54164897 2.01018558 8.32799033 2.76512928 6 5 C6 3.68 6 2.36 6 1 C4.02 1 2.04 1 0 1 C0 0.67 0 0.34 0 0 Z " fill="#124176" transform="translate(70,204)"/>
<path d="M0 0 C0.66 0 1.32 0 2 0 C2.33 5.94 2.66 11.88 3 18 C2.34 18.33 1.68 18.66 1 19 C1 18.01 1 17.02 1 16 C0.34 16 -0.32 16 -1 16 C-1.02692484 13.70839681 -1.04636124 11.41670454 -1.0625 9.125 C-1.07410156 7.84882813 -1.08570313 6.57265625 -1.09765625 5.2578125 C-1 2 -1 2 0 0 Z " fill="#FAE076" transform="translate(332,286)"/>
<path d="M0 0 C1.5 1.375 1.5 1.375 3 3 C3 3.66 3 4.32 3 5 C6.171738 6.585869 9.63513822 6.37866445 13.125 6.5625 C14.25615234 6.62727539 14.25615234 6.62727539 15.41015625 6.69335938 C17.27321888 6.7994832 19.13658524 6.90025001 21 7 C21 7.33 21 7.66 21 8 C6.46153846 10.15384615 6.46153846 10.15384615 0 8 C-1.22393475 5.04215769 -0.96516243 3.00272755 0 0 Z " fill="#688990" transform="translate(59,239)"/>
<path d="M0 0 C1.32 0.66 2.64 1.32 4 2 C3.34 2 2.68 2 2 2 C2 3.32 2 4.64 2 6 C1.04867187 6.70576172 1.04867187 6.70576172 0.078125 7.42578125 C-2.63453527 9.4806724 -2.73482029 10.88176353 -3.25 14.1875 C-3.39953125 15.08855469 -3.5490625 15.98960937 -3.703125 16.91796875 C-3.80109375 17.60503906 -3.8990625 18.29210937 -4 19 C-4.99 19.33 -5.98 19.66 -7 20 C-6.35812082 14.86496656 -5.31727753 10.0056546 -4 5 C-2.68 4.67 -1.36 4.34 0 4 C0 2.68 0 1.36 0 0 Z " fill="#B6B477" transform="translate(84,263)"/>
<path d="M0 0 C0.33 0 0.66 0 1 0 C1 4.95 1 9.9 1 15 C1.66 15 2.32 15 3 15 C3 11.37 3 7.74 3 4 C3.66 4 4.32 4 5 4 C4.67 7.96 4.34 11.92 4 16 C2.68 16.33 1.36 16.66 0 17 C-0.98844951 13.05352382 -0.96191905 9.72607036 -0.5625 5.6875 C-0.46066406 4.61886719 -0.35882813 3.55023438 -0.25390625 2.44921875 C-0.17011719 1.64097656 -0.08632813 0.83273437 0 0 Z " fill="#E5CB6A" transform="translate(388,291)"/>
<path d="M0 0 C0.79921875 0.29648437 1.5984375 0.59296875 2.421875 0.8984375 C3.02515625 1.13820313 3.6284375 1.37796875 4.25 1.625 C3.92 2.615 3.59 3.605 3.25 4.625 C-1.37 3.965 -5.99 3.305 -10.75 2.625 C-7.07663851 -1.04836149 -4.91357932 -1.8787215 0 0 Z " fill="#F2D975" transform="translate(421.75,286.375)"/>
<path d="M0 0 C1.0725 0.144375 2.145 0.28875 3.25 0.4375 C8.81717318 1.1384031 14.4070964 1.56188922 20 2 C20 2.33 20 2.66 20 3 C10.76 3 1.52 3 -8 3 C-8 2.67 -8 2.34 -8 2 C-5.36 2 -2.72 2 0 2 C0 1.34 0 0.68 0 0 Z " fill="#7A8983" transform="translate(80,245)"/>
<path d="M0 0 C5.61 0 11.22 0 17 0 C16.67 0.66 16.34 1.32 16 2 C13.45058627 2.31241371 10.99638487 2.51303421 8.4375 2.625 C7.37112305 2.68300781 7.37112305 2.68300781 6.28320312 2.7421875 C4.52257575 2.83671783 2.76132272 2.91945817 1 3 C0.67 2.01 0.34 1.02 0 0 Z " fill="#8A8E70" transform="translate(88,252)"/>
<path d="M0 0 C0 0.33 0 0.66 0 1 C-0.969375 1.12375 -1.93875 1.2475 -2.9375 1.375 C-3.948125 1.58125 -4.95875 1.7875 -6 2 C-6.33 2.66 -6.66 3.32 -7 4 C-5.865625 4.12375 -4.73125 4.2475 -3.5625 4.375 C-2.386875 4.58125 -1.21125 4.7875 0 5 C0.33 5.66 0.66 6.32 1 7 C-5.625 6.25 -5.625 6.25 -9 4 C-9 2.68 -9 1.36 -9 0 C-5.93109813 -1.53445094 -3.29905734 -0.54984289 0 0 Z " fill="#DEC961" transform="translate(422,290)"/>
<path d="M0 0 C0.66 0.33 1.32 0.66 2 1 C2 3.31 2 5.62 2 8 C4.31 8 6.62 8 9 8 C9 8.33 9 8.66 9 9 C5.37 9 1.74 9 -2 9 C-1.125 2.25 -1.125 2.25 0 0 Z " fill="#E8D466" transform="translate(77,287)"/>
<path d="M0 0 C0.99 0 1.98 0 3 0 C2.67 1.65 2.34 3.3 2 5 C-0.64 5.33 -3.28 5.66 -6 6 C-6.33 5.01 -6.66 4.02 -7 3 C-5.5459375 2.5359375 -5.5459375 2.5359375 -4.0625 2.0625 C-1.15934208 1.30476658 -1.15934208 1.30476658 0 0 Z " fill="#F6DC65" transform="translate(330,302)"/>
<path d="M0 0 C1.9375 0.9375 1.9375 0.9375 3.1875 3.5 C3.435 4.304375 3.6825 5.10875 3.9375 5.9375 C2.9475 5.6075 1.9575 5.2775 0.9375 4.9375 C-0.72871616 4.89875079 -2.39644172 4.8924714 -4.0625 4.9375 C-4.3925 5.5975 -4.7225 6.2575 -5.0625 6.9375 C-5.25 4.5625 -5.25 4.5625 -5.0625 1.9375 C-2.0625 -0.0625 -2.0625 -0.0625 0 0 Z " fill="#F0DF7B" transform="translate(392.0625,286.0625)"/>
<path d="M0 0 C0.33 0.66 0.66 1.32 1 2 C1.66 2 2.32 2 3 2 C3.28990619 7.21831143 1.84880302 9.72679547 -1 14 C-0.979375 13.21625 -0.95875 12.4325 -0.9375 11.625 C-0.81315937 9.01885039 -0.81315937 9.01885039 -2 7 C-1.39239518 4.6505947 -0.72870472 2.31470912 0 0 Z " fill="#E5CE64" transform="translate(121,265)"/>
<path d="M0 0 C2 0 2 0 4.0625 1.6875 C6.17875625 4.21335423 6.64119018 5.77071161 7 9 C7.99 8.34 8.98 7.68 10 7 C10.99 7.33 11.98 7.66 13 8 C11.75 9.5625 11.75 9.5625 10 11 C8.09375 10.87109375 8.09375 10.87109375 6 10 C4.296875 7.96875 4.296875 7.96875 2.75 5.5 C2.22921875 4.6853125 1.7084375 3.870625 1.171875 3.03125 C0 1 0 1 0 0 Z " fill="#EDD777" transform="translate(395,297)"/>
<path d="M0 0 C0.66 0.66 1.32 1.32 2 2 C1.01 4.31 0.02 6.62 -1 9 C-4.63 9 -8.26 9 -12 9 C-10 7 -10 7 -7.8359375 6.8046875 C-6.61777344 6.83949219 -6.61777344 6.83949219 -5.375 6.875 C-4.14910156 6.90207031 -4.14910156 6.90207031 -2.8984375 6.9296875 C-1.95871094 6.96449219 -1.95871094 6.96449219 -1 7 C-1.20625 6.21625 -1.4125 5.4325 -1.625 4.625 C-1.74875 3.75875 -1.8725 2.8925 -2 2 C-1.34 1.34 -0.68 0.68 0 0 Z " fill="#A5AA8A" transform="translate(132,238)"/>
<path d="M0 0 C-0.33 2.31 -0.66 4.62 -1 7 C-2.65 7 -4.3 7 -6 7 C-6.1875 4.625 -6.1875 4.625 -6 2 C-3 0 -3 0 0 0 Z " fill="#9FA67D" transform="translate(56,270)"/>
<path d="M0 0 C2.69725519 1.88807863 4.13216429 3.19824644 6 6 C5.34 6 4.68 6 4 6 C4 6.66 4 7.32 4 8 C2.68 8 1.36 8 0 8 C0 5.36 0 2.72 0 0 Z " fill="#F4D559" transform="translate(356,288)"/>
<path d="M0 0 C3.96 0 7.92 0 12 0 C12 0.66 12 1.32 12 2 C10.02 2.99 8.04 3.98 6 5 C6 4.01 6 3.02 6 2 C5.01 2.66 4.02 3.32 3 4 C2.01 4 1.02 4 0 4 C0 2.68 0 1.36 0 0 Z " fill="#B0AF7A" transform="translate(115,252)"/>
<path d="M0 0 C4.07279689 0.38422612 7.46574118 0.87944471 11 3 C9.9275 3.144375 8.855 3.28875 7.75 3.4375 C5.08337051 3.83749442 2.58600271 4.27591924 0 5 C-0.5625 3.0625 -0.5625 3.0625 -1 1 C-0.67 0.67 -0.34 0.34 0 0 Z " fill="#E5CF74" transform="translate(411,302)"/>
<path d="M0 0 C0.99 0 1.98 0 3 0 C2.25 5.75 2.25 5.75 0 8 C0 7.34 0 6.68 0 6 C-0.66 6 -1.32 6 -2 6 C-1.125 1.125 -1.125 1.125 0 0 Z " fill="#F8D672" transform="translate(367,288)"/>
<path d="M0 0 C0.94875 0.04125 1.8975 0.0825 2.875 0.125 C2.545 1.775 2.215 3.425 1.875 5.125 C1.545 4.465 1.215 3.805 0.875 3.125 C-1.105 3.785 -3.085 4.445 -5.125 5.125 C-5.125 0.85616396 -4.22482433 0.16899297 0 0 Z " fill="#7C9082" transform="translate(101.125,239.875)"/>
<path d="M0 0 C2.97 0.495 2.97 0.495 6 1 C6 2.32 6 3.64 6 5 C3.69 5 1.38 5 -1 5 C-0.67 3.35 -0.34 1.7 0 0 Z " fill="#8A987E" transform="translate(129,232)"/>
<path d="M0 0 C0.33 0 0.66 0 1 0 C2.75456919 5.26370757 2.75456919 5.26370757 3 8 C1.1875 10.5 1.1875 10.5 -1 12 C-1.33 12 -1.66 12 -2 12 C-1 3.42857143 -1 3.42857143 0 0 Z " fill="#255993" transform="translate(66,214)"/>
<path d="M0 0 C1.32 0 2.64 0 4 0 C3.67 2.31 3.34 4.62 3 7 C1.35 7 -0.3 7 -2 7 C-1.34 4.69 -0.68 2.38 0 0 Z " fill="#FAE05C" transform="translate(114,288)"/>
<path d="M0 0 C0.99 0 1.98 0 3 0 C2.52060632 4.71403788 2.03165952 8.66579301 0 13 C-0.33 13 -0.66 13 -1 13 C-1.02696365 11.20841511 -1.04637917 9.41671527 -1.0625 7.625 C-1.07410156 6.62726563 -1.08570312 5.62953125 -1.09765625 4.6015625 C-1 2 -1 2 0 0 Z " fill="#D0C985" transform="translate(125,257)"/>
<path d="M0 0 C3.3 0 6.6 0 10 0 C9.67 0.99 9.34 1.98 9 3 C5.7 3 2.4 3 -1 3 C-0.67 2.01 -0.34 1.02 0 0 Z " fill="#BDBF4E" transform="translate(105,252)"/>
<path d="M0 0 C1.65 0 3.3 0 5 0 C4.34 0.66 3.68 1.32 3 2 C3 2.99 3 3.98 3 5 C2.34 5.66 1.68 6.32 1 7 C0.34 7 -0.32 7 -1 7 C-0.67 4.69 -0.34 2.38 0 0 Z " fill="#034CA8" transform="translate(70,205)"/>
<path d="M0 0 C4.95 0 9.9 0 15 0 C15 0.33 15 0.66 15 1 C14.071875 1.28875 13.14375 1.5775 12.1875 1.875 C8.90208333 2.8875 8.90208333 2.8875 6 5 C6 3.68 6 2.36 6 1 C4.02 1 2.04 1 0 1 C0 0.67 0 0.34 0 0 Z " fill="#07428E" transform="translate(70,204)"/>
<path d="M0 0 C0.99 0.33 1.98 0.66 3 1 C3 1.66 3 2.32 3 3 C2.01 3 1.02 3 0 3 C0 4.32 0 5.64 0 7 C-0.99 7.33 -1.98 7.66 -3 8 C-2.74438677 5.6568787 -2.40729228 3.32156597 -2 1 C-1.34 0.67 -0.68 0.34 0 0 Z " fill="#A5A780" transform="translate(84,260)"/>
<path d="M0 0 C0.99 0 1.98 0 3 0 C2.125 7.625 2.125 7.625 1 11 C0.34 11 -0.32 11 -1 11 C-0.835 9.9275 -0.67 8.855 -0.5 7.75 C0.08810915 3.96971248 0.08810915 3.96971248 0 0 Z " fill="#678287" transform="translate(105,225)"/>
<path d="M0 0 C0.66 0.33 1.32 0.66 2 1 C2.33 1.99 2.66 2.98 3 4 C2.34 4 1.68 4 1 4 C1 4.99 1 5.98 1 7 C0.34 7 -0.32 7 -1 7 C-1 7.66 -1 8.32 -1 9 C-1.66 9 -2.32 9 -3 9 C-3 8.01 -3 7.02 -3 6 C-2.34 6 -1.68 6 -1 6 C-0.67 4.02 -0.34 2.04 0 0 Z " fill="#F9E456" transform="translate(383,292)"/>
<path d="M0 0 C0.99 0 1.98 0 3 0 C3 0.66 3 1.32 3 2 C4.32 2 5.64 2 7 2 C7 2.66 7 3.32 7 4 C3.86650268 5.04449911 3.01031744 4.93423645 0 4 C0 2.68 0 1.36 0 0 Z " fill="#F6D65E" transform="translate(261,292)"/>
<path d="M0 0 C1.32 0.33 2.64 0.66 4 1 C3.34 1 2.68 1 2 1 C2.57344937 3.86724686 2.8614515 4.8614515 5 7 C3.68 7 2.36 7 1 7 C0 6 0 6 -0.0625 2.9375 C-0.041875 1.968125 -0.02125 0.99875 0 0 Z " fill="#F9DA58" transform="translate(411,289)"/>
<path d="M0 0 C4.62 0 9.24 0 14 0 C14 0.33 14 0.66 14 1 C11.02148438 1.29296875 11.02148438 1.29296875 8.04296875 1.5859375 C5.70011858 1.92665391 5.70011858 1.92665391 3 4 C2.01 2.68 1.02 1.36 0 0 Z " fill="#61966D" transform="translate(59,252)"/>
<path d="M0 0 C2.97 0 5.94 0 9 0 C8.01 0.495 8.01 0.495 7 1 C7 1.66 7 2.32 7 3 C5.35 3 3.7 3 2 3 C2 2.34 2 1.68 2 1 C1.34 0.67 0.68 0.34 0 0 Z " fill="#F6DD67" transform="translate(413,305)"/>
<path d="M0 0 C0.33 0 0.66 0 1 0 C1.125 2.375 1.125 2.375 1 5 C0.34 5.66 -0.32 6.32 -1 7 C-3.125 6.625 -3.125 6.625 -5 6 C-4.34 6 -3.68 6 -3 6 C-3 5.34 -3 4.68 -3 4 C-3.99 3.67 -4.98 3.34 -6 3 C-3.03 3.495 -3.03 3.495 0 4 C0 2.68 0 1.36 0 0 Z " fill="#F0DD81" transform="translate(425,300)"/>
<path d="M0 0 C0.66 0 1.32 0 2 0 C1.42415568 2.38564077 0.77772405 4.66682784 0 7 C-1.32 7 -2.64 7 -4 7 C-4 6.34 -4 5.68 -4 5 C-3.34 5 -2.68 5 -2 5 C-2 4.34 -2 3.68 -2 3 C-1.34 3 -0.68 3 0 3 C0 2.01 0 1.02 0 0 Z " fill="#F3D068" transform="translate(384,296)"/>
<path d="M0 0 C0.99 0.33 1.98 0.66 3 1 C3.6875 3.0625 3.6875 3.0625 4 5 C2.68 5.33 1.36 5.66 0 6 C-0.38218767 4.34385343 -0.71395102 2.67542976 -1 1 C-0.67 0.67 -0.34 0.34 0 0 Z " fill="#F7DC70" transform="translate(358,286)"/>
<path d="M0 0 C0.99 0 1.98 0 3 0 C2.34 1.65 1.68 3.3 1 5 C-0.65 5 -2.3 5 -4 5 C-2.1875 2.5 -2.1875 2.5 0 0 Z " fill="#E2C36C" transform="translate(354,286)"/>
<path d="M0 0 C0.99 0.66 1.98 1.32 3 2 C2.67 3.65 2.34 5.3 2 7 C0.68 6.34 -0.64 5.68 -2 5 C-1.125 1.125 -1.125 1.125 0 0 Z " fill="#9BA476" transform="translate(75,260)"/>
<path d="M0 0 C1.32 0.33 2.64 0.66 4 1 C4.33 2.32 4.66 3.64 5 5 C3.68 5.33 2.36 5.66 1 6 C0.4465236 3.92446352 0 2.15634036 0 0 Z " fill="#C4BD69" transform="translate(120,256)"/>
<path d="M0 0 C1.67542976 0.28604898 3.34385343 0.61781233 5 1 C3.3545622 2.68762851 1.68711423 4.3540349 0 6 C-0.33 6 -0.66 6 -1 6 C-1.042721 4.33388095 -1.04063832 2.66617115 -1 1 C-0.67 0.67 -0.34 0.34 0 0 Z " fill="#EFDC7D" transform="translate(379,302)"/>
<path d="M0 0 C0.33 0 0.66 0 1 0 C1 2.31 1 4.62 1 7 C0.01 6.67 -0.98 6.34 -2 6 C-2 5.01 -2 4.02 -2 3 C-2.66 2.67 -3.32 2.34 -4 2 C-2.68 2 -1.36 2 0 2 C0 1.34 0 0.68 0 0 Z " fill="#F6D863" transform="translate(424,297)"/>
<path d="M0 0 C0.66 0.33 1.32 0.66 2 1 C1.34 3.64 0.68 6.28 0 9 C-2 6 -2 6 -1.6875 3.9375 C-1 2 -1 2 0 0 Z " fill="#F5DA68" transform="translate(382,289)"/>
<path d="M0 0 C1 3 1 3 0 6 C-1.32 5.67 -2.64 5.34 -4 5 C-2.25 1.125 -2.25 1.125 0 0 Z " fill="#55778C" transform="translate(109,218)"/>
<path d="M0 0 C0.33 0.66 0.66 1.32 1 2 C1.66 2.33 2.32 2.66 3 3 C1.68 2.67 0.36 2.34 -1 2 C-0.67 1.34 -0.34 0.68 0 0 Z " fill="#D9D392" transform="translate(275,288)"/>
</svg>
