<?xml version="1.0" encoding="UTF-8"?>
<svg version="1.1" xmlns="http://www.w3.org/2000/svg" width="500" height="500">
<path d="M0 0 C165 0 330 0 500 0 C500 165 500 330 500 500 C335 500 170 500 0 500 C0 335 0 170 0 0 Z " fill="#FEFEFE" transform="translate(0,0)"/>
<path d="M0 0 C1.72447904 0.00031742 3.44897767 0.01165954 5.17333984 0.03173828 C6.53415176 0.03598312 6.53415176 0.03598312 7.92245483 0.04031372 C10.82652857 0.05152926 13.73029646 0.07663615 16.63427734 0.10205078 C18.60041873 0.11207881 20.56656494 0.12120497 22.53271484 0.12939453 C27.35835393 0.15147306 32.18376374 0.18601213 37.00927734 0.22705078 C38.1691006 4.18818708 37.63407612 6.53472289 36.50927734 10.53955078 C36.33493164 11.16676025 36.16058594 11.79396973 35.98095703 12.44018555 C33.16666583 22.41909457 30.05800338 32.31869117 27.00927734 42.22705078 C13.14927734 42.22705078 -0.71072266 42.22705078 -14.99072266 42.22705078 C-15.97685461 38.28252296 -16.01877243 37.41031031 -14.91650391 33.77001953 C-14.66288086 32.91126221 -14.40925781 32.05250488 -14.14794922 31.16772461 C-13.86918945 30.25917725 -13.59042969 29.35062988 -13.30322266 28.41455078 C-12.74070703 26.52692213 -12.17951804 24.63889765 -11.61962891 22.75048828 C-11.20221436 21.3520166 -11.20221436 21.3520166 -10.77636719 19.92529297 C-9.33448418 14.97324482 -8.09700668 9.96937481 -6.85009766 4.96533203 C-5.46839686 0.56273085 -4.67314923 0.2658772 0 0 Z " fill="#2C64A0" transform="translate(89.99072265625,252.77294921875)"/>
<path d="M0 0 C0.80060349 0.00022659 1.60120697 0.00045319 2.42607117 0.00068665 C3.28553848 0.0161705 4.1450058 0.03165436 5.03051758 0.04760742 C5.91411453 0.05185226 6.79771149 0.05609711 7.70808411 0.06047058 C10.53071544 0.07726574 13.35263324 0.11491921 16.17504883 0.15307617 C18.08844998 0.16812194 20.00186231 0.18181053 21.9152832 0.1940918 C26.60631342 0.22717199 31.29681014 0.27895987 35.98754883 0.34057617 C37.33400221 4.69649321 36.22674733 8.0277444 34.96801758 12.28198242 C34.74938553 13.04606918 34.53075348 13.81015594 34.30549622 14.59739685 C33.84183017 16.21000819 33.37334538 17.82124075 32.90039062 19.43115234 C32.17756579 21.8944985 31.47103745 24.36208103 30.7668457 26.83081055 C30.31402567 28.39814436 29.86028058 29.96521126 29.40551758 31.53198242 C29.08818916 32.63830772 29.08818916 32.63830772 28.76445007 33.76698303 C27.80305365 37.01881338 26.88414014 39.49568921 24.98754883 42.34057617 C21.87717186 42.61949948 18.96861412 42.71216926 15.85864258 42.66870117 C14.9538063 42.666828 14.04897003 42.66495483 13.11671448 42.6630249 C11.20260945 42.65629676 9.28851835 42.6423672 7.37451172 42.62182617 C4.43354623 42.5906662 1.49311614 42.58085653 -1.44799805 42.57495117 C-3.30412442 42.5657818 -5.16024531 42.55540624 -7.01635742 42.54370117 C-8.34444176 42.53732635 -8.34444176 42.53732635 -9.69935608 42.53082275 C-15.89530591 42.45772143 -15.89530591 42.45772143 -17.01245117 41.34057617 C-16.5562894 34.49814961 -14.63903846 28.28983018 -12.57495117 21.77807617 C-11.95079537 19.77691684 -11.3270865 17.77561806 -10.70385742 15.77416992 C-10.25937256 14.36820557 -10.25937256 14.36820557 -9.8059082 12.93383789 C-9.13354452 10.73634649 -8.54252865 8.53968046 -7.97729492 6.31323242 C-6.51489584 1.80762229 -4.80591275 -0.04548182 0 0 Z " fill="#BCB76F" transform="translate(76.012451171875,204.659423828125)"/>
<path d="M0 0 C6.08613323 3.15879846 9.05395044 7.53487977 11.49609375 13.84375 C12.41012461 21.38450456 11.61163423 27.26572655 7.74609375 33.90625 C3.22806665 39.12601322 -1.37926473 42.2273831 -8.2734375 43.1875 C-14.80800406 43.64526298 -19.91484502 41.61185719 -25.25390625 37.90625 C-30.35903934 32.88461208 -32.2207077 26.64184147 -32.69140625 19.59375 C-32.50458875 13.15404081 -29.88812585 7.43797079 -25.24609375 2.9765625 C-17.51777732 -2.98365201 -9.03279776 -3.92572297 0 0 Z " fill="#FBFCFD" transform="translate(362.25390625,230.09375)"/>
<path d="M0 0 C0.93005859 -0.02900391 1.86011719 -0.05800781 2.81835938 -0.08789062 C9.07692595 -0.14506657 13.75393915 0.6726451 18.9375 4.3125 C20.99609375 6.34765625 20.99609375 6.34765625 22.375 8.375 C22.84808594 9.04660156 23.32117188 9.71820313 23.80859375 10.41015625 C26.90152701 15.62212338 26.53628378 21.46010135 25.9375 27.3125 C24.38171308 33.00382257 21.63429294 37.33494197 16.9375 40.9375 C9.19580324 45.13338145 -1.50476976 44.26138592 -10.0625 43.3125 C-11.98507175 41.38992825 -11.19158424 38.53164892 -11.20144653 35.97375488 C-11.1994223 35.08522827 -11.19739807 34.19670166 -11.1953125 33.28125 C-11.19626923 32.37499878 -11.19722595 31.46874756 -11.19821167 30.53503418 C-11.19889353 28.61498953 -11.19703882 26.69494259 -11.19287109 24.77490234 C-11.18752292 21.82514296 -11.19281588 18.87553586 -11.19921875 15.92578125 C-11.19855797 14.06510383 -11.19727681 12.2044265 -11.1953125 10.34375 C-11.19733673 9.45522339 -11.19936096 8.56669678 -11.20144653 7.65124512 C-11.16606739 -1.52472444 -8.17903077 0.08261647 0 0 Z " fill="#FAFBFD" transform="translate(165.0625,228.6875)"/>
<path d="M0 0 C3.87142019 1.99436798 4.75556455 7.12851656 6.05200195 11.07348633 C7.13968778 14.54273777 8.19987368 18.01920153 9.25 21.5 C9.61802734 22.70849609 9.98605469 23.91699219 10.36523438 25.16210938 C11.26785235 28.12785416 12.16682811 31.09465155 13.0625 34.0625 C13.25360352 33.48918945 13.44470703 32.91587891 13.64160156 32.32519531 C17.11523438 21.90429688 20.58886719 11.48339844 24.0625 1.0625 C25.7125 1.0625 27.3625 1.0625 29.0625 1.0625 C28.54890182 7.26027288 27.48759594 12.55925978 25.33984375 18.37890625 C25.07490616 19.12083725 24.80996857 19.86276825 24.53700256 20.62718201 C23.700481 22.9631991 22.8505358 25.29405389 22 27.625 C21.42553173 29.22168148 20.85195591 30.81868436 20.27929688 32.41601562 C18.88397227 36.30196336 17.47659899 40.18334696 16.0625 44.0625 C14.4125 44.0625 12.7625 44.0625 11.0625 44.0625 C6.90439813 36.82432267 4.85731431 29.09305926 2.63183594 21.10498047 C1.79043929 18.08648803 0.92544588 15.07489366 0.0625 12.0625 C-3.373725 19.45038376 -5.56260293 27.23143966 -7.7890625 35.0546875 C-8.04429687 35.94414062 -8.29953125 36.83359375 -8.5625 37.75 C-8.78164063 38.53761719 -9.00078125 39.32523437 -9.2265625 40.13671875 C-9.9375 42.0625 -9.9375 42.0625 -11.9375 44.0625 C-14.375 44.0625 -14.375 44.0625 -16.9375 43.0625 C-19.53408945 38.65433652 -20.96044558 34.024017 -22.3125 29.125 C-24.32008351 22.03909161 -26.57840494 15.08453978 -29.01953125 8.13671875 C-29.9375 5.0625 -29.9375 5.0625 -29.9375 1.0625 C-28.2875 1.0625 -26.6375 1.0625 -24.9375 1.0625 C-22.60755585 6.94867469 -20.6852409 12.93772712 -18.82739258 18.98632812 C-17.27337688 24.03797002 -15.62645559 29.05439843 -13.9375 34.0625 C-13.64504395 33.10359863 -13.35258789 32.14469727 -13.05126953 31.15673828 C-11.96549891 27.60268638 -10.87146425 24.05122403 -9.77490234 20.50048828 C-9.3012845 18.96277221 -8.82991668 17.42436127 -8.36083984 15.88525391 C-7.68656009 13.67424353 -7.00425216 11.46585097 -6.3203125 9.2578125 C-6.11189728 8.56817413 -5.90348206 7.87853577 -5.68875122 7.16799927 C-3.48502679 0.11242022 -3.48502679 0.11242022 0 0 Z " fill="#0E54B1" transform="translate(408.9375,227.9375)"/>
<path d="M0 0 C7.73348055 3.38576113 13.42322608 15.65089533 17.98461914 22.45874023 C19.3053818 24.41894994 20.62695067 26.37861675 21.94946289 28.33764648 C22.52172607 29.19044189 23.09398926 30.0432373 23.68359375 30.921875 C24.89828426 32.80740945 24.89828426 32.80740945 26.04711914 33.89624023 C26.37711914 23.33624023 26.70711914 12.77624023 27.04711914 1.89624023 C28.69711914 1.56624023 30.34711914 1.23624023 32.04711914 0.89624023 C34.16545949 3.01458058 33.21131028 7.74227397 33.21508789 10.67358398 C33.22008049 11.99610924 33.22008049 11.99610924 33.22517395 13.34535217 C33.23024698 15.21411618 33.23258216 17.08288927 33.23242188 18.95166016 C33.23460722 21.81810368 33.25275569 24.68416183 33.27172852 27.55053711 C33.27466253 29.36238474 33.27664727 31.17423422 33.27758789 32.98608398 C33.28477341 33.84757553 33.29195892 34.70906708 33.29936218 35.59666443 C33.27594074 41.66741864 33.27594074 41.66741864 31.04711914 43.89624023 C28.79711914 44.45874023 28.79711914 44.45874023 26.04711914 43.89624023 C20.77212724 38.33797591 16.615483 32.06096433 12.35961914 25.70874023 C11.04399037 23.75639317 9.72761306 21.80455027 8.41040039 19.85327148 C7.83588135 18.99709229 7.2613623 18.14091309 6.66943359 17.25878906 C5.18551268 15.09778038 3.61998682 12.99339714 2.04711914 10.89624023 C1.71711914 21.45624023 1.38711914 32.01624023 1.04711914 42.89624023 C-1.42788086 43.39124023 -1.42788086 43.39124023 -3.95288086 43.89624023 C-6.09695139 41.7521697 -5.14173186 36.87389114 -5.15600586 33.90014648 C-5.16170593 32.99626694 -5.16740601 32.09238739 -5.17327881 31.16111755 C-5.18274314 29.24528174 -5.18926846 27.32942955 -5.19311523 25.41357422 C-5.20282855 22.47456655 -5.23384133 19.53625567 -5.26538086 16.59741211 C-5.27190974 14.73999441 -5.27716067 12.88257168 -5.28100586 11.02514648 C-5.29335266 10.14178116 -5.30569946 9.25841583 -5.31842041 8.34828186 C-5.30932617 5.87109375 -5.30932617 5.87109375 -4.95288086 1.89624023 C-1.95288086 -0.10375977 -1.95288086 -0.10375977 0 0 Z " fill="#0D53B1" transform="translate(287.952880859375,228.103759765625)"/>
<path d="M0 0 C6.08613323 3.15879846 9.05395044 7.53487977 11.49609375 13.84375 C12.41012461 21.38450456 11.61163423 27.26572655 7.74609375 33.90625 C3.22806665 39.12601322 -1.37926473 42.2273831 -8.2734375 43.1875 C-14.80800406 43.64526298 -19.91484502 41.61185719 -25.25390625 37.90625 C-30.35903934 32.88461208 -32.2207077 26.64184147 -32.69140625 19.59375 C-32.50458875 13.15404081 -29.88812585 7.43797079 -25.24609375 2.9765625 C-17.51777732 -2.98365201 -9.03279776 -3.92572297 0 0 Z M-23.01953125 8.20703125 C-26.62938529 13.17629235 -27.05914063 18.95758101 -26.25390625 24.90625 C-24.89764193 29.27557882 -22.96129468 32.21611495 -19.69140625 35.40625 C-14.26635262 37.77354613 -8.83171892 37.95854784 -3.12890625 36.28125 C1.08285186 34.24798746 3.30016925 31.34769514 5.08203125 27.1796875 C6.54251963 22.17966256 6.80393835 17.46848836 4.79296875 12.59765625 C2.38212398 8.43971195 0.14522968 6.02692385 -4.25390625 3.90625 C-11.41529864 2.73685808 -17.8352852 2.7019779 -23.01953125 8.20703125 Z " fill="#0F54B1" transform="translate(362.25390625,230.09375)"/>
<path d="M0 0 C0.93005859 -0.02900391 1.86011719 -0.05800781 2.81835938 -0.08789062 C9.07692595 -0.14506657 13.75393915 0.6726451 18.9375 4.3125 C20.99609375 6.34765625 20.99609375 6.34765625 22.375 8.375 C22.84808594 9.04660156 23.32117188 9.71820313 23.80859375 10.41015625 C26.90152701 15.62212338 26.53628378 21.46010135 25.9375 27.3125 C24.38171308 33.00382257 21.63429294 37.33494197 16.9375 40.9375 C9.19580324 45.13338145 -1.50476976 44.26138592 -10.0625 43.3125 C-11.98507175 41.38992825 -11.19158424 38.53164892 -11.20144653 35.97375488 C-11.1994223 35.08522827 -11.19739807 34.19670166 -11.1953125 33.28125 C-11.19626923 32.37499878 -11.19722595 31.46874756 -11.19821167 30.53503418 C-11.19889353 28.61498953 -11.19703882 26.69494259 -11.19287109 24.77490234 C-11.18752292 21.82514296 -11.19281588 18.87553586 -11.19921875 15.92578125 C-11.19855797 14.06510383 -11.19727681 12.2044265 -11.1953125 10.34375 C-11.19733673 9.45522339 -11.19936096 8.56669678 -11.20144653 7.65124512 C-11.16606739 -1.52472444 -8.17903077 0.08261647 0 0 Z M-5.0625 5.3125 C-5.0625 16.2025 -5.0625 27.0925 -5.0625 38.3125 C5.77919142 38.68275194 5.77919142 38.68275194 14.9375 35.3125 C18.72527419 31.42504754 21.21491706 27.49391933 21.3125 22 C21.1438554 16.29419097 19.404375 12.76078046 15.3828125 8.76953125 C8.58765677 3.56380036 4.43851569 5.3125 -5.0625 5.3125 Z " fill="#0A51B0" transform="translate(165.0625,228.6875)"/>
<path d="M0 0 C1.8984375 1.265625 1.8984375 1.265625 2.671875 3.40625 C2.74664062 4.01984375 2.82140625 4.6334375 2.8984375 5.265625 C-1.62452858 6.52200447 -1.62452858 6.52200447 -3.875 5.3125 C-8.54282565 3.11780303 -14.07408279 3.75912518 -19.1015625 4.265625 C-23.74896313 6.42907012 -25.82334386 8.748021 -28.1015625 13.265625 C-28.96452006 19.55167862 -29.02280099 26.03730701 -25.1015625 31.265625 C-21.15004155 35.21714595 -17.85089064 35.52389972 -12.4765625 35.578125 C-8.73429707 35.49525432 -5.75540527 35.17908569 -2.1015625 34.265625 C-2.1015625 30.305625 -2.1015625 26.345625 -2.1015625 22.265625 C-6.0615625 22.265625 -10.0215625 22.265625 -14.1015625 22.265625 C-13.7715625 20.615625 -13.4415625 18.965625 -13.1015625 17.265625 C-10.62232449 17.23877405 -8.1433741 17.21885953 -5.6640625 17.203125 C-4.95701172 17.19474609 -4.24996094 17.18636719 -3.52148438 17.17773438 C-1.71462691 17.16908912 0.09231353 17.21342489 1.8984375 17.265625 C4.15733945 19.52452695 3.2248328 24.60945938 3.2734375 27.640625 C3.32951172 28.95546875 3.32951172 28.95546875 3.38671875 30.296875 C3.42003142 32.71759536 3.38973502 34.89419182 2.8984375 37.265625 C0.578125 39.29296875 0.578125 39.29296875 -2.1015625 40.265625 C-3.1740625 40.6575 -4.2465625 41.049375 -5.3515625 41.453125 C-13.26925824 43.16862574 -18.67589458 42.71079028 -25.8671875 38.7578125 C-30.61406652 35.587694 -33.30161005 31.68895998 -35.1015625 26.265625 C-35.93880982 18.66225113 -35.94740662 11.4858752 -31.1015625 5.265625 C-22.12516358 -4.24255111 -11.81616834 -4.69664735 0 0 Z " fill="#0E54B1" transform="translate(251.1015625,230.734375)"/>
<path d="M0 0 C0.91644287 0.00523682 1.83288574 0.01047363 2.77709961 0.01586914 C3.76645508 0.0190918 4.75581055 0.02231445 5.77514648 0.02563477 C6.81606445 0.03401367 7.85698242 0.04239258 8.92944336 0.05102539 C10.49662109 0.05779297 10.49662109 0.05779297 12.09545898 0.06469727 C14.68600996 0.07652627 17.27644895 0.0930085 19.86694336 0.11352539 C20.75439042 3.64010227 20.91421366 6.01246087 19.90600586 9.50415039 C19.56956055 10.69137695 19.56956055 10.69137695 19.22631836 11.90258789 C18.98397461 12.71469727 18.74163086 13.52680664 18.49194336 14.36352539 C18.25733398 15.19110352 18.02272461 16.01868164 17.78100586 16.87133789 C16.02582153 22.95464722 16.02582153 22.95464722 14.86694336 24.11352539 C13.15921978 24.20066371 11.44795687 24.22052546 9.73803711 24.21118164 C8.18632813 24.20634766 8.18632813 24.20634766 6.60327148 24.20141602 C5.5146582 24.19303711 4.42604492 24.1846582 3.30444336 24.17602539 C1.66572266 24.16925781 1.66572266 24.16925781 -0.00610352 24.16235352 C-2.71514159 24.15052366 -5.42407263 24.13404082 -8.13305664 24.11352539 C-9.23419337 20.8162066 -9.02214067 18.88485532 -7.95336914 15.60180664 C-7.54924805 14.34207031 -7.54924805 14.34207031 -7.13696289 13.05688477 C-6.84692383 12.18870117 -6.55688477 11.32051758 -6.25805664 10.42602539 C-5.97575195 9.54624023 -5.69344727 8.66645508 -5.40258789 7.76000977 C-2.92845369 0.15585796 -2.92845369 0.15585796 0 0 Z " fill="#6B898D" transform="translate(59.133056640625,252.886474609375)"/>
<path d="M0 0 C0.9583374 0.00523682 1.9166748 0.01047363 2.90405273 0.01586914 C4.45576172 0.02070313 4.45576172 0.02070313 6.03881836 0.02563477 C7.12743164 0.03401367 8.21604492 0.04239258 9.33764648 0.05102539 C10.97636719 0.05779297 10.97636719 0.05779297 12.64819336 0.06469727 C15.35723144 0.07652713 18.06616248 0.09300996 20.77514648 0.11352539 C19.88361264 11.7371082 19.88361264 11.7371082 18.33764648 17.17602539 C18.09143555 18.07450195 17.84522461 18.97297852 17.59155273 19.89868164 C16.77514648 22.11352539 16.77514648 22.11352539 14.77514648 24.11352539 C12.54443359 24.35644531 12.54443359 24.35644531 9.80249023 24.34399414 C8.82086914 24.34206055 7.83924805 24.34012695 6.82788086 24.33813477 C5.79985352 24.32588867 4.77182617 24.31364258 3.71264648 24.30102539 C2.68075195 24.30038086 1.64885742 24.29973633 0.58569336 24.29907227 C-7.08469355 24.25368536 -7.08469355 24.25368536 -8.22485352 23.11352539 C-7.94062565 17.42896807 -6.94421361 0.35433549 0 0 Z " fill="#7D9385" transform="translate(115.224853515625,222.886474609375)"/>
<path d="M0 0 C3.16872216 0.68885264 4.96142228 2.13674555 7.15625 4.46875 C8.68839888 7.53304776 8.38563548 10.0853142 8.15625 13.46875 C6.50485695 17.0074494 5.44019771 18.27945153 2.15625 20.46875 C-0.93442378 21.07067898 -3.75287086 21.07501701 -6.84375 20.46875 C-10.00240026 17.89025999 -11.37885335 16.40517904 -12.31640625 12.5 C-12.59418362 8.7963017 -11.99692052 6.0574061 -9.90625 2.96875 C-6.30587166 0.02966564 -4.51800289 -0.30120019 0 0 Z " fill="#FFFDF9" transform="translate(378.84375,283.53125)"/>
<path d="M0 0 C3.16872216 0.68885264 4.96142228 2.13674555 7.15625 4.46875 C8.68839888 7.53304776 8.38563548 10.0853142 8.15625 13.46875 C6.50485695 17.0074494 5.44019771 18.27945153 2.15625 20.46875 C-0.93442378 21.07067898 -3.75287086 21.07501701 -6.84375 20.46875 C-10.00240026 17.89025999 -11.37885335 16.40517904 -12.31640625 12.5 C-12.59418362 8.7963017 -11.99692052 6.0574061 -9.90625 2.96875 C-6.30587166 0.02966564 -4.51800289 -0.30120019 0 0 Z " fill="#FFFDF9" transform="translate(291.84375,283.53125)"/>
<path d="M0 0 C2.475 0.495 2.475 0.495 5 1 C5 14.53 5 28.06 5 42 C2.525 42.495 2.525 42.495 0 43 C0 28.81 0 14.62 0 0 Z " fill="#004AAD" transform="translate(266,229)"/>
<path d="M0 0 C1.65 0 3.3 0 5 0 C5 13.86 5 27.72 5 42 C3.02 42.495 3.02 42.495 1 43 C0 42 0 42 -0.11352539 38.03100586 C-0.1133662 36.25894393 -0.10766785 34.4868774 -0.09765625 32.71484375 C-0.0962413 31.78402481 -0.09482635 30.85320587 -0.09336853 29.8941803 C-0.08775172 26.90858809 -0.0751964 23.92306971 -0.0625 20.9375 C-0.05748716 18.91862087 -0.05292388 16.89974057 -0.04882812 14.88085938 C-0.03777683 9.92054428 -0.02050095 4.96028468 0 0 Z " fill="#004AAD" transform="translate(201,229)"/>
<path d="M0 0 C1.765625 0.02734375 1.765625 0.02734375 4 1 C5.73673882 3.16517274 7.25089089 5.24547306 8.75 7.5625 C9.16121094 8.17802734 9.57242187 8.79355469 9.99609375 9.42773438 C11.00763511 10.94504641 12.00519789 12.47166086 13 14 C13.33 9.38 13.66 4.76 14 0 C14.99 0 15.98 0 17 0 C17 6.27 17 12.54 17 19 C15.68 19.33 14.36 19.66 13 20 C9.7 15.38 6.4 10.76 3 6 C2.67 10.62 2.34 15.24 2 20 C1.01 20 0.02 20 -1 20 C-1.02888514 16.85418577 -1.04675923 13.70840531 -1.0625 10.5625 C-1.07087891 9.66466797 -1.07925781 8.76683594 -1.08789062 7.84179688 C-1.09111328 6.98779297 -1.09433594 6.13378906 -1.09765625 5.25390625 C-1.10551147 4.06776733 -1.10551147 4.06776733 -1.11352539 2.85766602 C-1 1 -1 1 0 0 Z " fill="#FFE16C" transform="translate(392,284)"/>
<path d="M0 0 C3.16872216 0.68885264 4.96142228 2.13674555 7.15625 4.46875 C8.68839888 7.53304776 8.38563548 10.0853142 8.15625 13.46875 C6.50485695 17.0074494 5.44019771 18.27945153 2.15625 20.46875 C-0.93442378 21.07067898 -3.75287086 21.07501701 -6.84375 20.46875 C-10.00240026 17.89025999 -11.37885335 16.40517904 -12.31640625 12.5 C-12.59418362 8.7963017 -11.99692052 6.0574061 -9.90625 2.96875 C-6.30587166 0.02966564 -4.51800289 -0.30120019 0 0 Z M-8.84375 6.46875 C-9.66818434 10.53262835 -9.44956932 13.47520632 -7.28125 17.03125 C-4.80379737 18.77868554 -4.80379737 18.77868554 -1.28125 18.40625 C1.99087035 17.65738616 1.99087035 17.65738616 4.09375 16.40625 C5.85441113 13.19563264 5.90978146 9.96879798 5.15625 6.46875 C2.7378709 3.70488818 1.18967666 2.67039423 -2.40625 1.96875 C-5.80686101 2.66631123 -6.89820623 3.58646294 -8.84375 6.46875 Z " fill="#FFE067" transform="translate(378.84375,283.53125)"/>
<path d="M0 0 C3.16872216 0.68885264 4.96142228 2.13674555 7.15625 4.46875 C8.68839888 7.53304776 8.38563548 10.0853142 8.15625 13.46875 C6.50485695 17.0074494 5.44019771 18.27945153 2.15625 20.46875 C-0.93442378 21.07067898 -3.75287086 21.07501701 -6.84375 20.46875 C-10.00240026 17.89025999 -11.37885335 16.40517904 -12.31640625 12.5 C-12.59418362 8.7963017 -11.99692052 6.0574061 -9.90625 2.96875 C-6.30587166 0.02966564 -4.51800289 -0.30120019 0 0 Z M-8.84375 6.46875 C-9.66818434 10.53262835 -9.44956932 13.47520632 -7.28125 17.03125 C-4.80379737 18.77868554 -4.80379737 18.77868554 -1.28125 18.40625 C1.99087035 17.65738616 1.99087035 17.65738616 4.09375 16.40625 C5.85441113 13.19563264 5.90978146 9.96879798 5.15625 6.46875 C2.7378709 3.70488818 1.18967666 2.67039423 -2.40625 1.96875 C-5.80686101 2.66631123 -6.89820623 3.58646294 -8.84375 6.46875 Z " fill="#FFE067" transform="translate(291.84375,283.53125)"/>
<path d="M0 0 C1.17755859 0.02320313 1.17755859 0.02320313 2.37890625 0.046875 C4.4375 0.25 4.4375 0.25 6.4375 1.25 C6.4375 1.91 6.4375 2.57 6.4375 3.25 C3.4675 3.25 0.4975 3.25 -2.5625 3.25 C-2.8925 4.57 -3.2225 5.89 -3.5625 7.25 C-2.49708984 7.66572266 -2.49708984 7.66572266 -1.41015625 8.08984375 C-0.49105469 8.45207031 0.42804688 8.81429688 1.375 9.1875 C2.29152344 9.54714844 3.20804687 9.90679687 4.15234375 10.27734375 C6.4375 11.25 6.4375 11.25 7.4375 12.25 C7.72701263 15.00037003 7.89728015 16.6179895 6.23828125 18.8984375 C3.84273112 20.6963992 2.33959048 20.58732225 -0.625 20.5 C-1.50285156 20.48453125 -2.38070313 20.4690625 -3.28515625 20.453125 C-5.5625 20.25 -5.5625 20.25 -7.5625 19.25 C-7.5625 18.59 -7.5625 17.93 -7.5625 17.25 C-3.6025 17.25 0.3575 17.25 4.4375 17.25 C4.1075 15.93 3.7775 14.61 3.4375 13.25 C1.42118284 12.18349219 1.42118284 12.18349219 -1 11.625 C-5.38369205 10.42880795 -5.38369205 10.42880795 -7.5625 8.25 C-7.92217283 5.44455191 -8.05561473 3.90696614 -6.328125 1.60546875 C-4.07233646 -0.12629811 -2.81270455 -0.0926756 0 0 Z " fill="#FFE067" transform="translate(420.5625,283.75)"/>
<path d="M0 0 C0.66 0.33 1.32 0.66 2 1 C2 1.66 2 2.32 2 3 C-0.97 3 -3.94 3 -7 3 C-7.33 4.32 -7.66 5.64 -8 7 C-6.93458984 7.41572266 -6.93458984 7.41572266 -5.84765625 7.83984375 C-4.92855469 8.20207031 -4.00945312 8.56429688 -3.0625 8.9375 C-2.14597656 9.29714844 -1.22945313 9.65679687 -0.28515625 10.02734375 C2 11 2 11 3 12 C3.28951263 14.75037003 3.45978015 16.3679895 1.80078125 18.6484375 C-0.59476888 20.4463992 -2.09790952 20.33732225 -5.0625 20.25 C-5.94035156 20.23453125 -6.81820313 20.2190625 -7.72265625 20.203125 C-10 20 -10 20 -12 19 C-12 18.34 -12 17.68 -12 17 C-8.04 17 -4.08 17 0 17 C-0.33 15.68 -0.66 14.36 -1 13 C-3.01937002 11.97018198 -3.01937002 11.97018198 -5.4375 11.4375 C-9.7918552 10.31221719 -9.7918552 10.31221719 -12 7 C-11.8125 4.4375 -11.8125 4.4375 -11 2 C-6.94641576 -0.70238949 -4.81689896 -0.22937614 0 0 Z " fill="#FFE16A" transform="translate(274,284)"/>
<path d="M0 0 C0.66 0 1.32 0 2 0 C2.04898437 1.05960937 2.09796875 2.11921875 2.1484375 3.2109375 C2.22346709 4.59898497 2.29901485 5.98700451 2.375 7.375 C2.42140625 8.42300781 2.42140625 8.42300781 2.46875 9.4921875 C2.59499498 13.70185827 2.59499498 13.70185827 5 17 C8.465 16.505 8.465 16.505 12 16 C12.33 10.72 12.66 5.44 13 0 C13.99 0 14.98 0 16 0 C16.1081866 2.58445773 16.18737237 5.16437352 16.25 7.75 C16.30027344 8.84441406 16.30027344 8.84441406 16.3515625 9.9609375 C16.41569582 13.4882702 16.30458894 15.5714191 14.234375 18.484375 C11.88920944 20.07515164 10.7960502 20.54368828 8 20.5 C7.34 20.5103125 6.68 20.520625 6 20.53125 C2.93733783 19.71773036 1.83550858 18.58270676 0 16 C-0.2906124 13.10550051 -0.38186045 10.62050065 -0.25 7.75 C-0.23195313 7.00492187 -0.21390625 6.25984375 -0.1953125 5.4921875 C-0.14835649 3.66090299 -0.07661652 1.83028351 0 0 Z " fill="#FFE067" transform="translate(321,284)"/>
<path d="M0 0 C5.61 0 11.22 0 17 0 C16.67 0.99 16.34 1.98 16 3 C14.02 3 12.04 3 10 3 C10 8.61 10 14.22 10 20 C9.01 20 8.02 20 7 20 C7 14.39 7 8.78 7 3 C5.02 3 3.04 3 1 3 C0.67 2.01 0.34 1.02 0 0 Z " fill="#FFE270" transform="translate(340,284)"/>
<path d="M0 0 C0.99 0 1.98 0 3 0 C3 5.61 3 11.22 3 17 C6.3 17 9.6 17 13 17 C13 17.99 13 18.98 13 20 C11.02090602 20.02686553 9.04171029 20.04633375 7.0625 20.0625 C5.96035156 20.07410156 4.85820312 20.08570313 3.72265625 20.09765625 C1 20 1 20 0 19 C-0.08651611 17.58429877 -0.10704904 16.164405 -0.09765625 14.74609375 C-0.09443359 13.89208984 -0.09121094 13.03808594 -0.08789062 12.15820312 C-0.07951172 11.26037109 -0.07113281 10.36253906 -0.0625 9.4375 C-0.05798828 8.53580078 -0.05347656 7.63410156 -0.04882812 6.70507812 C-0.03700225 4.46998686 -0.0205222 2.23502563 0 0 Z " fill="#FFE16D" transform="translate(304,284)"/>
<path d="M0 0 C0.99 0 1.98 0 3 0 C3 6.6 3 13.2 3 20 C2.01 20 1.02 20 0 20 C0 13.4 0 6.8 0 0 Z " fill="#FFE26F" transform="translate(360,284)"/>
<path d="M0 0 C0.66 0.33 1.32 0.66 2 1 C1.67 1.99 1.34 2.98 1 4 C0.34 4 -0.32 4 -1 4 C-1.33 6.64 -1.66 9.28 -2 12 C-3.625 10.3125 -3.625 10.3125 -5 8 C-4.14484882 4.49388018 -2.71412367 2.3440159 0 0 Z " fill="#FFE374" transform="translate(372,284)"/>
<path d="M0 0 C0.66 0.33 1.32 0.66 2 1 C1.67 1.99 1.34 2.98 1 4 C0.34 4 -0.32 4 -1 4 C-1.33 6.64 -1.66 9.28 -2 12 C-3.625 10.3125 -3.625 10.3125 -5 8 C-4.14484882 4.49388018 -2.71412367 2.3440159 0 0 Z " fill="#FFE374" transform="translate(285,284)"/>
<path d="M0 0 C6.75 -0.125 6.75 -0.125 9 1 C9 1.66 9 2.32 9 3 C5.7 2.67 2.4 2.34 -1 2 C-0.67 1.34 -0.34 0.68 0 0 Z " fill="#FFDF5F" transform="translate(418,284)"/>
<path d="M0 0 C0.66 0.33 1.32 0.66 2 1 C0.75023244 4.65316671 0.32901247 5.78065836 -3 8 C-3.36923077 3.44615385 -3.36923077 3.44615385 -1.5 1.1875 C-1.005 0.795625 -0.51 0.40375 0 0 Z " fill="#FFE479" transform="translate(416,284)"/>
<path d="M0 0 C5.75 -0.125 5.75 -0.125 8 1 C8 1.66 8 2.32 8 3 C5.03 2.67 2.06 2.34 -1 2 C-0.67 1.34 -0.34 0.68 0 0 Z " fill="#FFDF5F" transform="translate(268,284)"/>
</svg>
