<svg version="1.1" id="Layer_1" xmlns="http://www.w3.org/2000/svg" xmlns:xlink="http://www.w3.org/1999/xlink" x="0px" y="0px"
	 width="100%" viewBox="0 0 366 109" enable-background="new 0 0 366 109" xml:space="preserve">
<path fill="#FEFEFE" opacity="1.000000" stroke="none" 
	d="
M266.000000,110.000000 
	C177.333359,110.000000 89.166710,110.000000 1.000047,110.000000 
	C1.000031,73.666695 1.000031,37.333393 1.000016,1.000067 
	C122.999939,1.000045 244.999878,1.000045 366.999878,1.000022 
	C366.999908,37.333263 366.999908,73.666527 366.999939,109.999893 
	C333.500000,110.000000 300.000000,110.000000 266.000000,110.000000 
M279.331726,69.723282 
	C279.508606,69.408676 279.685516,69.094078 279.886536,68.888130 
	C279.886536,68.888130 279.788391,68.835648 280.546875,68.872086 
	C281.718536,66.248299 282.890228,63.624512 284.823151,60.987179 
	C286.550232,60.658146 288.277344,60.329113 290.005127,60.785999 
	C290.937592,62.528793 291.870087,64.271591 293.006226,66.613823 
	C293.021698,67.033157 293.037170,67.452492 292.991730,68.619377 
	C293.312927,69.745392 293.634155,70.871407 294.507080,72.604744 
	C296.945343,72.779884 299.383575,72.955032 301.966309,73.140549 
	C303.821442,65.796387 305.578400,58.840889 307.335358,51.885387 
	C307.671478,51.868458 308.007629,51.851528 308.343750,51.834595 
	C310.100067,58.792839 311.856384,65.751083 313.646606,72.843750 
	C316.170044,72.843750 318.451294,72.843750 321.197479,72.843750 
	C323.810760,61.127388 326.433136,49.370274 329.131042,37.274651 
	C326.515106,37.274651 324.263916,37.274651 321.532715,37.274651 
	C320.911896,41.233932 320.301514,45.126747 319.293060,49.604652 
	C319.265900,50.071693 319.238739,50.538738 318.943146,51.740307 
	C318.320587,54.477058 317.698059,57.213810 316.929810,60.415447 
	C316.929810,60.415447 316.874542,60.899483 316.518372,60.853561 
	C316.518372,60.853561 316.159485,60.840183 316.001770,60.979458 
	C316.001770,60.979458 316.176056,60.862114 316.180115,60.030357 
	C314.799194,54.337872 313.418274,48.645386 311.995422,42.984962 
	C311.995422,42.984962 312.042938,42.971657 312.114166,42.146503 
	C311.688690,40.450890 311.263245,38.755272 310.931793,37.434311 
	C306.028229,35.990479 303.985626,37.586987 303.454956,42.103241 
	C303.013733,45.858204 301.861084,49.537815 300.899231,53.218315 
	C300.612823,54.314018 299.906372,55.299938 299.392395,56.336159 
	C298.881073,56.304657 298.369751,56.273151 297.858459,56.241646 
	C296.562927,49.922710 295.267426,43.603775 293.832275,36.603836 
	C291.278137,37.112911 288.988281,37.569309 286.441376,38.231293 
	C286.306580,38.582176 286.425385,38.835850 287.012451,39.631294 
	C287.030457,40.077564 287.048492,40.523830 286.604614,41.190056 
	C286.403778,41.460072 286.202942,41.730091 285.249878,42.000072 
	C284.497650,42.000751 283.745422,42.001431 282.328156,41.714237 
	C281.401703,41.534454 280.475281,41.354668 279.069061,40.920723 
	C278.705658,40.520359 278.342285,40.119995 277.784515,39.358139 
	C277.596527,39.141403 277.360687,39.011581 277.019257,39.002373 
	C277.019257,39.002373 277.023071,38.935608 276.722107,38.484291 
	C276.392303,38.357208 276.062500,38.230125 275.313934,38.075413 
	C275.313934,38.075413 274.986145,37.813267 274.631927,37.395405 
	C274.283081,37.314754 273.934235,37.234108 273.032776,37.159679 
	C272.682251,37.049210 272.331757,36.938740 271.430450,36.334316 
	C269.294739,36.489719 267.159027,36.645119 264.468628,37.003963 
	C264.078705,37.040768 263.688782,37.077576 262.789917,37.142471 
	C262.531860,37.351368 262.273804,37.560261 261.616547,38.020863 
	C261.616547,38.020863 261.145935,38.056057 260.676941,38.143341 
	C260.367950,38.274906 260.147430,38.495083 259.765808,39.089161 
	C259.765808,39.089161 259.390533,39.142731 258.795929,39.253151 
	C258.564392,39.567013 258.332855,39.880878 258.084473,40.085922 
	C258.084473,40.085922 258.191833,40.110363 257.650116,40.277306 
	C257.460938,40.591248 257.271759,40.905193 256.984039,41.661106 
	C256.984039,41.661106 256.651154,41.968075 255.895248,42.000877 
	C250.990112,43.385288 253.663116,47.359520 253.201935,50.824326 
	C253.107590,51.218925 253.013245,51.613529 252.430817,52.437580 
	C252.575897,53.620411 252.720978,54.803238 253.025864,56.770710 
	C253.049164,57.835556 253.072449,58.900398 252.536301,60.391266 
	C253.391190,62.240368 254.246078,64.089470 255.012497,65.966599 
	C255.012497,65.966599 255.065216,65.890221 255.145386,66.347687 
	C255.274323,66.648560 255.490173,66.861229 256.087036,67.242805 
	C256.087036,67.242805 256.146637,67.628876 256.071808,68.456718 
	C257.149200,69.262398 258.226593,70.068085 259.730927,70.954048 
	C259.730927,70.954048 260.022980,71.275650 260.251190,71.637329 
	C260.459808,71.852753 260.713745,71.970589 261.000000,72.000290 
	C261.000000,72.000290 261.008606,71.988693 261.125916,72.690773 
	C263.026093,73.006866 264.926300,73.322952 267.609344,73.490204 
	C268.397552,73.555412 269.185791,73.620621 270.269196,74.279854 
	C274.058746,75.830437 276.566620,74.649765 277.862061,70.852509 
	C277.862061,70.852509 277.742218,70.822014 278.298584,70.715744 
	C278.490051,70.406898 278.681488,70.098053 278.898163,69.896492 
	C278.898163,69.896492 278.790710,69.871956 279.331726,69.723282 
M230.000000,44.000000 
	C230.000000,44.000000 230.005386,43.995491 229.927612,43.368534 
	C229.313812,42.540237 228.699997,41.711937 228.015167,40.968266 
	C228.015167,40.968266 228.116440,40.924133 227.964325,40.181965 
	C226.209259,35.583683 222.514038,37.261684 219.001938,37.115623 
	C219.001938,48.334087 219.001938,59.179123 218.822327,70.888649 
	C220.917328,71.862503 223.012314,72.836349 226.126938,74.284172 
	C226.126938,65.230682 226.126938,57.816727 226.668747,50.707870 
	C229.483475,55.381821 232.298218,60.055767 235.043488,65.538719 
	C235.116486,69.128548 236.397446,71.885208 240.864182,73.005394 
	C241.579834,73.070824 242.295486,73.136261 243.327591,73.578438 
	C243.881180,73.452667 244.434784,73.326889 245.774063,73.081886 
	C246.572830,72.049805 247.371597,71.017715 248.627869,69.528496 
	C248.473175,68.014427 248.318497,66.500366 248.030304,64.198448 
	C248.075470,63.136879 248.120636,62.075306 248.893341,60.818802 
	C249.252640,60.145744 249.916489,59.475967 249.923767,58.799118 
	C249.991516,52.506752 249.998947,46.211971 249.855560,39.921730 
	C249.840576,39.264565 248.739258,38.632160 247.684692,37.331490 
	C245.823227,37.256512 243.961761,37.181538 241.258743,37.118271 
	C240.979538,41.114750 240.700317,45.111229 240.463684,49.701073 
	C240.452225,50.097050 240.440765,50.493027 240.072876,51.535007 
	C239.432175,53.318871 238.791473,55.102734 238.086670,56.880299 
	C238.086670,56.880299 238.119476,56.824848 238.070557,56.340672 
	C237.898605,56.023659 237.632339,55.861908 236.971283,55.218319 
	C234.998810,52.142998 233.026337,49.067673 230.982681,45.401947 
	C230.656784,44.932816 230.330887,44.463684 230.000000,44.000000 
M57.521172,67.647614 
	C57.996906,67.391960 58.472641,67.136307 59.701103,66.943428 
	C60.451038,66.880997 61.200977,66.818558 62.715221,66.956528 
	C68.442787,66.072357 70.044601,64.350700 70.170319,58.240612 
	C69.849113,57.352810 69.527908,56.465008 68.983490,54.985909 
	C68.048714,54.162586 67.113930,53.339268 65.690735,52.052975 
	C63.323242,52.301647 60.955753,52.550320 57.983883,52.941776 
	C57.322731,53.699493 56.661579,54.457211 55.692360,55.297619 
	C55.483921,55.474892 55.477242,55.659515 55.254269,56.625160 
	C55.230473,58.073307 55.206676,59.521454 54.971264,61.628448 
	C54.980595,62.087685 54.989929,62.546921 54.520592,63.540245 
	C54.005325,64.872620 53.490063,66.205002 52.728897,68.173233 
	C54.524952,67.874199 55.750568,67.670143 57.521172,67.647614 
M35.336391,63.615345 
	C36.519989,64.508369 37.703587,65.401405 39.402836,66.813416 
	C48.382607,64.837791 49.807095,63.074902 50.145107,53.409328 
	C52.644897,48.361328 56.469009,45.713058 62.345631,45.826405 
	C66.641449,45.909260 69.601501,43.417774 70.288757,39.125668 
	C70.932762,35.103619 69.326790,32.037128 64.694641,30.411217 
	C64.128944,30.348011 63.563255,30.284805 62.365559,30.053371 
	C61.760979,30.246819 61.156399,30.440264 59.849873,30.751160 
	C54.223881,32.774155 54.812611,37.483318 54.501835,42.495380 
	C52.005772,45.327545 49.509712,48.159710 46.181900,51.013557 
	C45.098728,51.210922 44.015560,51.408287 42.181877,51.331539 
	C41.400429,51.418144 40.618984,51.504749 39.539631,51.407738 
	C39.284657,51.442604 39.105137,51.577862 38.351624,52.008068 
	C37.231064,53.009430 36.110504,54.010792 34.739079,55.210529 
	C34.573650,55.417545 34.592960,55.605415 34.358074,56.496765 
	C34.274864,57.326065 34.191654,58.155369 33.934872,59.686554 
	C34.348301,60.788582 34.761730,61.890610 35.336391,63.615345 
M70.632057,75.975838 
	C70.710800,75.654701 70.789536,75.333557 71.092896,74.211159 
	C70.072914,73.462502 69.112053,72.225220 68.017509,72.092773 
	C66.740486,71.938255 65.346664,72.748932 63.207729,73.020653 
	C56.765610,73.462967 54.967655,75.235893 55.072639,81.658882 
	C55.704098,82.782761 56.335556,83.906639 57.226780,85.673164 
	C59.130466,86.396255 61.034153,87.119347 63.698235,87.974136 
	C69.183907,86.821747 71.101471,84.190933 70.308723,78.265312 
	C70.299393,77.585915 70.290070,76.906525 70.250412,76.140800 
	C70.250412,76.140800 70.168388,76.181351 70.632057,75.975838 
M45.398060,31.865988 
	C44.934494,31.933382 44.470924,32.000778 43.407127,31.791895 
	C40.328564,29.238945 37.861080,31.209335 35.712311,33.137619 
	C33.583675,35.047832 32.815792,37.495350 34.874176,40.726986 
	C35.157204,41.585705 35.440228,42.444427 35.967636,43.915352 
	C37.308598,44.555893 38.649559,45.196430 40.460556,46.345638 
	C47.181515,46.701782 50.870010,42.147453 48.804531,35.380833 
	C47.886719,34.298946 46.968910,33.217060 45.398060,31.865988 
M34.745869,76.349434 
	C34.745869,76.349434 34.606773,76.602112 34.606773,76.602112 
	C34.606773,76.602112 34.768124,76.841370 34.311287,77.576515 
	C34.244461,78.713135 34.177631,79.849747 33.987198,81.702026 
	C34.825619,83.114189 35.664040,84.526352 36.786041,86.557259 
	C45.260101,90.496620 50.397808,86.212189 49.840343,75.218163 
	C50.201618,73.942780 50.562889,72.667397 51.097466,70.780197 
	C47.893902,71.486061 45.418949,72.031387 42.236069,72.344017 
	C39.834789,73.661407 37.433510,74.978798 34.745869,76.349434 
M91.010323,56.316345 
	C90.008766,55.237095 89.007210,54.157848 87.381592,52.741291 
	C85.231232,52.469177 83.080864,52.197067 80.261955,52.127026 
	C78.899437,54.085033 77.536919,56.043037 75.978149,58.830509 
	C75.538628,61.566540 75.099098,64.302574 74.508675,67.206039 
	C74.508675,67.206039 74.499069,67.431229 73.981789,67.689934 
	C73.782692,68.019981 73.583588,68.350029 73.384483,68.680077 
	C73.980530,68.518333 74.576576,68.356590 75.965729,68.199188 
	C78.286308,67.715508 80.606888,67.231827 83.696251,66.966629 
	C90.253967,66.100227 92.687630,62.813473 91.010323,56.316345 
M84.552040,87.944290 
	C91.172462,87.014206 92.605812,85.096611 91.268257,78.177574 
	C90.173203,76.628616 89.078156,75.079659 87.348396,73.071915 
	C83.460808,71.222443 80.149323,72.176521 77.704140,75.509361 
	C75.412018,78.633568 75.225410,81.940079 78.334625,85.604179 
	C80.134125,86.329140 81.933624,87.054100 84.552040,87.944290 
M90.055321,34.166611 
	C86.383263,29.501001 82.211250,28.817165 78.372002,32.251583 
	C74.768021,35.475544 74.996887,40.178646 79.375984,44.808289 
	C83.080269,46.780956 86.696983,46.910213 89.620972,43.577732 
	C91.899109,40.981339 93.229996,37.991470 90.055321,34.166611 
M181.655838,71.284332 
	C188.955597,66.707199 183.630447,59.956451 185.297974,54.411575 
	C180.156906,54.411575 175.736526,54.411575 171.028473,54.411575 
	C171.190750,56.325863 171.322952,57.885334 171.461288,59.517281 
	C173.835526,59.644886 175.757553,59.748184 178.572952,59.899498 
	C177.834930,62.480564 177.713348,65.947891 176.554901,66.338264 
	C173.961334,67.212242 170.540237,67.304443 168.055374,66.272346 
	C166.223785,65.511597 164.732346,62.617813 164.186874,60.404037 
	C163.489166,57.572346 163.717819,54.459946 163.867798,51.484676 
	C164.070541,47.462658 165.178894,43.801056 169.854889,42.890926 
	C174.372604,42.011608 177.205750,44.060760 178.263550,48.320320 
	C180.632111,48.320320 182.724548,48.320320 185.064667,48.320320 
	C184.584854,42.901699 182.091049,39.385250 177.238617,37.615597 
	C168.434189,34.404686 159.732208,38.384914 157.045685,46.824387 
	C153.335556,58.479408 157.813049,70.577713 166.809723,72.862251 
	C168.868164,73.384949 171.124298,73.540115 173.237244,73.332657 
	C175.849243,73.076172 178.406769,72.264763 181.655838,71.284332 
M109.378052,68.272202 
	C109.446373,69.732925 109.514687,71.193657 109.595512,72.921913 
	C118.671051,72.810890 128.313583,75.241455 134.125931,65.735062 
	C138.458649,58.648647 138.359772,50.927765 133.852493,43.984020 
	C127.987053,34.947918 118.545044,37.252396 109.378059,37.151054 
	C109.378059,47.417572 109.378059,57.365955 109.378052,68.272202 
M142.758621,49.509872 
	C142.758621,57.246212 142.758621,64.982552 142.758621,72.655121 
	C145.524109,72.655121 147.724899,72.655121 149.690948,72.655121 
	C149.690948,60.604038 149.690948,48.899460 149.690948,37.361008 
	C147.246506,37.361008 145.159088,37.361008 142.758606,37.361008 
	C142.758606,41.260426 142.758606,44.888012 142.758621,49.509872 
M197.424377,37.087120 
	C195.675247,37.087120 193.926117,37.087120 192.255661,37.087120 
	C192.255661,49.415432 192.255661,61.120945 192.255661,72.784744 
	C194.658051,72.784744 196.752594,72.784744 199.223709,72.784744 
	C199.223709,62.486252 199.263641,52.397808 199.185226,42.310284 
	C199.171829,40.586773 198.652603,38.867191 197.424377,37.087120 
z"/>
<path fill="#0C0C0C" opacity="1.000000" stroke="none" 
	d="
M181.321838,71.488724 
	C178.406769,72.264763 175.849243,73.076172 173.237244,73.332657 
	C171.124298,73.540115 168.868164,73.384949 166.809723,72.862251 
	C157.813049,70.577713 153.335556,58.479408 157.045685,46.824387 
	C159.732208,38.384914 168.434189,34.404686 177.238617,37.615597 
	C182.091049,39.385250 184.584854,42.901699 185.064667,48.320320 
	C182.724548,48.320320 180.632111,48.320320 178.263550,48.320320 
	C177.205750,44.060760 174.372604,42.011608 169.854889,42.890926 
	C165.178894,43.801056 164.070541,47.462658 163.867798,51.484676 
	C163.717819,54.459946 163.489166,57.572346 164.186874,60.404037 
	C164.732346,62.617813 166.223785,65.511597 168.055374,66.272346 
	C170.540237,67.304443 173.961334,67.212242 176.554901,66.338264 
	C177.713348,65.947891 177.834930,62.480564 178.572952,59.899498 
	C175.757553,59.748184 173.835526,59.644886 171.461288,59.517281 
	C171.322952,57.885334 171.190750,56.325863 171.028473,54.411575 
	C175.736526,54.411575 180.156906,54.411575 185.297974,54.411575 
	C183.630447,59.956451 188.955597,66.707199 181.321838,71.488724 
z"/>
<path fill="#0F0F0F" opacity="1.000000" stroke="none" 
	d="
M109.378052,67.793274 
	C109.378059,57.365955 109.378059,47.417572 109.378059,37.151054 
	C118.545044,37.252396 127.987053,34.947918 133.852493,43.984020 
	C138.359772,50.927765 138.458649,58.648647 134.125931,65.735062 
	C128.313583,75.241455 118.671051,72.810890 109.595512,72.921913 
	C109.514687,71.193657 109.446373,69.732925 109.378052,67.793274 
M122.710403,66.821846 
	C128.757187,63.995914 131.225372,56.578022 128.645386,48.984871 
	C127.018379,44.196415 123.341156,42.508873 117.173309,43.721836 
	C117.173309,51.441887 117.173309,59.161934 117.173309,66.940346 
	C118.909576,66.940346 120.390808,66.940346 122.710403,66.821846 
z"/>
<path fill="#1150A7" opacity="1.000000" stroke="none" 
	d="
M269.973999,73.685837 
	C269.185791,73.620621 268.397552,73.555412 266.882507,73.381531 
	C264.440002,72.844795 262.724304,72.416740 261.008606,71.988693 
	C261.008606,71.988693 261.000000,72.000290 260.907227,71.796616 
	C260.613281,71.330910 260.349457,71.225143 260.022980,71.275650 
	C260.022980,71.275650 259.730927,70.954048 259.352844,70.631744 
	C258.032074,69.415916 257.089355,68.522400 256.146637,67.628876 
	C256.146637,67.628876 256.087036,67.242805 255.928589,66.872719 
	C255.645538,66.171471 255.410553,65.967331 255.065216,65.890221 
	C255.065216,65.890221 255.012497,65.966599 255.020844,65.595253 
	C254.384689,63.471016 253.740219,61.718128 253.095734,59.965240 
	C253.072449,58.900398 253.049164,57.835556 253.031525,55.986595 
	C252.997772,54.137695 252.958328,53.072910 252.918884,52.008129 
	C253.013245,51.613529 253.107590,51.218925 253.348907,50.226650 
	C254.547623,47.075340 255.599380,44.521706 256.651154,41.968075 
	C256.651154,41.968075 256.984039,41.661106 257.293823,41.340485 
	C257.799652,40.716694 257.995758,40.413528 258.191833,40.110367 
	C258.191833,40.110363 258.084473,40.085922 258.375854,40.060669 
	C258.908325,39.737854 259.149445,39.440292 259.390533,39.142731 
	C259.390533,39.142731 259.765808,39.089161 260.137695,38.931862 
	C260.842987,38.642487 261.055115,38.402985 261.145935,38.056057 
	C261.145935,38.056057 261.616547,38.020863 262.080139,37.907310 
	C262.795441,37.567303 263.047150,37.340843 263.298859,37.114384 
	C263.688782,37.077576 264.078705,37.040768 265.179352,36.947575 
	C267.920471,36.870213 269.950836,36.849243 271.981232,36.828270 
	C272.331757,36.938740 272.682251,37.049210 273.475281,37.380859 
	C274.273895,37.672451 274.630005,37.742859 274.986145,37.813267 
	C274.986145,37.813267 275.313934,38.075413 275.658630,38.330093 
	C276.343231,38.701717 276.683136,38.818661 277.023071,38.935608 
	C277.023071,38.935608 277.019257,39.002373 277.124115,39.188744 
	C277.404785,39.651379 277.654755,39.766216 277.978882,39.719635 
	C278.342285,40.119995 278.705658,40.520359 279.438690,41.369137 
	C280.835724,43.559982 281.863129,45.302418 282.901215,47.376732 
	C283.030701,48.132820 283.149567,48.557034 283.235504,49.264332 
	C283.393921,50.061081 283.585236,50.574741 283.734436,51.510841 
	C283.728180,54.431026 283.764069,56.928764 283.560242,59.731949 
	C282.143127,62.970142 280.965759,65.902893 279.788391,68.835648 
	C279.788391,68.835648 279.886536,68.888130 279.612549,68.919403 
	C279.155945,69.257767 278.973328,69.564857 278.790710,69.871948 
	C278.790710,69.871956 278.898163,69.896492 278.622009,69.920250 
	C278.144653,70.236679 277.943451,70.529350 277.742218,70.822021 
	C277.742218,70.822014 277.862061,70.852509 277.471924,70.893021 
	C274.712494,71.850967 272.343262,72.768402 269.973999,73.685837 
M275.356110,48.595619 
	C274.224731,44.825859 271.937622,42.673309 267.754181,42.934959 
	C263.962921,43.172085 261.770203,45.618206 261.423340,48.850391 
	C260.955231,53.212238 261.078491,57.745903 261.738190,62.085724 
	C262.255035,65.486076 265.120544,67.950188 268.580719,67.039528 
	C271.032959,66.394127 274.266296,64.217110 274.883301,62.071636 
	C276.028198,58.090359 275.514984,53.632267 275.356110,48.595619 
z"/>
<path fill="#064BAA" opacity="1.000000" stroke="none" 
	d="
M240.429321,50.889004 
	C240.440765,50.493027 240.452225,50.097050 240.629059,48.978218 
	C241.155853,44.810799 241.517273,41.366238 242.270111,37.976620 
	C243.775085,39.567104 245.747803,41.048180 245.849213,42.647873 
	C246.230408,48.661377 245.880493,54.716904 246.047241,60.749973 
	C246.144882,64.282249 246.701965,67.801826 247.113007,71.937317 
	C244.280579,71.937317 242.184052,71.937317 239.973495,71.833252 
	C239.859467,71.729179 239.835953,71.421318 239.810577,71.122879 
	C239.505661,70.555305 239.226135,70.286171 238.975281,70.013474 
	C239.003952,70.009918 238.967941,70.055122 238.965408,69.739487 
	C238.568680,68.996712 238.174500,68.569572 237.535080,67.945129 
	C236.564209,66.741791 235.838577,65.735756 235.112946,64.729721 
	C232.298218,60.055767 229.483475,55.381821 226.179077,50.331490 
	C225.457214,56.245495 225.297714,62.540226 224.921677,68.821999 
	C224.858582,69.875786 223.857620,70.873444 223.290024,71.897034 
	C222.186508,71.266014 221.083008,70.634995 219.985168,69.535103 
	C219.992233,61.433205 219.994843,53.800179 219.994705,46.167152 
	C219.994522,36.834206 219.992996,36.835167 227.623230,40.898376 
	C227.754868,40.968483 227.950607,40.918228 228.116440,40.924133 
	C228.116440,40.924133 228.015167,40.968266 228.024368,41.289032 
	C228.690842,42.405033 229.348114,43.200264 230.005371,43.995495 
	C230.005386,43.995491 230.000000,44.000000 230.017044,44.300949 
	C230.374008,45.065380 230.713943,45.528866 231.053864,45.992348 
	C233.026337,49.067673 234.998810,52.142998 237.197433,55.748146 
	C237.593857,56.538746 237.825821,56.721039 238.119476,56.824848 
	C238.119476,56.824848 238.086670,56.880299 238.178436,57.223869 
	C238.587158,58.609409 238.904099,59.651386 239.221039,60.693359 
	C239.836334,60.187889 240.451645,59.682419 241.066940,59.176945 
	C240.854401,56.414299 240.641861,53.651649 240.429321,50.889004 
z"/>
<path fill="#024AAB" opacity="1.000000" stroke="none" 
	d="
M316.874542,60.899483 
	C316.874542,60.899483 316.929810,60.415447 317.358582,60.126801 
	C318.262085,56.894028 318.736847,53.949905 319.211609,51.005779 
	C319.238739,50.538738 319.265900,50.071693 319.796265,49.170876 
	C320.867218,46.364552 321.685059,44.018551 321.940430,41.612850 
	C322.271393,38.495178 323.662994,37.667320 327.084991,38.561775 
	C324.949768,48.641129 322.969330,58.445229 320.702942,68.182777 
	C320.374084,69.595619 318.675720,70.689713 317.611053,71.931290 
	C316.408478,70.553917 314.674713,69.362160 314.114868,67.760178 
	C312.978455,64.508240 312.626923,60.991238 311.668732,57.665054 
	C310.819519,54.717266 309.586853,51.879955 308.523438,48.993877 
	C307.971405,49.038033 307.419403,49.082188 306.867401,49.126343 
	C305.245728,54.750973 303.624084,60.375603 301.664368,65.951637 
	C300.552734,64.595116 299.779236,63.287186 299.328003,61.811150 
	C300.390198,60.024075 301.399139,58.472042 301.821472,56.774097 
	C303.340942,50.665085 304.662476,44.506836 306.058777,38.367188 
	C306.910553,37.775230 307.762329,37.183277 308.614136,36.591324 
	C309.757080,38.718094 310.900024,40.844868 312.042969,42.971649 
	C312.042938,42.971657 311.995422,42.984962 311.984283,43.403008 
	C312.702667,48.846516 313.362457,53.884174 314.236938,58.884289 
	C314.367981,59.633690 315.504608,60.207226 316.176056,60.862114 
	C316.176056,60.862114 316.001770,60.979458 316.049255,61.169937 
	C316.286621,61.599503 316.476501,61.838593 316.666412,62.077675 
	C316.735809,61.684944 316.805176,61.292213 316.874542,60.899483 
z"/>
<path fill="#010101" opacity="1.000000" stroke="none" 
	d="
M142.758606,49.012733 
	C142.758606,44.888012 142.758606,41.260426 142.758606,37.361008 
	C145.159088,37.361008 147.246506,37.361008 149.690948,37.361008 
	C149.690948,48.899460 149.690948,60.604038 149.690948,72.655121 
	C147.724899,72.655121 145.524109,72.655121 142.758621,72.655121 
	C142.758621,64.982552 142.758621,57.246212 142.758606,49.012733 
z"/>
<path fill="#010101" opacity="1.000000" stroke="none" 
	d="
M197.895721,37.116455 
	C198.652603,38.867191 199.171829,40.586773 199.185226,42.310284 
	C199.263641,52.397808 199.223709,62.486252 199.223709,72.784744 
	C196.752594,72.784744 194.658051,72.784744 192.255661,72.784744 
	C192.255661,61.120945 192.255661,49.415432 192.255661,37.087120 
	C193.926117,37.087120 195.675247,37.087120 197.895721,37.116455 
z"/>
<path fill="#1F559F" opacity="1.000000" stroke="none" 
	d="
M302.002441,66.000237 
	C303.624084,60.375603 305.245728,54.750973 306.867401,49.126343 
	C307.419403,49.082188 307.971405,49.038033 308.523438,48.993877 
	C309.586853,51.879955 310.819519,54.717266 311.668732,57.665054 
	C312.626923,60.991238 312.978455,64.508240 314.114868,67.760178 
	C314.674713,69.362160 316.408478,70.553917 317.611053,71.931290 
	C318.675720,70.689713 320.374084,69.595619 320.702942,68.182777 
	C322.969330,58.445229 324.949768,48.641129 327.084991,38.561775 
	C323.662994,37.667320 322.271393,38.495178 321.940430,41.612850 
	C321.685059,44.018551 320.867218,46.364552 319.995300,48.878330 
	C320.301514,45.126747 320.911896,41.233932 321.532715,37.274651 
	C324.263916,37.274651 326.515106,37.274651 329.131042,37.274651 
	C326.433136,49.370274 323.810760,61.127388 321.197479,72.843750 
	C318.451294,72.843750 316.170044,72.843750 313.646606,72.843750 
	C311.856384,65.751083 310.100067,58.792839 308.343750,51.834595 
	C308.007629,51.851528 307.671478,51.868458 307.335358,51.885387 
	C305.578400,58.840889 303.821442,65.796387 301.966309,73.140549 
	C299.383575,72.955032 296.945343,72.779884 294.276917,71.939224 
	C293.715363,70.139740 293.384003,69.005783 293.052643,67.871826 
	C293.037170,67.452492 293.021698,67.033157 292.926697,65.932800 
	C292.485687,63.240768 292.124237,61.229759 291.855316,59.139149 
	C291.947845,59.059544 292.136261,58.904354 292.429993,59.132298 
	C293.516815,62.487015 294.151733,65.667236 295.180939,68.714264 
	C295.592346,69.932159 296.924866,71.757370 297.746674,71.710304 
	C299.094879,71.633102 300.626984,70.472008 301.580170,69.344223 
	C302.188354,68.624619 301.892792,67.141190 302.002441,66.000237 
z"/>
<path fill="#9284B5" opacity="1.000000" stroke="none" 
	d="
M65.136627,30.784422 
	C69.326790,32.037128 70.932762,35.103619 70.288757,39.125668 
	C69.601501,43.417774 66.641449,45.909260 62.345631,45.826405 
	C56.469009,45.713058 52.644897,48.361328 49.729969,53.700554 
	C49.314831,53.991779 48.865925,54.000950 48.599884,53.844757 
	C47.893780,52.789665 47.453716,51.890770 47.013649,50.991875 
	C49.509712,48.159710 52.005772,45.327545 55.110268,42.245277 
	C60.616608,39.735622 64.792137,36.869209 65.136627,30.784422 
z"/>
<path fill="#1F559F" opacity="1.000000" stroke="none" 
	d="
M312.078552,42.559071 
	C310.900024,40.844868 309.757080,38.718094 308.614136,36.591324 
	C307.762329,37.183277 306.910553,37.775230 306.058777,38.367188 
	C304.662476,44.506836 303.340942,50.665085 301.821472,56.774097 
	C301.399139,58.472042 300.390198,60.024075 299.117981,61.522156 
	C297.062958,56.121243 295.524384,50.845737 294.024750,45.559181 
	C293.320618,43.077072 292.691437,40.573700 292.028290,38.079960 
	C291.157654,38.246220 290.287018,38.412476 289.416351,38.578735 
	C290.322998,45.353943 291.229614,52.129150 292.136261,58.904354 
	C292.136261,58.904354 291.947845,59.059544 291.680176,59.074974 
	C291.412537,59.090408 291.060455,58.967232 291.079498,58.629665 
	C290.995209,57.855610 290.891846,57.419121 290.827698,56.686581 
	C290.628693,55.873714 290.390472,55.356895 290.115173,54.907837 
	C290.078094,54.975601 290.195007,54.874584 290.212677,54.525074 
	C289.936676,53.069099 289.643005,51.962635 289.327820,50.489594 
	C289.134705,49.409977 288.963104,48.696934 288.831451,47.669422 
	C288.625671,46.791542 288.379944,46.228134 288.156311,45.380356 
	C288.067871,44.733990 287.957367,44.371990 287.890015,43.685120 
	C287.644257,42.563530 287.355377,41.766815 287.066498,40.970100 
	C287.048492,40.523830 287.030457,40.077564 286.944366,39.063545 
	C286.816986,38.339100 286.757721,38.182404 286.698425,38.025711 
	C288.988281,37.569309 291.278137,37.112911 293.832275,36.603836 
	C295.267426,43.603775 296.562927,49.922710 297.858459,56.241646 
	C298.369751,56.273151 298.881073,56.304657 299.392395,56.336159 
	C299.906372,55.299938 300.612823,54.314018 300.899231,53.218315 
	C301.861084,49.537815 303.013733,45.858204 303.454956,42.103241 
	C303.985626,37.586987 306.028229,35.990479 310.931793,37.434311 
	C311.263245,38.755272 311.688690,40.450890 312.078552,42.559071 
z"/>
<path fill="#7658CC" opacity="1.000000" stroke="none" 
	d="
M78.953461,44.199825 
	C74.996887,40.178646 74.768021,35.475544 78.372002,32.251583 
	C82.211250,28.817165 86.383263,29.501001 89.832062,34.630768 
	C86.057030,38.129894 82.505241,41.164860 78.953461,44.199825 
z"/>
<path fill="#6D49D7" opacity="1.000000" stroke="none" 
	d="
M78.092232,84.986023 
	C75.225410,81.940079 75.412018,78.633568 77.704140,75.509361 
	C80.149323,72.176521 83.460808,71.222443 87.644272,73.621429 
	C84.657501,77.775970 81.374863,81.380997 78.092232,84.986023 
z"/>
<path fill="#FDFEFE" opacity="1.000000" stroke="none" 
	d="
M287.846863,44.009991 
	C287.957367,44.371990 288.067871,44.733990 288.114746,45.700241 
	C288.297943,46.864292 288.544708,47.424095 288.791504,47.983894 
	C288.963104,48.696934 289.134705,49.409977 289.009552,50.690887 
	C289.206879,52.464031 289.700958,53.669308 290.195007,54.874584 
	C290.195007,54.874584 290.078094,54.975601 290.066406,55.205505 
	C290.299316,55.951149 290.543915,56.466885 290.788513,56.982624 
	C290.891846,57.419121 290.995209,57.855610 290.850281,58.741310 
	C290.402832,59.460373 290.203613,59.730225 290.004425,60.000076 
	C288.277344,60.329113 286.550232,60.658146 284.385681,60.598900 
	C283.898834,59.949253 283.849396,59.687878 283.799957,59.426506 
	C283.764069,56.928764 283.728180,54.431026 283.988098,51.374752 
	C283.945404,50.204563 283.606903,49.592903 283.268402,48.981243 
	C283.149567,48.557034 283.030701,48.132820 283.167053,47.178116 
	C283.279205,45.099113 283.136200,43.550610 282.993195,42.002106 
	C283.745422,42.001431 284.497650,42.000751 285.661865,42.308262 
	C286.664886,43.080963 287.255859,43.545479 287.846863,44.009991 
z"/>
<path fill="#8772C0" opacity="1.000000" stroke="none" 
	d="
M42.943996,72.576714 
	C45.418949,72.031387 47.893902,71.486061 51.097466,70.780197 
	C50.562889,72.667397 50.201618,73.942780 49.382828,75.651688 
	C47.379295,77.546455 45.935749,79.139709 44.263214,80.437958 
	C41.760815,82.380363 39.097397,84.115318 36.502464,85.938515 
	C35.664040,84.526352 34.825619,83.114189 34.388847,81.383011 
	C39.342274,81.849861 44.020657,76.979958 42.943996,72.576714 
z"/>
<path fill="#826CBE" opacity="1.000000" stroke="none" 
	d="
M56.967018,85.030518 
	C56.335556,83.906639 55.704098,82.782761 55.466919,81.325684 
	C59.598667,79.436501 63.619457,78.174332 64.003525,73.140808 
	C65.346664,72.748932 66.740486,71.938255 68.017509,72.092773 
	C69.112053,72.225220 70.072914,73.462502 70.775215,74.743759 
	C70.205048,75.528069 70.108665,75.829735 70.168388,76.181351 
	C70.168388,76.181351 70.250412,76.140800 69.892990,76.130280 
	C68.250359,77.272026 66.905121,78.364845 65.692490,79.589012 
	C63.205730,82.099411 61.386089,85.632439 56.967018,85.030518 
z"/>
<path fill="#A29AAE" opacity="1.000000" stroke="none" 
	d="
M36.644253,86.247887 
	C39.097397,84.115318 41.760815,82.380363 44.263214,80.437958 
	C45.935749,79.139709 47.379295,77.546455 49.225616,76.009216 
	C50.397808,86.212189 45.260101,90.496620 36.644253,86.247887 
z"/>
<path fill="#785ACD" opacity="1.000000" stroke="none" 
	d="
M64.915634,30.597820 
	C64.792137,36.869209 60.616608,39.735622 55.350758,42.003380 
	C54.812611,37.483318 54.223881,32.774155 60.524426,30.785851 
	C61.798508,30.620893 62.398033,30.421246 62.997562,30.221600 
	C63.563255,30.284805 64.128944,30.348011 64.915634,30.597820 
z"/>
<path fill="#BABF93" opacity="1.000000" stroke="none" 
	d="
M79.164719,44.504059 
	C82.505241,41.164860 86.057030,38.129894 89.949524,34.968796 
	C93.229996,37.991470 91.899109,40.981339 89.620972,43.577732 
	C86.696983,46.910213 83.080269,46.780956 79.164719,44.504059 
z"/>
<path fill="#2E5995" opacity="1.000000" stroke="none" 
	d="
M240.087524,71.937317 
	C242.184052,71.937317 244.280579,71.937317 247.113007,71.937317 
	C246.701965,67.801826 246.144882,64.282249 246.047241,60.749973 
	C245.880493,54.716904 246.230408,48.661377 245.849213,42.647873 
	C245.747803,41.048180 243.775085,39.567104 242.326141,37.773121 
	C241.990768,37.514675 242.100296,37.106560 242.100296,37.106560 
	C243.961761,37.181538 245.823227,37.256512 247.846329,38.125244 
	C248.060577,46.283913 248.113190,53.648827 248.165802,61.013737 
	C248.120636,62.075306 248.075470,63.136879 248.021240,65.004578 
	C248.064896,67.202347 248.117630,68.593994 248.170364,69.985634 
	C247.371597,71.017715 246.572830,72.049805 245.053925,73.073952 
	C243.892914,73.111244 243.452026,73.156464 243.011139,73.201691 
	C242.295486,73.136261 241.579834,73.070824 240.462280,72.723450 
	C240.069443,72.273438 240.078491,72.105377 240.087524,71.937317 
z"/>
<path fill="#9A90AA" opacity="1.000000" stroke="none" 
	d="
M78.213425,85.295105 
	C81.374863,81.380997 84.657501,77.775970 87.961624,73.850822 
	C89.078156,75.079659 90.173203,76.628616 90.949966,78.669762 
	C88.332161,82.034317 86.032639,84.906685 83.733124,87.779053 
	C81.933624,87.054100 80.134125,86.329140 78.213425,85.295105 
z"/>
<path fill="#836CC0" opacity="1.000000" stroke="none" 
	d="
M80.930504,51.924957 
	C83.080864,52.197067 85.231232,52.469177 87.684494,53.271126 
	C85.381554,60.062794 80.478081,64.011337 74.659569,67.038605 
	C75.099098,64.302574 75.538628,61.566540 76.314255,58.632912 
	C79.661659,61.768429 80.457336,61.296738 85.000099,53.077816 
	C83.542854,52.664997 82.236679,52.294979 80.930504,51.924957 
z"/>
<path fill="#9082AF" opacity="1.000000" stroke="none" 
	d="
M74.584122,67.122322 
	C80.478081,64.011337 85.381554,60.062794 87.996521,53.439781 
	C89.007210,54.157848 90.008766,55.237095 90.763840,56.837029 
	C87.987396,60.487858 85.457436,63.618000 82.927467,66.748146 
	C80.606888,67.231827 78.286308,67.715508 75.404633,68.002716 
	C74.728722,67.681252 74.613899,67.556244 74.499069,67.431229 
	C74.499069,67.431229 74.508675,67.206039 74.584122,67.122322 
z"/>
<path fill="#6F50D0" opacity="1.000000" stroke="none" 
	d="
M42.590034,72.460365 
	C44.020657,76.979958 39.342274,81.849861 34.450649,81.025185 
	C34.177631,79.849747 34.244461,78.713135 34.605843,77.132172 
	C34.900402,76.687820 35.032234,76.296188 35.032234,76.296188 
	C37.433510,74.978798 39.834789,73.661407 42.590034,72.460365 
z"/>
<path fill="#6136E2" opacity="1.000000" stroke="none" 
	d="
M35.024807,40.035130 
	C32.815792,37.495350 33.583675,35.047832 35.712311,33.137619 
	C37.861080,31.209335 40.328564,29.238945 43.563343,32.227142 
	C40.821308,35.119968 37.923058,37.577549 35.024807,40.035130 
z"/>
<path fill="#C2CE8C" opacity="1.000000" stroke="none" 
	d="
M48.829750,36.011871 
	C50.870010,42.147453 47.181515,46.701782 40.264946,45.761066 
	C42.989475,42.121620 45.909615,39.066746 48.829750,36.011871 
z"/>
<path fill="#9F96AA" opacity="1.000000" stroke="none" 
	d="
M48.865921,54.000946 
	C48.865925,54.000950 49.314831,53.991779 49.538479,53.992477 
	C49.807095,63.074902 48.382607,64.837791 39.287666,66.219772 
	C40.379440,64.597992 41.801365,63.734772 42.744972,62.504635 
	C44.318245,60.453636 45.585278,58.167725 47.134697,55.746124 
	C47.814075,55.008007 48.340000,54.504478 48.865921,54.000946 
z"/>
<path fill="#7253D1" opacity="1.000000" stroke="none" 
	d="
M55.182877,60.969597 
	C55.206676,59.521454 55.230473,58.073307 55.551720,56.155060 
	C55.849167,55.684959 56.000427,55.214928 56.000427,55.214928 
	C56.661579,54.457211 57.322731,53.699493 58.706444,52.925732 
	C60.781567,53.045696 62.134125,53.181702 63.813839,53.350605 
	C63.097267,55.181171 62.546864,56.587234 61.885063,58.210831 
	C61.572926,58.699413 61.312714,58.888733 60.642899,59.031860 
	C58.589462,59.701469 56.886169,60.335533 55.182877,60.969597 
z"/>
<path fill="#6F4FCB" opacity="1.000000" stroke="none" 
	d="
M80.596230,52.025993 
	C82.236679,52.294979 83.542854,52.664997 85.000099,53.077816 
	C80.457336,61.296738 79.661659,61.768429 76.412376,58.218182 
	C77.536919,56.043037 78.899437,54.085033 80.596230,52.025993 
z"/>
<path fill="#9B92A9" opacity="1.000000" stroke="none" 
	d="
M48.817139,35.696350 
	C45.909615,39.066746 42.989475,42.121620 40.029930,45.506733 
	C38.649559,45.196430 37.308598,44.555893 36.205101,43.504688 
	C39.645412,39.441074 42.848255,35.788124 46.051098,32.135174 
	C46.968910,33.217060 47.886719,34.298946 48.817139,35.696350 
z"/>
<path fill="#6F4CCF" opacity="1.000000" stroke="none" 
	d="
M39.837536,51.591354 
	C40.618984,51.504749 41.400429,51.418144 42.571827,51.809113 
	C41.975315,54.525013 40.988850,56.763340 40.001194,59.000832 
	C40.000000,59.000000 40.001568,59.002392 39.579781,58.998734 
	C37.474808,58.991608 35.791626,58.988140 34.108444,58.984669 
	C34.191654,58.155369 34.274864,57.326065 34.640316,56.019524 
	C34.993279,55.371735 35.015743,55.195030 34.989944,55.012154 
	C36.110504,54.010792 37.231064,53.009430 38.828693,51.952168 
	C39.537224,51.889229 39.714481,51.787590 39.837536,51.591354 
z"/>
<path fill="#6E4CD0" opacity="1.000000" stroke="none" 
	d="
M63.605629,73.080734 
	C63.619457,78.174332 59.598667,79.436501 55.491489,80.993256 
	C54.967655,75.235893 56.765610,73.462967 63.605629,73.080734 
z"/>
<path fill="#164D99" opacity="1.000000" stroke="none" 
	d="
M228.040375,40.553047 
	C227.950607,40.918228 227.754868,40.968483 227.623230,40.898376 
	C219.992996,36.835167 219.994522,36.834206 219.994705,46.167152 
	C219.994843,53.800179 219.992233,61.433205 219.740845,69.536835 
	C219.490829,70.007439 219.001938,70.024155 219.001938,70.024155 
	C219.001938,59.179123 219.001938,48.334087 219.001938,37.115623 
	C222.514038,37.261684 226.209259,35.583683 228.040375,40.553047 
z"/>
<path fill="#9285AD" opacity="1.000000" stroke="none" 
	d="
M57.096901,85.351837 
	C61.386089,85.632439 63.205730,82.099411 65.692490,79.589012 
	C66.905121,78.364845 68.250359,77.272026 69.908157,76.173447 
	C70.290070,76.906525 70.299393,77.585915 69.962814,78.745514 
	C67.390556,82.097961 65.164200,84.970200 62.937840,87.842445 
	C61.034153,87.119347 59.130466,86.396255 57.096901,85.351837 
z"/>
<path fill="#A9A6AB" opacity="1.000000" stroke="none" 
	d="
M83.311859,66.857391 
	C85.457436,63.618000 87.987396,60.487858 90.803299,57.169910 
	C92.687630,62.813473 90.253967,66.100227 83.311859,66.857391 
z"/>
<path fill="#C8D391" opacity="1.000000" stroke="none" 
	d="
M84.142578,87.861671 
	C86.032639,84.906685 88.332161,82.034317 90.971855,79.031219 
	C92.605812,85.096611 91.172462,87.014206 84.142578,87.861671 
z"/>
<path fill="#7D60C6" opacity="1.000000" stroke="none" 
	d="
M45.724579,32.000580 
	C42.848255,35.788124 39.645412,39.441074 36.082912,43.198586 
	C35.440228,42.444427 35.157204,41.585705 34.949493,40.381058 
	C37.923058,37.577549 40.821308,35.119968 43.863457,32.365280 
	C44.470924,32.000778 44.934494,31.933382 45.724579,32.000580 
z"/>
<path fill="#9286AB" opacity="1.000000" stroke="none" 
	d="
M61.950912,66.756119 
	C61.200977,66.818558 60.451038,66.880997 59.226463,66.716400 
	C58.554272,66.260948 58.310112,66.105873 58.013706,65.765038 
	C58.004189,65.333160 58.000313,65.160408 58.254555,64.811371 
	C59.350086,63.428532 60.187492,62.221966 61.389610,61.008728 
	C64.238449,59.193771 66.722580,57.385490 69.206711,55.577209 
	C69.527908,56.465008 69.849113,57.352810 69.801140,58.643486 
	C66.938278,61.616280 64.444595,64.186203 61.950912,66.756119 
z"/>
<path fill="#8D7BB5" opacity="1.000000" stroke="none" 
	d="
M46.981247,55.980721 
	C45.585278,58.167725 44.318245,60.453636 42.744972,62.504635 
	C41.801365,63.734772 40.379440,64.597992 39.029839,65.960281 
	C37.703587,65.401405 36.519989,64.508369 35.621433,63.301422 
	C37.271507,61.659130 38.636539,60.330761 40.001568,59.002392 
	C40.001568,59.002392 40.000000,59.000000 40.381989,59.001961 
	C42.836403,57.996185 44.908825,56.988453 46.981247,55.980721 
z"/>
<path fill="#7D64C6" opacity="1.000000" stroke="none" 
	d="
M47.134697,55.746128 
	C44.908825,56.988453 42.836403,57.996185 40.383183,59.002792 
	C40.988850,56.763340 41.975315,54.525013 42.947083,51.946167 
	C44.015560,51.408287 45.098728,51.210922 46.597775,51.002716 
	C47.453716,51.890770 47.893780,52.789665 48.599884,53.844753 
	C48.340000,54.504478 47.814075,55.008007 47.134697,55.746128 
z"/>
<path fill="#A6A3A7" opacity="1.000000" stroke="none" 
	d="
M62.333065,66.856323 
	C64.444595,64.186203 66.938278,61.616280 69.788208,59.008904 
	C70.044601,64.350700 68.442787,66.072357 62.333065,66.856323 
z"/>
<path fill="#ADA9AE" opacity="1.000000" stroke="none" 
	d="
M63.318039,87.908295 
	C65.164200,84.970200 67.390556,82.097961 69.945999,79.088364 
	C71.101471,84.190933 69.183907,86.821747 63.318039,87.908295 
z"/>
<path fill="#144688" opacity="1.000000" stroke="none" 
	d="
M218.912140,70.456406 
	C219.001938,70.024155 219.490829,70.007439 219.735168,70.005707 
	C221.083008,70.634995 222.186508,71.266014 223.290024,71.897034 
	C223.857620,70.873444 224.858582,69.875786 224.921677,68.821999 
	C225.297714,62.540226 225.457214,56.245495 225.908173,50.178940 
	C226.126938,57.816727 226.126938,65.230682 226.126938,74.284172 
	C223.012314,72.836349 220.917328,71.862503 218.912140,70.456406 
z"/>
<path fill="#ECF8FC" opacity="1.000000" stroke="none" 
	d="
M248.529572,60.916267 
	C248.113190,53.648827 248.060577,46.283913 248.074951,38.453636 
	C248.739258,38.632160 249.840576,39.264565 249.855560,39.921730 
	C249.998947,46.211971 249.991516,52.506752 249.923767,58.799118 
	C249.916489,59.475967 249.252640,60.145744 248.529572,60.916267 
z"/>
<path fill="#1F559F" opacity="1.000000" stroke="none" 
	d="
M316.178101,60.446236 
	C315.504608,60.207226 314.367981,59.633690 314.236938,58.884289 
	C313.362457,53.884174 312.702667,48.846516 312.005249,43.386978 
	C313.418274,48.645386 314.799194,54.337872 316.178101,60.446236 
z"/>
<path fill="#8C79BC" opacity="1.000000" stroke="none" 
	d="
M69.095100,55.281559 
	C66.722580,57.385490 64.238449,59.193771 61.380814,60.672092 
	C61.002552,59.893524 60.997791,59.444923 60.993034,58.996319 
	C61.312714,58.888733 61.572926,58.699413 62.251396,58.174240 
	C63.879135,56.118721 65.029144,54.317333 66.179153,52.515945 
	C67.113930,53.339268 68.048714,54.162586 69.095100,55.281559 
z"/>
<path fill="#8267C7" opacity="1.000000" stroke="none" 
	d="
M65.934944,52.284462 
	C65.029144,54.317333 63.879135,56.118721 62.362797,57.956707 
	C62.546864,56.587234 63.097267,55.181171 63.813839,53.350605 
	C62.134125,53.181702 60.781567,53.045696 59.008636,52.854340 
	C60.955753,52.550320 63.323242,52.301647 65.934944,52.284462 
z"/>
<path fill="#7D64C6" opacity="1.000000" stroke="none" 
	d="
M39.579781,58.998734 
	C38.636539,60.330761 37.271507,61.659130 35.540817,62.990067 
	C34.761730,61.890610 34.348301,60.788582 34.021656,59.335609 
	C35.791626,58.988140 37.474808,58.991608 39.579781,58.998734 
z"/>
<path fill="#8267C7" opacity="1.000000" stroke="none" 
	d="
M60.642895,59.031860 
	C60.997791,59.444923 61.002552,59.893524 61.016106,60.678764 
	C60.187492,62.221966 59.350086,63.428532 58.085800,64.560043 
	C56.772373,63.992046 55.885815,63.499104 54.999260,63.006157 
	C54.989929,62.546921 54.980595,62.087685 55.077072,61.299023 
	C56.886169,60.335533 58.589462,59.701469 60.642895,59.031860 
z"/>
<path fill="#8C79BC" opacity="1.000000" stroke="none" 
	d="
M54.759926,63.273201 
	C55.885815,63.499104 56.772373,63.992046 57.827682,64.736320 
	C58.000313,65.160408 58.004189,65.333160 57.799026,65.871643 
	C57.385387,66.646942 57.180786,67.056519 56.976189,67.466087 
	C55.750568,67.670143 54.524952,67.874199 52.728897,68.173233 
	C53.490063,66.205002 54.005325,64.872620 54.759926,63.273201 
z"/>
<path fill="#ECF8FC" opacity="1.000000" stroke="none" 
	d="
M239.973495,71.833252 
	C240.078491,72.105377 240.069443,72.273438 240.103958,72.690170 
	C236.397446,71.885208 235.116486,69.128548 235.078217,65.134216 
	C235.838577,65.735756 236.564209,66.741791 237.578827,68.236343 
	C238.234528,69.168282 238.601227,69.611702 238.967941,70.055122 
	C238.967941,70.055122 239.003952,70.009918 239.012970,70.307686 
	C239.293320,70.877411 239.564636,71.149361 239.835953,71.421318 
	C239.835953,71.421318 239.859467,71.729179 239.973495,71.833252 
z"/>
<path fill="#ECF8FC" opacity="1.000000" stroke="none" 
	d="
M270.121582,73.982849 
	C272.343262,72.768402 274.712494,71.850967 277.439484,70.840378 
	C276.566620,74.649765 274.058746,75.830437 270.121582,73.982849 
z"/>
<path fill="#ECF8FC" opacity="1.000000" stroke="none" 
	d="
M283.560242,59.731949 
	C283.849396,59.687878 283.898834,59.949253 284.005066,60.605675 
	C282.890228,63.624512 281.718536,66.248299 280.167633,68.853867 
	C280.965759,65.902893 282.143127,62.970142 283.560242,59.731949 
z"/>
<path fill="#ECF8FC" opacity="1.000000" stroke="none" 
	d="
M290.004761,60.393036 
	C290.203613,59.730225 290.402832,59.460373 290.831238,59.078876 
	C291.060455,58.967232 291.412537,59.090408 291.587646,59.154579 
	C292.124237,61.229759 292.485687,63.240768 292.824829,65.633080 
	C291.870087,64.271591 290.937592,62.528793 290.004761,60.393036 
z"/>
<path fill="#1F559F" opacity="1.000000" stroke="none" 
	d="
M319.077393,51.373043 
	C318.736847,53.949905 318.262085,56.894028 317.431396,59.894356 
	C317.698059,57.213810 318.320587,54.477058 319.077393,51.373043 
z"/>
<path fill="#ECF8FC" opacity="1.000000" stroke="none" 
	d="
M256.273193,41.984474 
	C255.599380,44.521706 254.547623,47.075340 253.290634,49.925900 
	C253.663116,47.359520 250.990112,43.385288 256.273193,41.984474 
z"/>
<path fill="#95B3D6" opacity="1.000000" stroke="none" 
	d="
M241.679520,37.112415 
	C242.100296,37.106560 241.990768,37.514675 241.934723,37.718174 
	C241.517273,41.366238 241.155853,44.810799 240.607773,48.681534 
	C240.700317,45.111229 240.979538,41.114750 241.679520,37.112415 
z"/>
<path fill="#95B3D6" opacity="1.000000" stroke="none" 
	d="
M240.251099,51.212006 
	C240.641861,53.651649 240.854401,56.414299 241.066940,59.176945 
	C240.451645,59.682419 239.836334,60.187889 239.221039,60.693359 
	C238.904099,59.651386 238.587158,58.609409 238.210510,57.227013 
	C238.791473,55.102734 239.432175,53.318871 240.251099,51.212006 
z"/>
<path fill="#ECF8FC" opacity="1.000000" stroke="none" 
	d="
M282.660675,41.858173 
	C283.136200,43.550610 283.279205,45.099113 283.156372,46.846233 
	C281.863129,45.302418 280.835724,43.559982 279.678589,41.496216 
	C280.475281,41.354668 281.401703,41.534454 282.660675,41.858173 
z"/>
<path fill="#ECF8FC" opacity="1.000000" stroke="none" 
	d="
M252.816025,60.178253 
	C253.740219,61.718128 254.384689,63.471016 255.065063,65.581238 
	C254.246078,64.089470 253.391190,62.240368 252.816025,60.178253 
z"/>
<path fill="#ECF8FC" opacity="1.000000" stroke="none" 
	d="
M261.067261,72.339729 
	C262.724304,72.416740 264.440002,72.844795 266.491089,73.455948 
	C264.926300,73.322952 263.026093,73.006866 261.067261,72.339729 
z"/>
<path fill="#ECF8FC" opacity="1.000000" stroke="none" 
	d="
M248.399109,69.757065 
	C248.117630,68.593994 248.064896,67.202347 248.087982,65.398499 
	C248.318497,66.500366 248.473175,68.014427 248.399109,69.757065 
z"/>
<path fill="#ECF8FC" opacity="1.000000" stroke="none" 
	d="
M271.705841,36.581295 
	C269.950836,36.849243 267.920471,36.870213 265.456696,36.845852 
	C267.159027,36.645119 269.294739,36.489719 271.705841,36.581295 
z"/>
<path fill="#ECF8FC" opacity="1.000000" stroke="none" 
	d="
M256.109222,68.042801 
	C257.089355,68.522400 258.032074,69.415916 259.139404,70.591606 
	C258.226593,70.068085 257.149200,69.262398 256.109222,68.042801 
z"/>
<path fill="#ECF8FC" opacity="1.000000" stroke="none" 
	d="
M287.890015,43.685120 
	C287.255859,43.545479 286.664886,43.080963 286.037994,42.308281 
	C286.202942,41.730091 286.403778,41.460072 286.835571,41.080078 
	C287.355377,41.766815 287.644257,42.563530 287.890015,43.685120 
z"/>
<path fill="#164D99" opacity="1.000000" stroke="none" 
	d="
M229.966492,43.682014 
	C229.348114,43.200264 228.690842,42.405033 228.059875,41.246719 
	C228.699997,41.711937 229.313812,42.540237 229.966492,43.682014 
z"/>
<path fill="#A6A3A7" opacity="1.000000" stroke="none" 
	d="
M57.248680,67.556854 
	C57.180786,67.056519 57.385387,66.646942 57.804665,66.130768 
	C58.310112,66.105873 58.554272,66.260948 58.850098,66.685013 
	C58.472641,67.136307 57.996906,67.391960 57.248680,67.556854 
z"/>
<path fill="#ECF8FC" opacity="1.000000" stroke="none" 
	d="
M293.022186,68.245605 
	C293.384003,69.005783 293.715363,70.139740 294.001068,71.635559 
	C293.634155,70.871407 293.312927,69.745392 293.022186,68.245605 
z"/>
<path fill="#ECF8FC" opacity="1.000000" stroke="none" 
	d="
M252.674850,52.222855 
	C252.958328,53.072910 252.997772,54.137695 252.951630,55.594273 
	C252.720978,54.803238 252.575897,53.620411 252.674850,52.222855 
z"/>
<path fill="#9284B5" opacity="1.000000" stroke="none" 
	d="
M62.681561,30.137486 
	C62.398033,30.421246 61.798508,30.620893 60.875397,30.727123 
	C61.156399,30.440264 61.760979,30.246819 62.681561,30.137486 
z"/>
<path fill="#ECF8FC" opacity="1.000000" stroke="none" 
	d="
M243.169373,73.390060 
	C243.452026,73.156464 243.892914,73.111244 244.661087,73.133568 
	C244.434784,73.326889 243.881180,73.452667 243.169373,73.390060 
z"/>
<path fill="#164D99" opacity="1.000000" stroke="none" 
	d="
M231.018280,45.697147 
	C230.713943,45.528866 230.374008,45.065380 230.019531,44.298222 
	C230.330887,44.463684 230.656784,44.932816 231.018280,45.697147 
z"/>
<path fill="#1F559F" opacity="1.000000" stroke="none" 
	d="
M316.696472,60.876522 
	C316.805176,61.292213 316.735809,61.684944 316.666412,62.077675 
	C316.476501,61.838593 316.286621,61.599503 316.128113,61.100300 
	C316.159485,60.840183 316.518372,60.853561 316.696472,60.876522 
z"/>
<path fill="#9082AF" opacity="1.000000" stroke="none" 
	d="
M75.008087,68.000549 
	C74.576576,68.356590 73.980530,68.518333 73.384483,68.680077 
	C73.583588,68.350029 73.782692,68.019981 74.240433,67.560577 
	C74.613899,67.556244 74.728722,67.681252 75.008087,68.000549 
z"/>
<path fill="#95B3D6" opacity="1.000000" stroke="none" 
	d="
M238.095016,56.582760 
	C237.825821,56.721039 237.593857,56.538746 237.347687,56.066696 
	C237.632339,55.861908 237.898605,56.023659 238.095016,56.582760 
z"/>
<path fill="#9284B5" opacity="1.000000" stroke="none" 
	d="
M39.688583,51.499542 
	C39.714481,51.787590 39.537224,51.889229 39.153419,51.854889 
	C39.105137,51.577862 39.284657,51.442604 39.688583,51.499542 
z"/>
<path fill="#ECF8FC" opacity="1.000000" stroke="none" 
	d="
M257.920959,40.193836 
	C257.995758,40.413528 257.799652,40.716694 257.343079,41.119499 
	C257.271759,40.905193 257.460938,40.591248 257.920959,40.193836 
z"/>
<path fill="#ECF8FC" opacity="1.000000" stroke="none" 
	d="
M277.881714,39.538887 
	C277.654755,39.766216 277.404785,39.651379 277.152985,39.171890 
	C277.360687,39.011581 277.596527,39.141403 277.881714,39.538887 
z"/>
<path fill="#8772C0" opacity="1.000000" stroke="none" 
	d="
M34.889053,76.322815 
	C35.032234,76.296188 34.900402,76.687820 34.834263,76.764595 
	C34.768124,76.841370 34.606773,76.602112 34.606773,76.602112 
	C34.606773,76.602112 34.745869,76.349434 34.889053,76.322815 
z"/>
<path fill="#9285AD" opacity="1.000000" stroke="none" 
	d="
M70.400223,76.078598 
	C70.108665,75.829735 70.205048,75.528069 70.662903,75.144394 
	C70.789536,75.333557 70.710800,75.654701 70.400223,76.078598 
z"/>
<path fill="#7D64C6" opacity="1.000000" stroke="none" 
	d="
M34.864513,55.111343 
	C35.015743,55.195030 34.993279,55.371735 34.859779,55.658211 
	C34.592960,55.605415 34.573650,55.417545 34.864513,55.111343 
z"/>
<path fill="#8C79BC" opacity="1.000000" stroke="none" 
	d="
M55.846394,55.256271 
	C56.000427,55.214928 55.849167,55.684959 55.760746,55.768227 
	C55.477242,55.659515 55.483921,55.474892 55.846394,55.256271 
z"/>
<path fill="#ECF8FC" opacity="1.000000" stroke="none" 
	d="
M263.044373,37.128426 
	C263.047150,37.340843 262.795441,37.567303 262.279724,37.781460 
	C262.273804,37.560261 262.531860,37.351368 263.044373,37.128426 
z"/>
<path fill="#ECF8FC" opacity="1.000000" stroke="none" 
	d="
M274.809021,37.604336 
	C274.630005,37.742859 274.273895,37.672451 273.751587,37.377750 
	C273.934235,37.234108 274.283081,37.314754 274.809021,37.604336 
z"/>
<path fill="#ECF8FC" opacity="1.000000" stroke="none" 
	d="
M260.911438,38.099701 
	C261.055115,38.402985 260.842987,38.642487 260.262512,38.789219 
	C260.147430,38.495083 260.367950,38.274906 260.911438,38.099701 
z"/>
<path fill="#ECF8FC" opacity="1.000000" stroke="none" 
	d="
M276.872589,38.709946 
	C276.683136,38.818661 276.343231,38.701717 275.867981,38.343906 
	C276.062500,38.230125 276.392303,38.357208 276.872589,38.709946 
z"/>
<path fill="#ECF8FC" opacity="1.000000" stroke="none" 
	d="
M259.093231,39.197941 
	C259.149445,39.440292 258.908325,39.737854 258.384277,40.115074 
	C258.332855,39.880878 258.564392,39.567013 259.093231,39.197941 
z"/>
<path fill="#ECF8FC" opacity="1.000000" stroke="none" 
	d="
M260.137085,71.456490 
	C260.349457,71.225143 260.613281,71.330910 260.913696,71.791901 
	C260.713745,71.970589 260.459808,71.852753 260.137085,71.456490 
z"/>
<path fill="#ECF8FC" opacity="1.000000" stroke="none" 
	d="
M286.569885,38.128502 
	C286.757721,38.182404 286.816986,38.339100 286.837036,38.744057 
	C286.425385,38.835850 286.306580,38.582176 286.569885,38.128502 
z"/>
<path fill="#ECF8FC" opacity="1.000000" stroke="none" 
	d="
M278.020386,70.768883 
	C277.943451,70.529350 278.144653,70.236679 278.609406,69.866608 
	C278.681488,70.098053 278.490051,70.406898 278.020386,70.768883 
z"/>
<path fill="#ECF8FC" opacity="1.000000" stroke="none" 
	d="
M279.061218,69.797615 
	C278.973328,69.564857 279.155945,69.257767 279.600494,68.865074 
	C279.685516,69.094078 279.508606,69.408676 279.061218,69.797615 
z"/>
<path fill="#ECF8FC" opacity="1.000000" stroke="none" 
	d="
M255.105301,66.118958 
	C255.410553,65.967331 255.645538,66.171471 255.781540,66.744156 
	C255.490173,66.861229 255.274323,66.648560 255.105301,66.118958 
z"/>
<path fill="#FAFAFA" opacity="1.000000" stroke="none" 
	d="
M122.291214,66.881096 
	C120.390808,66.940346 118.909576,66.940346 117.173309,66.940346 
	C117.173309,59.161934 117.173309,51.441887 117.172394,43.720573 
	C123.341156,42.508873 127.018379,44.196415 128.645386,48.984871 
	C131.225372,56.578022 128.757187,63.995914 122.291214,66.881096 
z"/>
<path fill="#F6FCFD" opacity="1.000000" stroke="none" 
	d="
M275.524170,48.984169 
	C275.514984,53.632267 276.028198,58.090359 274.883301,62.071636 
	C274.266296,64.217110 271.032959,66.394127 268.580719,67.039528 
	C265.120544,67.950188 262.255035,65.486076 261.738190,62.085724 
	C261.078491,57.745903 260.955231,53.212238 261.423340,48.850391 
	C261.770203,45.618206 263.962921,43.172085 267.754181,42.934959 
	C271.937622,42.673309 274.224731,44.825859 275.524170,48.984169 
z"/>
<path fill="#ECF8FC" opacity="1.000000" stroke="none" 
	d="
M283.235504,49.264332 
	C283.606903,49.592903 283.945404,50.204563 284.030243,50.952309 
	C283.585236,50.574741 283.393921,50.061081 283.235504,49.264332 
z"/>
<path fill="#2E5995" opacity="1.000000" stroke="none" 
	d="
M238.965408,69.739487 
	C238.601227,69.611702 238.234528,69.168282 237.824066,68.433655 
	C238.174500,68.569572 238.568680,68.996712 238.965408,69.739487 
z"/>
<path fill="#2E5995" opacity="1.000000" stroke="none" 
	d="
M239.810577,71.122879 
	C239.564636,71.149361 239.293320,70.877411 238.984314,70.311249 
	C239.226135,70.286171 239.505661,70.555305 239.810577,71.122879 
z"/>
<path fill="#024AAB" opacity="1.000000" stroke="none" 
	d="
M292.429993,59.132298 
	C291.229614,52.129150 290.322998,45.353943 289.416351,38.578735 
	C290.287018,38.412476 291.157654,38.246220 292.028290,38.079960 
	C292.691437,40.573700 293.320618,43.077072 294.024750,45.559181 
	C295.524384,50.845737 297.062958,56.121243 298.795654,61.690266 
	C299.779236,63.287186 300.552734,64.595116 301.664368,65.951637 
	C301.892792,67.141190 302.188354,68.624619 301.580170,69.344223 
	C300.626984,70.472008 299.094879,71.633102 297.746674,71.710304 
	C296.924866,71.757370 295.592346,69.932159 295.180939,68.714264 
	C294.151733,65.667236 293.516815,62.487015 292.429993,59.132298 
z"/>
<path fill="#ECF8FC" opacity="1.000000" stroke="none" 
	d="
M290.212677,54.525074 
	C289.700958,53.669308 289.206879,52.464031 289.031067,51.057461 
	C289.643005,51.962635 289.936676,53.069099 290.212677,54.525074 
z"/>
<path fill="#ECF8FC" opacity="1.000000" stroke="none" 
	d="
M288.831451,47.669426 
	C288.544708,47.424095 288.297943,46.864292 288.092682,45.984604 
	C288.379944,46.228134 288.625671,46.791542 288.831451,47.669426 
z"/>
<path fill="#ECF8FC" opacity="1.000000" stroke="none" 
	d="
M290.827698,56.686577 
	C290.543915,56.466885 290.299316,55.951149 290.103485,55.137745 
	C290.390472,55.356895 290.628693,55.873714 290.827698,56.686577 
z"/>
</svg>