<?xml version="1.0" encoding="UTF-8"?>
<svg version="1.1" xmlns="http://www.w3.org/2000/svg" width="500" height="500">
<path d="M0 0 C1.31476318 -0.00630432 2.62952637 -0.01260864 3.98413086 -0.019104 C5.42561985 -0.01552433 6.86710762 -0.0114224 8.30859375 -0.00683594 C9.78068099 -0.00818261 11.2527678 -0.01012317 12.72485352 -0.01263428 C15.81172923 -0.01558543 18.89848928 -0.01128825 21.98535156 -0.00195312 C25.94681504 0.0094415 29.90800753 0.00288197 33.86946106 -0.00909805 C36.90972952 -0.01631694 39.94993348 -0.01402861 42.99020386 -0.00884247 C44.45108065 -0.00750605 45.91196325 -0.00915344 47.37283325 -0.01380157 C49.4126169 -0.018867 51.45242101 -0.00978073 53.4921875 0 C55.23520142 0.00238678 55.23520142 0.00238678 57.01342773 0.00482178 C59.74609375 0.25878906 59.74609375 0.25878906 61.74609375 2.25878906 C61.92127122 4.98364634 61.97758508 7.60538268 61.94140625 10.32910156 C61.93857635 11.12532928 61.93574646 11.92155701 61.93283081 12.74191284 C61.92162015 15.28935669 61.89651437 17.83645117 61.87109375 20.38378906 C61.86106508 22.10904441 61.85193903 23.83430525 61.84375 25.55957031 C61.82167797 29.7927782 61.78714242 34.02572436 61.74609375 38.25878906 C57.0571996 38.25878906 56.34405621 37.49788204 52.87109375 34.57128906 C52.04867187 33.88679688 51.22625 33.20230469 50.37890625 32.49707031 C47.74609375 30.25878906 47.74609375 30.25878906 45.26171875 27.54003906 C40.57494363 23.63790382 34.14965889 24.47446192 28.37109375 24.44628906 C27.15808594 24.42115234 25.94507813 24.39601562 24.6953125 24.37011719 C21.71191335 24.31138886 18.72997682 24.27500236 15.74609375 24.25878906 C15.74609375 26.56878906 15.74609375 28.87878906 15.74609375 31.25878906 C16.93847656 31.16339844 18.13085938 31.06800781 19.359375 30.96972656 C20.92574011 30.85717338 22.49214881 30.74522573 24.05859375 30.63378906 C24.84427734 30.56933594 25.62996094 30.50488281 26.43945312 30.43847656 C27.19677734 30.38691406 27.95410156 30.33535156 28.734375 30.28222656 C29.77911987 30.20367432 29.77911987 30.20367432 30.8449707 30.12353516 C32.74609375 30.25878906 32.74609375 30.25878906 35.74609375 32.25878906 C35.99609375 35.32128906 35.99609375 35.32128906 35.74609375 38.25878906 C34.74609375 39.25878906 34.74609375 39.25878906 31.18359375 39.32128906 C30.04921875 39.30066406 28.91484375 39.28003906 27.74609375 39.25878906 C27.41609375 38.59878906 27.08609375 37.93878906 26.74609375 37.25878906 C24.16004043 36.79046257 24.16004043 36.79046257 21.18359375 36.63378906 C20.17167969 36.55902344 19.15976563 36.48425781 18.1171875 36.40722656 C17.33472656 36.35824219 16.55226563 36.30925781 15.74609375 36.25878906 C16.07609375 38.89878906 16.40609375 41.53878906 16.74609375 44.25878906 C27.96609375 44.58878906 39.18609375 44.91878906 50.74609375 45.25878906 C51.24109375 47.23878906 51.24109375 47.23878906 51.74609375 49.25878906 C47.42280402 49.40225009 43.09948048 49.54463265 38.77612305 49.68603516 C37.30671235 49.73424438 35.83731113 49.78274339 34.36791992 49.83154297 C32.25051282 49.90181249 30.13307334 49.97102468 28.015625 50.04003906 C26.74307861 50.08193359 25.47053223 50.12382812 24.15942383 50.16699219 C21.35225108 50.24248728 18.55392902 50.27755488 15.74609375 50.25878906 C15.74609375 51.90878906 15.74609375 53.55878906 15.74609375 55.25878906 C17.03193359 55.10216797 17.03193359 55.10216797 18.34375 54.94238281 C27.54468141 54.2888781 27.54468141 54.2888781 31.09765625 57.15722656 C32.84463197 59.45431379 34.33451332 61.74400423 35.74609375 64.25878906 C36.73609375 65.74378906 36.73609375 65.74378906 37.74609375 67.25878906 C37.87109375 69.94628906 37.87109375 69.94628906 37.74609375 72.25878906 C31.67717683 72.30818236 25.60837662 72.34450549 19.53930664 72.36865234 C17.47418175 72.37871741 15.40907112 72.3923706 13.34399414 72.40966797 C10.37773111 72.43389399 7.41165631 72.44526703 4.4453125 72.45410156 C3.05767952 72.46958542 3.05767952 72.46958542 1.64201355 72.48538208 C0.78134781 72.48553314 -0.07931793 72.4856842 -0.96606445 72.48583984 C-2.10190727 72.49250168 -2.10190727 72.49250168 -3.26069641 72.4992981 C-5.25390625 72.25878906 -5.25390625 72.25878906 -8.25390625 70.25878906 C-8.62812805 67.45019531 -8.62812805 67.45019531 -8.6262207 63.82128906 C-8.62987137 63.1609668 -8.63352203 62.50064453 -8.63728333 61.8203125 C-8.64540373 59.63287814 -8.63176733 57.44618115 -8.6171875 55.25878906 C-8.61666907 53.74186198 -8.61718611 52.22493423 -8.61869812 50.70800781 C-8.61860833 47.52691637 -8.60816549 44.34607801 -8.59008789 41.16503906 C-8.5674003 37.08249281 -8.56685582 33.00031655 -8.57360554 28.91772461 C-8.57694317 25.78479713 -8.57031935 22.65195439 -8.5604763 19.51904297 C-8.55662045 18.01351362 -8.55547768 16.50797486 -8.55706215 15.00244141 C-8.55743202 12.90020717 -8.54483531 10.79845157 -8.52856445 8.69628906 C-8.52395706 7.49875 -8.51934967 6.30121094 -8.51460266 5.06738281 C-7.99551701 -0.52494854 -4.80997394 0.00658649 0 0 Z " fill="#F6C333" transform="translate(93.25390625,212.7412109375)"/>
<path d="M0 0 C4.64713838 1.37172551 4.64713838 1.37172551 6.21020508 4.15478516 C6.47728271 5.02409668 6.74436035 5.8934082 7.01953125 6.7890625 C7.31923828 7.73007813 7.61894531 8.67109375 7.92773438 9.640625 C8.21970703 10.62546875 8.51167969 11.6103125 8.8125 12.625 C9.27946289 14.11386719 9.27946289 14.11386719 9.75585938 15.6328125 C10.52174045 18.08363194 11.26882067 20.53864817 12 23 C12.20681396 22.36908447 12.41362793 21.73816895 12.62670898 21.08813477 C13.56053426 18.24522551 14.49895326 15.40385384 15.4375 12.5625 C15.76298828 11.56927734 16.08847656 10.57605469 16.42382812 9.55273438 C16.73642578 8.60849609 17.04902344 7.66425781 17.37109375 6.69140625 C17.65911865 5.81685791 17.94714355 4.94230957 18.24389648 4.04125977 C19 2 19 2 20 1 C22.33297433 0.95907063 24.66705225 0.95758277 27 1 C28.44356038 5.53579493 26.98783631 8.92461545 25.47265625 13.265625 C25.20488876 14.05902283 24.93712128 14.85242065 24.66123962 15.66986084 C23.80480138 18.20003202 22.93388074 20.72494079 22.0625 23.25 C21.47885615 24.96581906 20.8961623 26.68196157 20.31445312 28.3984375 C18.88729329 32.60278934 17.44712606 36.80248076 16 41 C13.03 41.495 13.03 41.495 10 42 C9.60167969 40.99839844 9.20335937 39.99679688 8.79296875 38.96484375 C8.25785964 37.62237704 7.72270072 36.27993019 7.1875 34.9375 C6.92646484 34.28072266 6.66542969 33.62394531 6.39648438 32.94726562 C4.66258787 28.60182129 2.8591635 24.29338357 1 20 C-1.59655258 26.93292719 -3.96192707 33.8821847 -6 41 C-9.465 41.495 -9.465 41.495 -13 42 C-15.55237593 36.31940722 -17.56453292 30.54127491 -19.5 24.625 C-19.79519531 23.73039062 -20.09039062 22.83578125 -20.39453125 21.9140625 C-20.98042501 20.13831402 -21.56252894 18.36131012 -22.140625 16.58300781 C-22.71021443 14.87100321 -23.30380637 13.1667853 -23.921875 11.47167969 C-24.20546875 10.68438477 -24.4890625 9.89708984 -24.78125 9.0859375 C-25.16893555 8.04638916 -25.16893555 8.04638916 -25.56445312 6.98583984 C-26.07323056 4.66611132 -25.73732855 3.23260585 -25 1 C-22.69 1 -20.38 1 -18 1 C-14.99272217 8.23026373 -12.40673465 15.54936402 -10 23 C-9.59007812 21.90300781 -9.18015625 20.80601562 -8.7578125 19.67578125 C-8.21357114 18.22134314 -7.66929867 16.76691667 -7.125 15.3125 C-6.85558594 14.59126953 -6.58617187 13.87003906 -6.30859375 13.12695312 C-5.78129892 11.7186901 -5.25173365 10.31127477 -4.71972656 8.90478516 C-4.11621836 7.30757653 -3.5218557 5.70691633 -2.9296875 4.10546875 C-2 2 -2 2 0 0 Z " fill="#E8E8E8" transform="translate(387,212)"/>
<path d="M0 0 C1.31476318 -0.00630432 2.62952637 -0.01260864 3.98413086 -0.019104 C5.42561985 -0.01552433 6.86710762 -0.0114224 8.30859375 -0.00683594 C9.78068099 -0.00818261 11.2527678 -0.01012317 12.72485352 -0.01263428 C15.81172923 -0.01558543 18.89848928 -0.01128825 21.98535156 -0.00195312 C25.94681504 0.0094415 29.90800753 0.00288197 33.86946106 -0.00909805 C36.90972952 -0.01631694 39.94993348 -0.01402861 42.99020386 -0.00884247 C44.45108065 -0.00750605 45.91196325 -0.00915344 47.37283325 -0.01380157 C49.4126169 -0.018867 51.45242101 -0.00978073 53.4921875 0 C55.23520142 0.00238678 55.23520142 0.00238678 57.01342773 0.00482178 C59.74609375 0.25878906 59.74609375 0.25878906 61.74609375 2.25878906 C61.92127122 4.98364634 61.97758508 7.60538268 61.94140625 10.32910156 C61.93857635 11.12532928 61.93574646 11.92155701 61.93283081 12.74191284 C61.92162015 15.28935669 61.89651437 17.83645117 61.87109375 20.38378906 C61.86106508 22.10904441 61.85193903 23.83430525 61.84375 25.55957031 C61.82167797 29.7927782 61.78714242 34.02572436 61.74609375 38.25878906 C57.0571996 38.25878906 56.34405621 37.49788204 52.87109375 34.57128906 C52.04867187 33.88679688 51.22625 33.20230469 50.37890625 32.49707031 C47.74609375 30.25878906 47.74609375 30.25878906 45.26171875 27.54003906 C40.57494363 23.63790382 34.14965889 24.47446192 28.37109375 24.44628906 C27.15808594 24.42115234 25.94507813 24.39601562 24.6953125 24.37011719 C21.71191335 24.31138886 18.72997682 24.27500236 15.74609375 24.25878906 C15.74609375 26.56878906 15.74609375 28.87878906 15.74609375 31.25878906 C16.93847656 31.16339844 18.13085938 31.06800781 19.359375 30.96972656 C20.92574011 30.85717338 22.49214881 30.74522573 24.05859375 30.63378906 C24.84427734 30.56933594 25.62996094 30.50488281 26.43945312 30.43847656 C27.19677734 30.38691406 27.95410156 30.33535156 28.734375 30.28222656 C29.77911987 30.20367432 29.77911987 30.20367432 30.8449707 30.12353516 C32.74609375 30.25878906 32.74609375 30.25878906 35.74609375 32.25878906 C35.99609375 35.32128906 35.99609375 35.32128906 35.74609375 38.25878906 C34.74609375 39.25878906 34.74609375 39.25878906 31.18359375 39.32128906 C30.04921875 39.30066406 28.91484375 39.28003906 27.74609375 39.25878906 C27.41609375 38.59878906 27.08609375 37.93878906 26.74609375 37.25878906 C24.16004043 36.79046257 24.16004043 36.79046257 21.18359375 36.63378906 C20.17167969 36.55902344 19.15976563 36.48425781 18.1171875 36.40722656 C17.33472656 36.35824219 16.55226563 36.30925781 15.74609375 36.25878906 C16.07609375 38.89878906 16.40609375 41.53878906 16.74609375 44.25878906 C27.96609375 44.58878906 39.18609375 44.91878906 50.74609375 45.25878906 C51.24109375 47.23878906 51.24109375 47.23878906 51.74609375 49.25878906 C47.42280402 49.40225009 43.09948048 49.54463265 38.77612305 49.68603516 C37.30671235 49.73424438 35.83731113 49.78274339 34.36791992 49.83154297 C32.25051282 49.90181249 30.13307334 49.97102468 28.015625 50.04003906 C26.74307861 50.08193359 25.47053223 50.12382812 24.15942383 50.16699219 C21.35225108 50.24248728 18.55392902 50.27755488 15.74609375 50.25878906 C15.74609375 51.90878906 15.74609375 53.55878906 15.74609375 55.25878906 C17.03193359 55.10216797 17.03193359 55.10216797 18.34375 54.94238281 C27.54468141 54.2888781 27.54468141 54.2888781 31.09765625 57.15722656 C32.84463197 59.45431379 34.33451332 61.74400423 35.74609375 64.25878906 C36.73609375 65.74378906 36.73609375 65.74378906 37.74609375 67.25878906 C37.87109375 69.94628906 37.87109375 69.94628906 37.74609375 72.25878906 C31.67717683 72.30818236 25.60837662 72.34450549 19.53930664 72.36865234 C17.47418175 72.37871741 15.40907112 72.3923706 13.34399414 72.40966797 C10.37773111 72.43389399 7.41165631 72.44526703 4.4453125 72.45410156 C3.05767952 72.46958542 3.05767952 72.46958542 1.64201355 72.48538208 C0.78134781 72.48553314 -0.07931793 72.4856842 -0.96606445 72.48583984 C-2.10190727 72.49250168 -2.10190727 72.49250168 -3.26069641 72.4992981 C-5.25390625 72.25878906 -5.25390625 72.25878906 -8.25390625 70.25878906 C-8.62812805 67.45019531 -8.62812805 67.45019531 -8.6262207 63.82128906 C-8.62987137 63.1609668 -8.63352203 62.50064453 -8.63728333 61.8203125 C-8.64540373 59.63287814 -8.63176733 57.44618115 -8.6171875 55.25878906 C-8.61666907 53.74186198 -8.61718611 52.22493423 -8.61869812 50.70800781 C-8.61860833 47.52691637 -8.60816549 44.34607801 -8.59008789 41.16503906 C-8.5674003 37.08249281 -8.56685582 33.00031655 -8.57360554 28.91772461 C-8.57694317 25.78479713 -8.57031935 22.65195439 -8.5604763 19.51904297 C-8.55662045 18.01351362 -8.55547768 16.50797486 -8.55706215 15.00244141 C-8.55743202 12.90020717 -8.54483531 10.79845157 -8.52856445 8.69628906 C-8.52395706 7.49875 -8.51934967 6.30121094 -8.51460266 5.06738281 C-7.99551701 -0.52494854 -4.80997394 0.00658649 0 0 Z M-5.25390625 4.25878906 C-5.34800104 6.28373138 -5.37133747 8.31198776 -5.36743164 10.33911133 C-5.36735611 11.64038467 -5.36728058 12.94165802 -5.36720276 14.28236389 C-5.36209534 15.71330808 -5.35687933 17.14425189 -5.3515625 18.57519531 C-5.34969828 20.03108166 -5.3482744 21.48696864 -5.34727478 22.94285583 C-5.3434499 26.78158285 -5.33361989 30.62027226 -5.3225708 34.45898438 C-5.31235603 38.37336722 -5.30777702 42.28775612 -5.30273438 46.20214844 C-5.29199759 53.88771249 -5.27492154 61.57324551 -5.25390625 69.25878906 C-0.16357784 69.2834699 4.9267159 69.30163988 10.01708984 69.3137207 C11.74951789 69.31875589 13.48194167 69.32558439 15.21435547 69.33422852 C17.70150808 69.34632972 20.18860462 69.35202544 22.67578125 69.35644531 C23.84148148 69.36418724 23.84148148 69.36418724 25.0307312 69.37208557 C29.01780281 69.46206958 29.01780281 69.46206958 32.74609375 68.25878906 C32.74609375 67.59878906 32.74609375 66.93878906 32.74609375 66.25878906 C31.75609375 65.76378906 31.75609375 65.76378906 30.74609375 65.25878906 C30.12109375 62.19628906 30.12109375 62.19628906 29.74609375 59.25878906 C29.08609375 59.25878906 28.42609375 59.25878906 27.74609375 59.25878906 C27.74609375 58.59878906 27.74609375 57.93878906 27.74609375 57.25878906 C20.81609375 56.76378906 20.81609375 56.76378906 13.74609375 56.25878906 C13.74609375 45.36878906 13.74609375 34.47878906 13.74609375 23.25878906 C20.55234375 23.41347656 20.55234375 23.41347656 27.49609375 23.57128906 C28.92147461 23.59618408 30.34685547 23.6210791 31.81542969 23.64672852 C32.94239258 23.67984131 34.06935547 23.7129541 35.23046875 23.74707031 C36.38256836 23.77325439 37.53466797 23.79943848 38.72167969 23.82641602 C42.02625693 24.29884145 43.24335045 25.15309598 45.74609375 27.25878906 C48.897277 27.97924273 48.897277 27.97924273 51.74609375 28.25878906 C52.24109375 29.74378906 52.24109375 29.74378906 52.74609375 31.25878906 C53.40609375 31.25878906 54.06609375 31.25878906 54.74609375 31.25878906 C54.74609375 31.91878906 54.74609375 32.57878906 54.74609375 33.25878906 C56.06609375 33.58878906 57.38609375 33.91878906 58.74609375 34.25878906 C59.63213386 27.21793461 59.85515033 20.22130218 59.87109375 13.13378906 C59.87560547 12.28002686 59.88011719 11.42626465 59.88476562 10.54663086 C60.27139936 6.58695499 60.27139936 6.58695499 58.74609375 3.25878906 C56.78784677 3.15953133 54.82599478 3.13079492 52.86523438 3.12939453 C51.60723022 3.12624237 50.34922607 3.12309021 49.05310059 3.11984253 C47.66951462 3.12163231 46.28592897 3.12368326 44.90234375 3.12597656 C43.49369286 3.12530348 42.08504209 3.12433341 40.6763916 3.12307739 C37.72061052 3.12160064 34.76485961 3.12375423 31.80908203 3.12841797 C28.01234791 3.13411526 24.21568447 3.13083613 20.41895294 3.1248455 C17.50912947 3.12123927 14.59932287 3.12237876 11.6894989 3.1249733 C10.28919975 3.12564239 8.88889908 3.12481474 7.48860168 3.12249374 C5.53471911 3.11996624 3.5808312 3.12449873 1.62695312 3.12939453 C0.51300171 3.13019012 -0.60094971 3.13098572 -1.74865723 3.13180542 C-4.19368086 2.97509534 -4.19368086 2.97509534 -5.25390625 4.25878906 Z " fill="#EFC548" transform="translate(93.25390625,212.7412109375)"/>
<path d="M0 0 C4.41999949 3.64885065 7.97991214 7.88215257 8.8359375 13.703125 C9.22240729 20.53075797 8.42929323 26.0409854 4.0859375 31.453125 C-0.4590647 36.33763339 -5.29375569 38.2285115 -11.86328125 38.76953125 C-17.9559236 38.59368249 -23.5347031 35.49078269 -28.1640625 31.703125 C-31.84100932 26.63490101 -33.42744754 22.0032952 -33.1640625 15.703125 C-32.05753445 9.69066287 -30.02701418 5.57138202 -25.1640625 1.703125 C-17.3109623 -3.61032582 -8.50199213 -5.09505666 0 0 Z M-21.1640625 8.703125 C-24.04809217 13.07889415 -24.81393767 16.50412364 -24.1640625 21.703125 C-22.55085529 24.75669579 -21.13345348 26.94146066 -18.4140625 29.078125 C-13.75019514 30.37364371 -9.72430356 30.39656547 -5.3515625 28.453125 C-2.40451163 26.0954843 -0.44340807 24.11382011 0.3046875 20.3359375 C0.35973688 15.91822466 0.36582207 12.68716526 -2.4765625 9.140625 C-6.24473488 5.72298029 -9.14019202 5.39993472 -14.16796875 5.4921875 C-17.1972636 5.81230868 -18.860891 6.728978 -21.1640625 8.703125 Z " fill="#E9E9E9" transform="translate(354.1640625,215.296875)"/>
<path d="M0 0 C2.97 0.495 2.97 0.495 6 1 C6 1.66 6 2.32 6 3 C6.66 3 7.32 3 8 3 C9.4453125 4.6171875 9.4453125 4.6171875 11.125 6.875 C13.84718971 10.47975227 16.60878122 14.04041853 19.4375 17.5625 C20.11683594 18.40941406 20.79617188 19.25632813 21.49609375 20.12890625 C21.99238281 20.74636719 22.48867188 21.36382812 23 22 C23.02505615 21.36908447 23.0501123 20.73816895 23.07592773 20.08813477 C23.19154137 17.24603175 23.31442316 14.40428917 23.4375 11.5625 C23.47681641 10.56927734 23.51613281 9.57605469 23.55664062 8.55273438 C23.59853516 7.60849609 23.64042969 6.66425781 23.68359375 5.69140625 C23.72025146 4.81685791 23.75690918 3.94230957 23.79467773 3.04125977 C24 1 24 1 25 0 C27.33297433 -0.04092937 29.66705225 -0.04241723 32 0 C32.16722049 5.53571863 32.32781942 11.07157377 32.48217773 16.60766602 C32.5356766 18.49248476 32.5910118 20.37725228 32.64819336 22.26196289 C32.7298851 24.96489411 32.8050554 27.66793839 32.87890625 30.37109375 C32.90594131 31.21900986 32.93297638 32.06692596 32.96083069 32.9405365 C33.01280526 34.95973106 33.01188213 36.98017158 33 39 C32 40 32 40 29.8046875 40.43359375 C25.64743913 39.79089936 23.74501904 37.10896537 21.125 34.0625 C20.60196289 33.47509033 20.07892578 32.88768066 19.54003906 32.2824707 C15.48131489 27.68095178 11.66831191 22.91887278 8 18 C7.67 25.26 7.34 32.52 7 40 C4.36 40 1.72 40 -1 40 C-3.01554229 37.98445771 -2.1639879 33.89761125 -2.16796875 31.1328125 C-2.17129715 30.34228485 -2.17462555 29.5517572 -2.17805481 28.73727417 C-2.18312785 27.06102075 -2.18546302 25.38475719 -2.18530273 23.70849609 C-2.18748492 21.14273392 -2.20562439 18.57740451 -2.22460938 16.01171875 C-2.22754407 14.38541814 -2.22952836 12.75911548 -2.23046875 11.1328125 C-2.23765427 10.36397736 -2.24483978 9.59514221 -2.25224304 8.80300903 C-2.23591079 4.99526776 -2.16425612 3.24638418 0 0 Z " fill="#ECECEC" transform="translate(285,213)"/>
<path d="M0 0 C23.51162791 0 23.51162791 0 28.7578125 4.51171875 C33.02629846 9.09982563 35.55881569 14.07715393 36.5 20.3125 C35.68259056 26.34089461 32.91455873 33.13778608 28 37 C22.38895692 39.99445755 17.48689957 40.54663737 11.1875 40.75 C10.32962891 40.79253906 9.47175781 40.83507812 8.58789062 40.87890625 C2.29272797 41.14636399 2.29272797 41.14636399 0 40 C0 26.8 0 13.6 0 0 Z M8 8 C8 15.92 8 23.84 8 32 C17.31202436 32.79072689 17.31202436 32.79072689 24 29 C27.16955197 25.06538376 27.53348798 21.97922113 27 17 C25.48934941 13.83482734 23.75050328 11.20040262 21 9 C16.23197052 7.63619656 16.23197052 7.63619656 8 8 Z " fill="#EEEFEE" transform="translate(177,213)"/>
<path d="M0 0 C1.5625 1.8125 1.5625 1.8125 2 4 C0.625 6.75 0.625 6.75 -1 9 C-1.804375 8.67 -2.60875 8.34 -3.4375 8 C-9.27851147 6.36041783 -15.11474595 6.48122476 -21 8 C-21.309375 8.94875 -21.61875 9.8975 -21.9375 10.875 C-23 14 -23 14 -24 16 C-24.2993357 19.44236057 -24.4452406 21.33213909 -22.5 24.25 C-22.005 24.8275 -21.51 25.405 -21 26 C-21 26.66 -21 27.32 -21 28 C-15.68833136 29.32791716 -10.24118425 29.74706142 -5 28 C-4.67 26.02 -4.34 24.04 -4 22 C-7.3 22 -10.6 22 -14 22 C-14.04241723 19.66705225 -14.04092937 17.33297433 -14 15 C-12.2537612 13.2537612 -10.00121676 13.86778849 -7.67773438 13.86328125 C-6.97970703 13.86714844 -6.28167969 13.87101563 -5.5625 13.875 C-4.86833984 13.87113281 -4.17417969 13.86726562 -3.45898438 13.86328125 C1.74672012 13.87336006 1.74672012 13.87336006 4 15 C4.08089542 17.77141717 4.14044062 20.54047819 4.1875 23.3125 C4.21263672 24.09818359 4.23777344 24.88386719 4.26367188 25.69335938 C4.27333984 26.45068359 4.28300781 27.20800781 4.29296875 27.98828125 C4.3086792 28.68477783 4.32438965 29.38127441 4.34057617 30.09887695 C3.89191562 32.60333551 2.95052937 33.41321104 1 35 C-5.55929134 38.76810354 -12.74346879 39.16380765 -20.1171875 37.53125 C-25.40242887 35.55809322 -29.70124323 31.68173327 -32.14453125 26.63671875 C-34.14098382 20.48326906 -33.9064948 14.10487616 -31 8.3125 C-30.34 7.219375 -29.68 6.12625 -29 5 C-28.34 5 -27.68 5 -27 5 C-27 4.34 -27 3.68 -27 3 C-26.34 3 -25.68 3 -25 3 C-25 2.34 -25 1.68 -25 1 C-17.62697496 -3.02165002 -7.64040897 -4.02126788 0 0 Z " fill="#E7E7E7" transform="translate(262,215)"/>
<path d="M0 0 C9.24 0 18.48 0 28 0 C28 0.33 28 0.66 28 1 C19.42 1 10.84 1 2 1 C2 3.31 2 5.62 2 8 C3.19238281 7.90460938 4.38476562 7.80921875 5.61328125 7.7109375 C7.17964636 7.59838432 8.74605506 7.48643666 10.3125 7.375 C11.09818359 7.31054688 11.88386719 7.24609375 12.69335938 7.1796875 C13.45068359 7.128125 14.20800781 7.0765625 14.98828125 7.0234375 C15.68477783 6.97106934 16.38127441 6.91870117 17.09887695 6.86474609 C19 7 19 7 22 9 C22.25 12.0625 22.25 12.0625 22 15 C21 16 21 16 17.4375 16.0625 C16.303125 16.041875 15.16875 16.02125 14 16 C13.67 15.34 13.34 14.68 13 14 C10.41394668 13.5316735 10.41394668 13.5316735 7.4375 13.375 C6.42558594 13.30023438 5.41367188 13.22546875 4.37109375 13.1484375 C3.19740234 13.07496094 3.19740234 13.07496094 2 13 C2.33 15.64 2.66 18.28 3 21 C14.22 21.33 25.44 21.66 37 22 C37.495 23.98 37.495 23.98 38 26 C33.67671027 26.14346103 29.35338673 26.28584359 25.0300293 26.42724609 C23.5606186 26.47545532 22.09121738 26.52395433 20.62182617 26.57275391 C18.50441907 26.64302343 16.38697959 26.71223562 14.26953125 26.78125 C12.99698486 26.82314453 11.72443848 26.86503906 10.41333008 26.90820312 C7.60615733 26.98369822 4.80783527 27.01876582 2 27 C2 28.65 2 30.3 2 32 C6.29 32 10.58 32 15 32 C15 32.33 15 32.66 15 33 C10.05 33 5.1 33 0 33 C-1.12697248 25.11119266 -1.12697248 25.11119266 -1.1328125 21.66015625 C-1.13410156 20.90669922 -1.13539062 20.15324219 -1.13671875 19.37695312 C-1.13285156 18.61318359 -1.12898438 17.84941406 -1.125 17.0625 C-1.12886719 16.30259766 -1.13273437 15.54269531 -1.13671875 14.75976562 C-1.13542969 14.00501953 -1.13414063 13.25027344 -1.1328125 12.47265625 C-1.13168457 11.80500244 -1.13055664 11.13734863 -1.12939453 10.44946289 C-0.94458065 6.95090126 -0.43454821 3.47638569 0 0 Z " fill="#B2A169" transform="translate(107,236)"/>
<path d="M0 0 C0.94875 0.04125 1.8975 0.0825 2.875 0.125 C4.51445963 3.40391925 3.99530178 7.03113534 3.97265625 10.6328125 C3.9712413 11.47343231 3.96982635 12.31405212 3.96836853 13.18014526 C3.96276237 15.87013275 3.95020886 18.56003759 3.9375 21.25 C3.93248579 23.07161338 3.92792275 24.89322807 3.92382812 26.71484375 C3.91279094 31.18492777 3.8955222 35.65494986 3.875 40.125 C0.5 40.75 0.5 40.75 -3.125 41.125 C-5.699325 38.550675 -5.37275746 36.81787354 -5.40289307 33.30847168 C-5.3988446 32.51573853 -5.39479614 31.72300537 -5.390625 30.90625 C-5.39253845 30.09256958 -5.3944519 29.27888916 -5.39642334 28.44055176 C-5.39778527 26.718991 -5.39408828 24.99741997 -5.38574219 23.27587891 C-5.37504258 20.6355083 -5.385637 17.99581811 -5.3984375 15.35546875 C-5.39711591 13.68489433 -5.39455352 12.01432033 -5.390625 10.34375 C-5.39467346 9.55101685 -5.39872192 8.75828369 -5.40289307 7.94152832 C-5.33653134 0.21346125 -5.33653134 0.21346125 0 0 Z " fill="#E5E5E5" transform="translate(221.125,212.875)"/>
<path d="M0 0 C2.64 0 5.28 0 8 0 C8 13.2 8 26.4 8 40 C4.535 40.495 4.535 40.495 1 41 C0 40 0 40 -0.11352539 36.21459961 C-0.11336622 34.52717271 -0.10766917 32.83974095 -0.09765625 31.15234375 C-0.0962413 30.2659169 -0.09482635 29.37949005 -0.09336853 28.46620178 C-0.08775215 25.62326746 -0.07519691 22.78041069 -0.0625 19.9375 C-0.05748711 18.01497509 -0.05292384 16.09244896 -0.04882812 14.16992188 C-0.03777741 9.44658451 -0.02050183 4.72330542 0 0 Z " fill="#F5F5F5" transform="translate(270,213)"/>
<path d="M0 0 C3.72413058 2.71551188 5.95175986 5.4925674 7 10 C7.15302674 14.41977245 6.50880724 17.25268936 4 20.9375 C0.01494375 23.67722617 -3.20297445 24.27927888 -8 24 C-11.76015954 23.17565733 -14.34962762 21.7342914 -16.9375 18.8125 C-18.32775631 15.13240977 -18.68530176 11.84823294 -18 8 C-13.93626703 0.1628007 -8.43939604 -1.34045512 0 0 Z M-11.9375 6.6875 C-14.06519653 9.74723178 -14.06519653 9.74723178 -14.6875 12.5625 C-13.58047054 16.48742264 -11.37306157 17.87622049 -8 20 C-4.30334521 20.0739331 -2.62433054 19.44360328 0.375 17.3125 C2.52675145 14.25039216 2.60011905 12.67572916 2 9 C0.59121904 6.0098357 0.59121904 6.0098357 -2 4 C-6.79195516 3.04160897 -8.30306196 3.36237584 -11.9375 6.6875 Z " fill="#D3D3D3" transform="translate(341,261)"/>
<path d="M0 0 C3.72389553 2.71534049 5.92799276 5.49756958 7 10 C6.92114118 14.33723514 6.20839157 16.65899561 3.9375 20.375 C0.27804061 23.6451552 -2.1801797 24.25566827 -7 24 C-11.48360161 23.05154581 -14.26352123 21.71379262 -17 18 C-18.77332541 13.9117424 -19.32473472 11.05538784 -18 6.75 C-13.29389262 0.27910235 -7.72531 -1.49605336 0 0 Z M-11.375 5.6875 C-13.21921807 8.31196417 -13.92169023 9.78929947 -14 13 C-12.61442213 15.83713564 -11.22998296 17.77001704 -9 20 C-5.21619329 19.85985901 -2.73460383 19.48973588 0.4375 17.375 C2.63274809 14.0382229 2.55921637 11.91451456 2 8 C0.58333333 5.41666667 0.58333333 5.41666667 -2 4 C-5.98452984 3.43078145 -8.05493748 3.32850821 -11.375 5.6875 Z " fill="#DADADA" transform="translate(218,261)"/>
<path d="M0 0 C4.85875292 1.21468823 5.72318644 2.68995912 8.75 6.5625 C9.54921875 7.57441406 10.3484375 8.58632813 11.171875 9.62890625 C11.77515625 10.41136719 12.3784375 11.19382812 13 12 C14.73956658 10.26043342 14.37190386 7.8063378 14.5625 5.4375 C14.64628906 4.42558594 14.73007812 3.41367187 14.81640625 2.37109375 C14.87699219 1.58863281 14.93757813 0.80617188 15 0 C16.32 0.33 17.64 0.66 19 1 C19 8.26 19 15.52 19 23 C17.68 23 16.36 23 15 23 C13.1484375 21.13671875 13.1484375 21.13671875 11.375 18.6875 C10.78460938 17.88699219 10.19421875 17.08648437 9.5859375 16.26171875 C8.36736038 14.52389571 7.17734501 12.76601751 6 11 C5.67 14.96 5.34 18.92 5 23 C3.35 23.33 1.7 23.66 0 24 C0 16.08 0 8.16 0 0 Z " fill="#F4F4F4" transform="translate(356,261)"/>
<path d="M0 0 C1.32 0 2.64 0 4 0 C4.66 5.94 5.32 11.88 6 18 C7.32 18.33 8.64 18.66 10 19 C12.37308391 17.58800871 12.37308391 17.58800871 14 15 C14.69779382 11.50727748 14.69779382 11.50727748 14.75 7.75 C14.80671875 6.48671875 14.8634375 5.2234375 14.921875 3.921875 C14.94765625 2.95765625 14.9734375 1.9934375 15 1 C16.32 1 17.64 1 19 1 C19.08132187 3.56314499 19.14064175 6.12368418 19.1875 8.6875 C19.21263672 9.40873047 19.23777344 10.12996094 19.26367188 10.87304688 C19.32679275 15.48087064 18.79834732 18.31351222 16 22 C14.27415266 23.72584734 12.03790633 23.2533507 9.6875 23.3125 C8.72199219 23.34988281 7.75648438 23.38726562 6.76171875 23.42578125 C4 23 4 23 1.66015625 21.58984375 C-0.89004418 17.61153108 -0.42723865 13.86502183 -0.25 9.25 C-0.23195312 8.36183594 -0.21390625 7.47367187 -0.1953125 6.55859375 C-0.14827374 4.37129152 -0.08257009 2.18620184 0 0 Z " fill="#CDCDCD" transform="translate(255,261)"/>
<path d="M0 0 C0.66 0.66 1.32 1.32 2 2 C1.625 4.125 1.625 4.125 1 6 C0.34 6 -0.32 6 -1 6 C-1 5.34 -1 4.68 -1 4 C-3.31 4.33 -5.62 4.66 -8 5 C-8.33 6.32 -8.66 7.64 -9 9 C-8.37351562 9.10957031 -7.74703125 9.21914063 -7.1015625 9.33203125 C-6.28429687 9.49058594 -5.46703125 9.64914062 -4.625 9.8125 C-3.81289063 9.96332031 -3.00078125 10.11414063 -2.1640625 10.26953125 C0 11 0 11 2 14 C1.54716981 20.45283019 1.54716981 20.45283019 -1 23 C-3.8203125 23.1953125 -3.8203125 23.1953125 -7.125 23.125 C-8.22070312 23.10695313 -9.31640625 23.08890625 -10.4453125 23.0703125 C-11.28835938 23.04710937 -12.13140625 23.02390625 -13 23 C-13.33 21.35 -13.66 19.7 -14 18 C-11.03 18.33 -8.06 18.66 -5 19 C-4.34 18.01 -3.68 17.02 -3 16 C-3.62648438 15.74605469 -4.25296875 15.49210937 -4.8984375 15.23046875 C-5.71570313 14.88628906 -6.53296875 14.54210937 -7.375 14.1875 C-8.18710937 13.85105469 -8.99921875 13.51460938 -9.8359375 13.16796875 C-12 12 -12 12 -14 9 C-14.4375 6.5625 -14.4375 6.5625 -14 4 C-10.16876264 -0.57276717 -5.62810869 -0.95091817 0 0 Z " fill="#D3D3D3" transform="translate(398,261)"/>
<path d="M0 0 C0.66 0.33 1.32 0.66 2 1 C2 2.65 2 4.3 2 6 C-0.97 5.67 -3.94 5.34 -7 5 C-7.33 5.99 -7.66 6.98 -8 8 C-7.45730469 8.17015625 -6.91460937 8.3403125 -6.35546875 8.515625 C-3.11101982 9.61464554 -0.53146083 10.53295867 2.0625 12.8125 C3.37824815 15.88257902 2.89521119 17.83232962 2 21 C0 23 0 23 -2.8203125 23.1953125 C-3.91085938 23.17210937 -5.00140625 23.14890625 -6.125 23.125 C-7.22070312 23.10695313 -8.31640625 23.08890625 -9.4453125 23.0703125 C-10.28835937 23.04710937 -11.13140625 23.02390625 -12 23 C-12.33 21.68 -12.66 20.36 -13 19 C-10 18 -10 18 -7.5 18.625 C-6.675 18.74875 -5.85 18.8725 -5 19 C-4.01 18.01 -3.02 17.02 -2 16 C-6.455 14.02 -6.455 14.02 -11 12 C-11 11.34 -11 10.68 -11 10 C-11.66 10 -12.32 10 -13 10 C-13.31068741 6.58243849 -13.3625104 4.59893023 -11.5625 1.625 C-7.82998515 -0.74196064 -4.31448031 -0.50807587 0 0 Z " fill="#D6D6D6" transform="translate(190,261)"/>
<path d="M0 0 C3.22443278 -0.73893251 5.79561753 -0.89860957 9 0 C12.38863942 3.23840417 14.92117756 6.80270455 17 11 C17 12.65 17 14.3 17 16 C2.81 16 -11.38 16 -26 16 C-26 15.01 -26 14.02 -26 13 C-13.46 12.67 -0.92 12.34 12 12 C12 11.34 12 10.68 12 10 C11.01 9.67 10.02 9.34 9 9 C9 7.02 9 5.04 9 3 C8.34 3 7.68 3 7 3 C7 2.34 7 1.68 7 1 C4.69 1 2.38 1 0 1 C0 0.67 0 0.34 0 0 Z " fill="#D3A44A" transform="translate(114,269)"/>
<path d="M0 0 C2.562964 2.23225897 2.93752331 3.58051369 3.4375 6.9375 C2.87978797 10.84148421 1.93224851 12.36849493 -1 15 C-4.4375 16.1875 -4.4375 16.1875 -8 16 C-10.57943352 13.85047207 -11.68802701 12.91133053 -13 10 C-13.14905149 5.67750688 -12.67946009 3.79936481 -9.875 0.5 C-6.06467129 -1.48799759 -4.08035596 -1.20899436 0 0 Z M-7 5 C-7 6.32 -7 7.64 -7 9 C-5.02 9.495 -5.02 9.495 -3 10 C-2.67 8.68 -2.34 7.36 -2 6 C-3.65 5.67 -5.3 5.34 -7 5 Z " fill="#E3E4E4" transform="translate(152,268)"/>
<path d="M0 0 C6.27 0 12.54 0 19 0 C19.33 1.32 19.66 2.64 20 4 C17.03 4 14.06 4 11 4 C11.10699219 5.34835937 11.21398437 6.69671875 11.32421875 8.0859375 C11.44612589 9.84890228 11.5671753 11.61192651 11.6875 13.375 C11.76033203 14.26445312 11.83316406 15.15390625 11.90820312 16.0703125 C11.96298828 16.92109375 12.01777344 17.771875 12.07421875 18.6484375 C12.13182373 19.43395996 12.18942871 20.21948242 12.2487793 21.02880859 C12.16668213 21.67930176 12.08458496 22.32979492 12 23 C11.01 23.66 10.02 24.32 9 25 C7 23 7 23 6.77294922 21.12060547 C6.78342285 20.37697754 6.79389648 19.63334961 6.8046875 18.8671875 C6.81113281 18.06152344 6.81757813 17.25585938 6.82421875 16.42578125 C6.84097656 15.58402344 6.85773438 14.74226563 6.875 13.875 C6.88402344 13.02550781 6.89304687 12.17601562 6.90234375 11.30078125 C6.92594353 9.20040116 6.96181517 7.10016556 7 5 C4.69 4.67 2.38 4.34 0 4 C0 2.68 0 1.36 0 0 Z " fill="#E2E2E2" transform="translate(282,261)"/>
<path d="M0 0 C11.88 0 23.76 0 36 0 C36.495 1.98 36.495 1.98 37 4 C33.08388313 4.2003489 29.16711603 4.38283613 25.25 4.5625 C24.15816406 4.61857422 23.06632812 4.67464844 21.94140625 4.73242188 C14.53701578 5.06101909 7.36808185 4.79895867 0 4 C0 2.68 0 1.36 0 0 Z " fill="#EAECEB" transform="translate(108,258)"/>
<path d="M0 0 C1.98 0.495 1.98 0.495 4 1 C3.67 6.94 3.34 12.88 3 19 C6.63 19 10.26 19 14 19 C14 20.32 14 21.64 14 23 C9.39288558 24.18893275 4.73225005 24.33243079 0 24 C-1.65394117 22.34605883 -1.12999683 20.39684587 -1.1328125 18.125 C-1.13410156 17.14015625 -1.13539063 16.1553125 -1.13671875 15.140625 C-1.13285156 14.10421875 -1.12898437 13.0678125 -1.125 12 C-1.13080078 10.44539063 -1.13080078 10.44539063 -1.13671875 8.859375 C-1.13542969 7.87453125 -1.13414062 6.8896875 -1.1328125 5.875 C-1.13168457 4.96492188 -1.13055664 4.05484375 -1.12939453 3.1171875 C-1 1 -1 1 0 0 Z " fill="#DADADA" transform="translate(234,261)"/>
<path d="M0 0 C4.39718646 1.09929662 4.79997334 1.55450729 7.25 5.0625 C8.03117187 6.16271484 8.03117187 6.16271484 8.828125 7.28515625 C9.21484375 7.85105469 9.6015625 8.41695313 10 9 C9.01 9 8.02 9 7 9 C5.64908472 11.70183055 5.66141942 14.11808206 5.4375 17.125 C5.35371094 18.22070312 5.26992188 19.31640625 5.18359375 20.4453125 C5.12300781 21.28835938 5.06242187 22.13140625 5 23 C3.35 23.33 1.7 23.66 0 24 C0 16.08 0 8.16 0 0 Z " fill="#A5A5A5" transform="translate(356,261)"/>
<path d="M0 0 C-0.33 0.66 -0.66 1.32 -1 2 C0.98 2 2.96 2 5 2 C5 2.33 5 2.66 5 3 C3.3603125 3.37125 3.3603125 3.37125 1.6875 3.75 C-1.94488239 4.69863551 -1.94488239 4.69863551 -3.9375 6.8125 C-5.2688722 9.55356042 -5.60110677 10.99446613 -5 14 C-2.43025001 16.71659284 -0.94655411 17.91586186 2.8125 18.25 C3.8953125 18.12625 3.8953125 18.12625 5 18 C5 18.66 5 19.32 5 20 C3.68 20.33 2.36 20.66 1 21 C2.32 21.66 3.64 22.32 5 23 C0.07319446 22.88192841 -3.07695761 22.74997195 -7 19.5625 C-9.8204294 15.94882483 -10.34414128 13.73610073 -10.28515625 9.1015625 C-9.81849096 5.66230327 -8.21874413 3.58853482 -6 1 C-2.6 -1.3 -2.6 -1.3 0 0 Z " fill="#CFCFCF" transform="translate(333,262)"/>
<path d="M0 0 C2.32223604 3.48335406 2.26872357 4.91345369 2.31884766 9.03198242 C2.33871735 10.27304245 2.35858704 11.51410248 2.37905884 12.79277039 C2.39093518 14.14700136 2.40259804 15.50123422 2.4140625 16.85546875 C2.43277317 18.24124812 2.45234652 19.62701609 2.4727478 21.01277161 C2.52408594 24.65739216 2.56370244 28.30204965 2.60089111 31.94683838 C2.64092036 35.66712597 2.69201759 39.38725966 2.7421875 43.10742188 C2.83896662 50.40484235 2.92336483 57.70233724 3 65 C2.01 64.67 1.02 64.34 0 64 C0 42.88 0 21.76 0 0 Z " fill="#F2DDAF" transform="translate(85,219)"/>
<path d="M0 0 C0.33 0 0.66 0 1 0 C1 11.55 1 23.1 1 35 C-3.68889415 35 -4.40203754 34.23909298 -7.875 31.3125 C-8.74640625 30.58675781 -9.6178125 29.86101562 -10.515625 29.11328125 C-11.33546875 28.41589844 -12.1553125 27.71851563 -13 27 C-14.20764856 25.99917314 -15.41583814 24.99899802 -16.625 24 C-17.40875 23.34 -18.1925 22.68 -19 22 C-14.4608246 22 -10.59284751 23.71544556 -7.0625 26.5625 C-6 28 -6 28 -6 30 C-4.68 30.33 -3.36 30.66 -2 31 C-2.01160156 30.25234375 -2.02320313 29.5046875 -2.03515625 28.734375 C-2.04417969 27.74953125 -2.05320313 26.7646875 -2.0625 25.75 C-2.07410156 24.77546875 -2.08570313 23.8009375 -2.09765625 22.796875 C-2 20 -2 20 -1.51367188 18.06835938 C-0.67350453 14.68532811 -0.62442636 11.21886297 -0.4375 7.75 C-0.39431641 7.00492188 -0.35113281 6.25984375 -0.30664062 5.4921875 C-0.20103275 3.661651 -0.10005799 1.83084824 0 0 Z " fill="#AF9747" transform="translate(154,216)"/>
<path d="M0 0 C1.97225807 -0.01441132 1.97225807 -0.01441132 3.98435974 -0.02911377 C5.43105904 -0.03396083 6.87776034 -0.03823988 8.32446289 -0.04199219 C9.79797875 -0.04774075 11.27149458 -0.05349851 12.74501038 -0.05926514 C15.83782298 -0.06978359 18.93060952 -0.07562084 22.0234375 -0.07910156 C25.99283301 -0.08459075 29.96188625 -0.10862389 33.93117428 -0.13707352 C36.97572344 -0.15566646 40.02018957 -0.16090367 43.06479073 -0.16243744 C44.52847733 -0.16547167 45.99216222 -0.17352602 47.45579338 -0.18662262 C49.5004083 -0.20361296 51.54516354 -0.19996829 53.58984375 -0.1953125 C54.75486923 -0.19895813 55.91989471 -0.20260376 57.120224 -0.20635986 C58.0242244 -0.08508728 58.92822479 0.0361853 59.85961914 0.16113281 C62.43822149 4.02903633 61.87076419 6.92727197 61.48461914 11.34863281 C61.39954102 12.47301758 61.39954102 12.47301758 61.31274414 13.62011719 C61.17151246 15.46789841 61.01685747 17.31464481 60.85961914 19.16113281 C60.52961914 19.16113281 60.19961914 19.16113281 59.85961914 19.16113281 C59.52961914 13.55113281 59.19961914 7.94113281 58.85961914 2.16113281 C37.40961914 2.49113281 15.95961914 2.82113281 -6.14038086 3.16113281 C-6.14038086 5.14113281 -6.14038086 7.12113281 -6.14038086 9.16113281 C-8.14038086 6.16113281 -8.14038086 6.16113281 -7.82788086 3.53613281 C-6.52997036 -0.94755801 -4.36472604 0.02559835 0 0 Z " fill="#E1C97B" transform="translate(93.140380859375,212.8388671875)"/>
<path d="M0 0 C0.99 0 1.98 0 3 0 C3 7.92 3 15.84 3 24 C1.68 24 0.36 24 -1 24 C-1.02887236 20.18751574 -1.04675492 16.3750593 -1.0625 12.5625 C-1.07087891 11.47388672 -1.07925781 10.38527344 -1.08789062 9.26367188 C-1.09111328 8.22919922 -1.09433594 7.19472656 -1.09765625 6.12890625 C-1.10289307 5.17056885 -1.10812988 4.21223145 -1.11352539 3.22485352 C-1 1 -1 1 0 0 Z " fill="#BFBFBF" transform="translate(310,261)"/>
<path d="M0 0 C6.6 0 13.2 0 20 0 C21 3 21 3 20 6 C18.02 6 16.04 6 14 6 C14 5.01 14 4.02 14 3 C9.38 3 4.76 3 0 3 C0 2.01 0 1.02 0 0 Z " fill="#F4F1E2" transform="translate(107,245)"/>
<path d="M0 0 C1.32 0 2.64 0 4 0 C4 5.94 4 11.88 4 18 C2.68 18.33 1.36 18.66 0 19 C0 12.73 0 6.46 0 0 Z " fill="#F4F4F4" transform="translate(255,261)"/>
<path d="M0 0 C0.66 1.32 1.32 2.64 2 4 C2.99 3.67 3.98 3.34 5 3 C4.61209109 8.43072469 3.01968879 11.32241238 -1 15 C-3.77041242 15.78495019 -6.08738212 15.90126719 -9 16 C-8.01 15.67 -7.02 15.34 -6 15 C-6 13.68 -6 12.36 -6 11 C-4.7934375 10.1028125 -4.7934375 10.1028125 -3.5625 9.1875 C-0.6325244 7.1335963 -0.6325244 7.1335963 -0.1875 3.25 C-0.125625 2.1775 -0.06375 1.105 0 0 Z " fill="#D9D9D9" transform="translate(220,269)"/>
<path d="M0 0 C11.55 0 23.1 0 35 0 C35 0.33 35 0.66 35 1 C27.08 1.33 19.16 1.66 11 2 C13.64 2.33 16.28 2.66 19 3 C19 3.33 19 3.66 19 4 C12.5510809 5.31909709 6.51244208 4.69508823 0 4 C0 2.68 0 1.36 0 0 Z " fill="#C3C4BD" transform="translate(108,258)"/>
<path d="M0 0 C2 1.1875 2 1.1875 4 3 C4.25 5.6875 4.25 5.6875 4 8 C3.34 8 2.68 8 2 8 C1.67 12.95 1.34 17.9 1 23 C0.34 23 -0.32 23 -1 23 C-1.02887512 19.35418313 -1.04675585 15.70839537 -1.0625 12.0625 C-1.07087891 11.02158203 -1.07925781 9.98066406 -1.08789062 8.90820312 C-1.09272461 7.42416992 -1.09272461 7.42416992 -1.09765625 5.91015625 C-1.10289307 4.99371338 -1.10812988 4.07727051 -1.11352539 3.13305664 C-1 1 -1 1 0 0 Z " fill="#F1F1F0" transform="translate(358,261)"/>
<path d="M0 0 C3.12987926 -0.50078068 5.88554959 -0.65941132 9 0 C12.80249846 3.1452765 14.69121701 6.76486803 15.875 11.5 C15.91625 12.325 15.9575 13.15 16 14 C14.35 14 12.7 14 11 14 C10.67 13.34 10.34 12.68 10 12 C10.66 12 11.32 12 12 12 C12 11.34 12 10.68 12 10 C11.01 9.67 10.02 9.34 9 9 C9 7.02 9 5.04 9 3 C8.34 3 7.68 3 7 3 C7 2.34 7 1.68 7 1 C4.69 1 2.38 1 0 1 C0 0.67 0 0.34 0 0 Z " fill="#D9B854" transform="translate(114,269)"/>
<path d="M0 0 C0.33 0 0.66 0 1 0 C1 7.26 1 14.52 1 22 C-0.32 22 -1.64 22 -3 22 C-4.8125 20.1875 -4.8125 20.1875 -6 18 C-5.505 16.515 -5.505 16.515 -5 15 C-4.33484375 14.74476563 -3.6696875 14.48953125 -2.984375 14.2265625 C-2.00210937 13.61941406 -2.00210937 13.61941406 -1 13 C-0.29327794 9.89069059 -0.29327794 9.89069059 -0.25 6.375 C-0.19328125 5.18648438 -0.1365625 3.99796875 -0.078125 2.7734375 C-0.05234375 1.85820312 -0.0265625 0.94296875 0 0 Z " fill="#C4C4C4" transform="translate(374,262)"/>
<path d="M0 0 C8.5 -0.33333333 8.5 -0.33333333 12 2 C13.31239482 4.58262434 14.20445688 7.21883301 15 10 C13.02 10.99 13.02 10.99 11 12 C11 10.35 11 8.7 11 7 C10.01 6.67 9.02 6.34 8 6 C7.67 5.01 7.34 4.02 7 3 C4.36 2.67 1.72 2.34 -1 2 C-0.67 1.34 -0.34 0.68 0 0 Z " fill="#E0E0E0" transform="translate(210,262)"/>
<path d="M0 0 C0.33 0.66 0.66 1.32 1 2 C-1.97 2 -4.94 2 -8 2 C-5.69 2.33 -3.38 2.66 -1 3 C-1 3.99 -1 4.98 -1 6 C-1.33 5.67 -1.66 5.34 -2 5 C-5.66344611 4.86431681 -8.50615721 4.83538574 -12 6 C-12.33 7.65 -12.66 9.3 -13 11 C-13.33 11 -13.66 11 -14 11 C-14.33 8.36 -14.66 5.72 -15 3 C-10.27805833 -0.77755334 -5.74071928 -0.30096975 0 0 Z " fill="#D7D7D7" transform="translate(218,261)"/>
<path d="M0 0 C1.45792884 -0.05399736 2.91642712 -0.09279177 4.375 -0.125 C5.18710937 -0.14820313 5.99921875 -0.17140625 6.8359375 -0.1953125 C9 0 9 0 11 2 C10.625 4.125 10.625 4.125 10 6 C9.34 6 8.68 6 8 6 C8 5.34 8 4.68 8 4 C6.3603125 4.2475 6.3603125 4.2475 4.6875 4.5 C1 5 1 5 -2 5 C-1.34 3.35 -0.68 1.7 0 0 Z " fill="#C9C9C9" transform="translate(389,261)"/>
<path d="M0 0 C0.80566406 0.00257813 1.61132812 0.00515625 2.44140625 0.0078125 C3.64603516 0.00394531 3.64603516 0.00394531 4.875 0 C7.00390625 0.1328125 7.00390625 0.1328125 9.00390625 1.1328125 C9.00390625 2.7828125 9.00390625 4.4328125 9.00390625 6.1328125 C8.06417969 6.00712891 8.06417969 6.00712891 7.10546875 5.87890625 C5.87957031 5.72615234 5.87957031 5.72615234 4.62890625 5.5703125 C3.41074219 5.41369141 3.41074219 5.41369141 2.16796875 5.25390625 C-0.04508561 4.95043922 -0.04508561 4.95043922 -1.99609375 6.1328125 C-2.37828142 4.47666593 -2.71004477 2.80824226 -2.99609375 1.1328125 C-1.99609375 0.1328125 -1.99609375 0.1328125 0 0 Z " fill="#DBDBDB" transform="translate(182.99609375,260.8671875)"/>
<path d="M0 0 C2.01359873 3.01190907 1.1861934 6.46982133 0.84570312 9.91992188 C0.75385742 11.04430664 0.75385742 11.04430664 0.66015625 12.19140625 C0.50711701 14.03964932 0.33453433 15.88625537 0.15820312 17.73242188 C-0.17179687 17.73242188 -0.50179687 17.73242188 -0.84179688 17.73242188 C-1.17179687 12.12242187 -1.50179687 6.51242188 -1.84179688 0.73242188 C-9.76179688 0.73242188 -17.68179688 0.73242188 -25.84179688 0.73242188 C-25.84179688 0.40242187 -25.84179688 0.07242188 -25.84179688 -0.26757812 C-21.90550555 -0.52215082 -17.96802819 -0.74187045 -14.02929688 -0.95507812 C-12.90974609 -1.02791016 -11.79019531 -1.10074219 -10.63671875 -1.17578125 C-9.56357422 -1.23056641 -8.49042969 -1.28535156 -7.38476562 -1.34179688 C-6.39500732 -1.39940186 -5.40524902 -1.45700684 -4.38549805 -1.51635742 C-1.84179688 -1.26757812 -1.84179688 -1.26757812 0 0 Z " fill="#DCC26B" transform="translate(153.841796875,214.267578125)"/>
<path d="M0 0 C0.66 0.33 1.32 0.66 2 1 C1.67 1.66 1.34 2.32 1 3 C2.98 3 4.96 3 7 3 C7 3.33 7 3.66 7 4 C5.3603125 4.37125 5.3603125 4.37125 3.6875 4.75 C-0.12521564 6.04244598 -1.20647966 6.51259934 -3 10 C-3.71433121 12.64934822 -3.71433121 12.64934822 -4 15 C-4.33 15 -4.66 15 -5 15 C-4.9278125 14.31292969 -4.855625 13.62585938 -4.78125 12.91796875 C-4.6884375 12.01691406 -4.595625 11.11585938 -4.5 10.1875 C-4.4071875 9.29417969 -4.314375 8.40085937 -4.21875 7.48046875 C-3.95607599 4.91694901 -3.95607599 4.91694901 -4 2 C-2.125 0.9375 -2.125 0.9375 0 0 Z " fill="#CECECE" transform="translate(331,261)"/>
<path d="M0 0 C3.63 0.33 7.26 0.66 11 1 C11.33 1.99 11.66 2.98 12 4 C8.32589215 5.17571451 4.83070817 5.07366746 1 5 C0.67 3.35 0.34 1.7 0 0 Z " fill="#E0E0E0" transform="translate(384,279)"/>
<path d="M0 0 C0.66 0 1.32 0 2 0 C2.66 0.99 3.32 1.98 4 3 C6.05003955 4.19232613 6.05003955 4.19232613 8 5 C7.01 5.33 6.02 5.66 5 6 C3.79117904 8.00016466 3.79117904 8.00016466 3 10 C2.01 9.34 1.02 8.68 0 8 C-0.40843923 5.28796348 -0.13336867 2.7562858 0 0 Z " fill="#E8E9E7" transform="translate(142,274)"/>
<path d="M0 0 C0.33 0 0.66 0 1 0 C1.34907695 3.75257718 1.27011863 5.56588078 -0.75 8.8125 C-2.96538462 10.96634616 -3.98673462 11.67715014 -7 12 C-7.33 11.34 -7.66 10.68 -8 10 C-6.11192137 7.30274481 -4.80175356 5.86783571 -2 4 C-1.34 4 -0.68 4 0 4 C0 2.68 0 1.36 0 0 Z " fill="#D0D0D0" transform="translate(154,272)"/>
<path d="M0 0 C0.33 0 0.66 0 1 0 C1.94870788 6.85988773 1.94870788 13.14011227 1 20 C0.34 20 -0.32 20 -1 20 C-1.02888514 16.85418577 -1.04675923 13.70840531 -1.0625 10.5625 C-1.07087891 9.66466797 -1.07925781 8.76683594 -1.08789062 7.84179688 C-1.09111328 6.98779297 -1.09433594 6.13378906 -1.09765625 5.25390625 C-1.10551147 4.06776733 -1.10551147 4.06776733 -1.11352539 2.85766602 C-1 1 -1 1 0 0 Z " fill="#F8F8F8" transform="translate(311,264)"/>
<path d="M0 0 C3.63 0 7.26 0 11 0 C11 1.32 11 2.64 11 4 C7.7 4.33 4.4 4.66 1 5 C1 4.34 1 3.68 1 3 C1.99 2.67 2.98 2.34 4 2 C2.68 1.34 1.36 0.68 0 0 Z " fill="#CACACA" transform="translate(237,280)"/>
<path d="M0 0 C0.66 0.33 1.32 0.66 2 1 C2 4.63 2 8.26 2 12 C-1 11 -1 11 -2.375 8.8125 C-3.22325222 4.99536501 -1.97380825 3.26437518 0 0 Z " fill="#F6F6F6" transform="translate(202,265)"/>
<path d="M0 0 C0.99 0.33 1.98 0.66 3 1 C3.33 4.63 3.66 8.26 4 12 C3.01 12.66 2.02 13.32 1 14 C0 13 0 13 -0.09765625 10.05859375 C-0.08605469 8.86363281 -0.07445312 7.66867187 -0.0625 6.4375 C-0.05347656 5.23996094 -0.04445313 4.04242188 -0.03515625 2.80859375 C-0.02355469 1.88175781 -0.01195312 0.95492188 0 0 Z " fill="#ECECEC" transform="translate(290,272)"/>
<path d="M0 0 C0.33 0 0.66 0 1 0 C1.04898437 0.92683594 1.09796875 1.85367187 1.1484375 2.80859375 C1.22320312 4.00613281 1.29796875 5.20367187 1.375 6.4375 C1.47941406 8.22994141 1.47941406 8.22994141 1.5859375 10.05859375 C1.72257812 11.02925781 1.85921875 11.99992187 2 13 C2.66 13.33 3.32 13.66 4 14 C4 14.66 4 15.32 4 16 C4.66 16.33 5.32 16.66 6 17 C3.36 17 0.72 17 -2 17 C-2.33 16.01 -2.66 15.02 -3 14 C-2.34 13.67 -1.68 13.34 -1 13 C-0.53045739 9.95418731 -0.53045739 9.95418731 -0.375 6.4375 C-0.30023438 5.23996094 -0.22546875 4.04242188 -0.1484375 2.80859375 C-0.09945313 1.88175781 -0.05046875 0.95492188 0 0 Z " fill="#B1B1B1" transform="translate(259,266)"/>
<path d="M0 0 C0 0.99 0 1.98 0 3 C0.99 3.66 1.98 4.32 3 5 C1.58480285 7.0343459 0.45017877 7.90410393 -1.98046875 8.421875 C-3.98176954 8.66273952 -5.9909944 8.83532741 -8 9 C-7.01 8.67 -6.02 8.34 -5 8 C-5 6.68 -5 5.36 -5 4 C-2.5 1.75 -2.5 1.75 0 0 Z " fill="#C5C5C5" transform="translate(219,276)"/>
<path d="M0 0 C0.99 0.33 1.98 0.66 3 1 C3 6.28 3 11.56 3 17 C2.67 17 2.34 17 2 17 C1.67 12.38 1.34 7.76 1 3 C0.67 6.96 0.34 10.92 0 15 C-0.33 15 -0.66 15 -1 15 C-1.02685412 12.68756208 -1.04632841 10.3750373 -1.0625 8.0625 C-1.07410156 6.77472656 -1.08570313 5.48695313 -1.09765625 4.16015625 C-1 1 -1 1 0 0 Z " fill="#B9B9B9" transform="translate(271,261)"/>
<path d="M0 0 C0.66 0 1.32 0 2 0 C3.35439668 2.70879335 3.06501451 5.00933268 3 8 C3.66 8.33 4.32 8.66 5 9 C3.68 9.33 2.36 9.66 1 10 C1 9.34 1 8.68 1 8 C0.34 8 -0.32 8 -1 8 C-1.125 2.25 -1.125 2.25 0 0 Z " fill="#EDEDED" transform="translate(178,263)"/>
<path d="M0 0 C0.33 0 0.66 0 1 0 C1 4.95 1 9.9 1 15 C0.01 15.33 -0.98 15.66 -2 16 C-1.85975781 13.52039864 -1.7130815 11.04147598 -1.5625 8.5625 C-1.52318359 7.85544922 -1.48386719 7.14839844 -1.44335938 6.41992188 C-1.11328125 1.11328125 -1.11328125 1.11328125 0 0 Z " fill="#FAFAFA" transform="translate(272,263)"/>
<path d="M0 0 C3.63 0 7.26 0 11 0 C11 0.66 11 1.32 11 2 C9.68 2.33 8.36 2.66 7 3 C8.32 3.66 9.64 4.32 11 5 C9.54052295 4.93993922 8.08220728 4.8511311 6.625 4.75 C5.81289063 4.70359375 5.00078125 4.6571875 4.1640625 4.609375 C3.44992187 4.40828125 2.73578125 4.2071875 2 4 C1.34 2.68 0.68 1.36 0 0 Z " fill="#D3D3D3" transform="translate(327,280)"/>
<path d="M0 0 C2.97 0.495 2.97 0.495 6 1 C6 2.32 6 3.64 6 5 C5.34 5.66 4.68 6.32 4 7 C2 5.75 2 5.75 0 4 C0 2.68 0 1.36 0 0 Z " fill="#C0C0C0" transform="translate(392,271)"/>
<path d="M0 0 C2.92879371 0.62759865 5.36095629 1.58622659 8 3 C8 3.66 8 4.32 8 5 C6.35 5.66 4.7 6.32 3 7 C1.5 5.75 1.5 5.75 0 4 C0 2.68 0 1.36 0 0 Z " fill="#D3D3D3" transform="translate(363,270)"/>
<path d="M0 0 C1.32 0 2.64 0 4 0 C4 1.32 4 2.64 4 4 C3.01 4.495 3.01 4.495 2 5 C1.53045739 8.04581269 1.53045739 8.04581269 1.375 11.5625 C1.30023438 12.76003906 1.22546875 13.95757812 1.1484375 15.19140625 C1.09945313 16.11824219 1.05046875 17.04507812 1 18 C0.67 18 0.34 18 0 18 C0 12.06 0 6.12 0 0 Z " fill="#D1D1D1" transform="translate(255,261)"/>
<path d="M0 0 C2.64 0 5.28 0 8 0 C8 1.32 8 2.64 8 4 C5.03 3.67 2.06 3.34 -1 3 C-0.67 2.01 -0.34 1.02 0 0 Z " fill="#F2F2F2" transform="translate(333,261)"/>
<path d="M0 0 C0.66 0.33 1.32 0.66 2 1 C1.67 2.65 1.34 4.3 1 6 C-0.98 6 -2.96 6 -5 6 C-4.75 4.125 -4.75 4.125 -4 2 C-2.0625 0.6875 -2.0625 0.6875 0 0 Z " fill="#E0D6AB" transform="translate(126,245)"/>
<path d="M0 0 C2.97 0.99 5.94 1.98 9 3 C8.01 3.99 7.02 4.98 6 6 C2.8125 5.6875 2.8125 5.6875 0 5 C0 3.33333333 0 1.66666667 0 0 Z " fill="#D4D4D4" transform="translate(181,269)"/>
<path d="M0 0 C1.32 0 2.64 0 4 0 C4 0.66 4 1.32 4 2 C3.01 2 2.02 2 1 2 C1 2.99 1 3.98 1 5 C-1.31 5.33 -3.62 5.66 -6 6 C-6.33 5.34 -6.66 4.68 -7 4 C-5.35 4 -3.7 4 -2 4 C-1.34 2.68 -0.68 1.36 0 0 Z " fill="#EFEFEF" transform="translate(340,278)"/>
<path d="M0 0 C0.8125 1.6875 0.8125 1.6875 1 4 C-1.1875 6.8125 -1.1875 6.8125 -4 9 C-6.3125 8.8125 -6.3125 8.8125 -8 8 C-7.01 8 -6.02 8 -5 8 C-5 7.01 -5 6.02 -5 5 C-4.01 5 -3.02 5 -2 5 C-2 4.34 -2 3.68 -2 3 C-2.99 2.67 -3.98 2.34 -5 2 C-4.34 1.67 -3.68 1.34 -3 1 C-2.01 1.33 -1.02 1.66 0 2 C0 1.34 0 0.68 0 0 Z " fill="#B3B3B3" transform="translate(346,275)"/>
<path d="M0 0 C6.625 -0.125 6.625 -0.125 10 1 C10.33 1.99 10.66 2.98 11 4 C10.01 4.33 9.02 4.66 8 5 C7.67 4.34 7.34 3.68 7 3 C5.10466658 2.53476937 5.10466658 2.53476937 2.9375 2.375 C1.638125 2.25125 0.33875 2.1275 -1 2 C-0.67 1.34 -0.34 0.68 0 0 Z " fill="#F9F9F9" transform="translate(210,262)"/>
<path d="M0 0 C2.64 0.66 5.28 1.32 8 2 C8 2.66 8 3.32 8 4 C5.03 4 2.06 4 -1 4 C-0.67 2.68 -0.34 1.36 0 0 Z " fill="#EAEAEA" transform="translate(178,279)"/>
<path d="M0 0 C0.99 0 1.98 0 3 0 C3.66 2.31 4.32 4.62 5 7 C4.34 7 3.68 7 3 7 C3 7.66 3 8.32 3 9 C2.01 9 1.02 9 0 9 C0.185625 7.88625 0.37125 6.7725 0.5625 5.625 C1.31680657 2.17431139 1.31680657 2.17431139 0 0 Z " fill="#F6F6F6" transform="translate(343,268)"/>
<path d="M0 0 C0.99 0.33 1.98 0.66 3 1 C2.34 3.97 1.68 6.94 1 10 C0.34 10 -0.32 10 -1 10 C-1.125 2.25 -1.125 2.25 0 0 Z " fill="#F3F3F3" transform="translate(325,265)"/>
<path d="M0 0 C1.23556641 0.01740234 1.23556641 0.01740234 2.49609375 0.03515625 C3.32238281 0.04417969 4.14867187 0.05320312 5 0.0625 C5.63808594 0.07410156 6.27617187 0.08570313 6.93359375 0.09765625 C6.93359375 0.42765625 6.93359375 0.75765625 6.93359375 1.09765625 C4.62359375 1.09765625 2.31359375 1.09765625 -0.06640625 1.09765625 C-0.06640625 1.75765625 -0.06640625 2.41765625 -0.06640625 3.09765625 C0.59359375 3.42765625 1.25359375 3.75765625 1.93359375 4.09765625 C-0.04640625 5.08765625 -0.04640625 5.08765625 -2.06640625 6.09765625 C-2.44859392 4.44150968 -2.78035727 2.77308601 -3.06640625 1.09765625 C-2.06640625 0.09765625 -2.06640625 0.09765625 0 0 Z " fill="#CCCCCC" transform="translate(183.06640625,260.90234375)"/>
<path d="M0 0 C5.61 0 11.22 0 17 0 C17 0.33 17 0.66 17 1 C15.94039063 1.04898437 14.88078125 1.09796875 13.7890625 1.1484375 C12.40101503 1.22346709 11.01299549 1.29901485 9.625 1.375 C8.57699219 1.42140625 8.57699219 1.42140625 7.5078125 1.46875 C3.29814173 1.59499498 3.29814173 1.59499498 0 4 C0 2.68 0 1.36 0 0 Z " fill="#B1B1B1" transform="translate(282,261)"/>
<path d="M0 0 C2 2 2 2 2.1953125 3.9453125 C2.13020833 5.96354167 2.06510417 7.98177083 2 10 C0.4375 8.9375 0.4375 8.9375 -1 7 C-0.6875 3.3125 -0.6875 3.3125 0 0 Z " fill="#DADADC" transform="translate(140,271)"/>
<path d="M0 0 C2.475 0.495 2.475 0.495 5 1 C5 1.66 5 2.32 5 3 C5.66 3.33 6.32 3.66 7 4 C4.69 4 2.38 4 0 4 C0 2.68 0 1.36 0 0 Z " fill="#EBEBEB" transform="translate(384,279)"/>
<path d="M0 0 C2.31 0.66 4.62 1.32 7 2 C5.68 2.33 4.36 2.66 3 3 C3 3.66 3 4.32 3 5 C1.68 4.34 0.36 3.68 -1 3 C-0.67 2.01 -0.34 1.02 0 0 Z " fill="#F9F9F9" transform="translate(235,280)"/>
<path d="M0 0 C2.97 0 5.94 0 9 0 C9.66 1.32 10.32 2.64 11 4 C9.68 3.67 8.36 3.34 7 3 C7 2.34 7 1.68 7 1 C4.69 1 2.38 1 0 1 C0 0.67 0 0.34 0 0 Z " fill="#D3BC68" transform="translate(114,269)"/>
<path d="M0 0 C0.66 0.33 1.32 0.66 2 1 C2 2.65 2 4.3 2 6 C0.68 6 -0.64 6 -2 6 C-1.34 4.02 -0.68 2.04 0 0 Z " fill="#EAEAEA" transform="translate(202,265)"/>
<path d="M0 0 C0.66 0 1.32 0 2 0 C2 0.66 2 1.32 2 2 C3.32 2.33 4.64 2.66 6 3 C6 4.65 6 6.3 6 8 C1.125 3.375 1.125 3.375 0 0 Z " fill="#BEBEBE" transform="translate(296,233)"/>
</svg>
