<?xml version="1.0" encoding="UTF-8"?>
<svg version="1.1" xmlns="http://www.w3.org/2000/svg" width="500" height="500">
<path d="M0 0 C1.10800209 0.00213753 1.10800209 0.00213753 2.23838806 0.00431824 C3.07588089 0.00124161 3.91337372 -0.00183502 4.77624512 -0.00500488 C5.68148422 0.00218063 6.58672333 0.00936615 7.51939392 0.01676941 C8.44642624 0.01722763 9.37345856 0.01768585 10.32858276 0.01815796 C12.28974181 0.02118162 14.25089842 0.02907131 16.21202087 0.04142761 C19.22537169 0.05968444 22.23841545 0.06193734 25.2518158 0.06169128 C27.15351118 0.06660631 29.05520447 0.07243456 30.95689392 0.07926941 C31.86415726 0.08038223 32.77142059 0.08149506 33.70617676 0.0826416 C40.0556932 0.13119368 40.0556932 0.13119368 41.17173767 1.24723816 C40.73717301 9.03531851 38.82875437 16.47972475 36.89805603 24.00602722 C36.35599578 26.1349707 35.83699635 28.26876735 35.31822205 30.40348816 C34.97261267 31.7658222 34.62565558 33.1278152 34.27720642 34.48942566 C33.96936218 35.71516296 33.66151794 36.94090027 33.34434509 38.20378113 C32.02481152 41.62857927 31.49586744 42.72989133 28.17173767 44.24723816 C25.23130625 44.51634302 22.5101778 44.62061252 19.57408142 44.57536316 C18.32806908 44.57255341 18.32806908 44.57255341 17.05688477 44.56968689 C15.30435663 44.56297589 13.55184323 44.54908026 11.79942322 44.52848816 C9.11544385 44.49731025 6.43205215 44.48751291 3.74790955 44.48161316 C2.04412634 44.47244351 0.3403491 44.46206786 -1.36341858 44.45036316 C-2.16659012 44.44611328 -2.96976166 44.4418634 -3.79727173 44.43748474 C-7.05542411 44.3956165 -9.7164259 44.28451697 -12.82826233 43.24723816 C-14.33461667 38.48034609 -13.14601165 34.59596567 -11.80873108 29.95426941 C-11.59009903 29.16702988 -11.37146698 28.37979034 -11.14620972 27.56869507 C-10.68313711 25.91065676 -10.21465044 24.25412219 -9.74110413 22.5990448 C-9.0162851 20.06156831 -8.31068019 17.51931789 -7.6075592 14.97575378 C-7.15490873 13.36410911 -6.70116998 11.7527696 -6.24623108 10.14176941 C-6.0346788 9.3803212 -5.82312653 8.61887299 -5.60516357 7.83435059 C-3.48022852 0.47063558 -3.48022852 0.47063558 0 0 Z " fill="#427096" transform="translate(71.82826232910156,203.7527618408203)"/>
<path d="M0 0 C1.80597656 0.02513672 1.80597656 0.02513672 3.6484375 0.05078125 C13.51924339 0.31627189 23.38556522 0.75062986 33.25 1.1875 C33.6310184 7.47430354 32.23351987 12.7942521 30.5 18.8125 C30.22704102 19.78147217 29.95408203 20.75044434 29.67285156 21.7487793 C28.87522568 24.56466173 28.06397046 27.37630634 27.25 30.1875 C27.03730469 30.93692871 26.82460937 31.68635742 26.60546875 32.45849609 C24.33806708 40.4426035 24.33806708 40.4426035 23.25 43.1875 C19.82246776 44.90126612 15.89203256 44.3289536 12.12109375 44.3203125 C11.21625748 44.32126923 10.3114212 44.32222595 9.37916565 44.32321167 C7.46509736 44.32389273 5.55102676 44.32204361 3.63696289 44.31787109 C0.69607396 44.31251561 -2.24466267 44.31782178 -5.18554688 44.32421875 C-7.04166701 44.32355808 -8.89778704 44.32227714 -10.75390625 44.3203125 C-12.08199059 44.32334885 -12.08199059 44.32334885 -13.43690491 44.32644653 C-19.63504592 44.30245408 -19.63504592 44.30245408 -20.75 43.1875 C-20.74898833 35.49374126 -18.55231705 28.2851076 -16.3125 21 C-15.99990234 19.95908203 -15.68730469 18.91816406 -15.36523438 17.84570312 C-14.76387541 15.84329218 -14.15442114 13.84328873 -13.53564453 11.84619141 C-12.87048748 9.5952404 -12.34600118 7.36347112 -11.83984375 5.07421875 C-10.75 2.1875 -10.75 2.1875 -8.484375 0.76171875 C-5.55253324 0.14603198 -2.99812747 -0.04185203 0 0 Z " fill="#D7C766" transform="translate(94.75,251.8125)"/>
<path d="M0 0 C1.65 0.33 3.3 0.66 5 1 C8.3 11.56 11.6 22.12 15 33 C18.3 22.44 21.6 11.88 25 1 C26.98 0.67 28.96 0.34 31 0 C34.0723688 6.60026232 36.08772966 13.47750176 38.1875 20.4375 C38.55552734 21.64599609 38.92355469 22.85449219 39.30273438 24.09960938 C40.20535235 27.06535416 41.10432811 30.03215155 42 33 C43.10677208 29.70920375 44.20992234 26.41720372 45.3125 23.125 C45.62123047 22.2071875 45.92996094 21.289375 46.24804688 20.34375 C48.06058762 14.92520715 49.75834578 9.5002392 51.27807617 3.99169922 C52 2 52 2 54 0 C56.125 0.375 56.125 0.375 58 1 C58.99372829 4.08497922 59.00278598 5.85629176 57.9519043 8.91064453 C57.69801437 9.6646756 57.44412445 10.41870667 57.18254089 11.19558716 C56.89929459 11.99987152 56.61604828 12.80415588 56.32421875 13.6328125 C56.03899857 14.46585907 55.75377838 15.29890564 55.45991516 16.15719604 C54.85535066 17.91562007 54.24561696 19.67227415 53.63110352 21.42724609 C52.68999042 24.11787992 51.76662575 26.81411631 50.84570312 29.51171875 C50.25624805 31.2191093 49.66578722 32.92615303 49.07421875 34.6328125 C48.65845833 35.84531174 48.65845833 35.84531174 48.23429871 37.08230591 C46.2317217 42.7682783 46.2317217 42.7682783 44 45 C41.5625 45.0625 41.5625 45.0625 39 44 C36.05619541 38.12847719 34.26226531 31.81884506 32.3125 25.5625 C31.99216797 24.54478516 31.67183594 23.52707031 31.34179688 22.47851562 C30.55797635 19.98666828 29.77746904 17.49383484 29 15 C26.02294921 22.21179629 23.46003269 29.47666562 21.11328125 36.9140625 C20.86707031 37.67460937 20.62085938 38.43515625 20.3671875 39.21875 C20.15175293 39.89873047 19.93631836 40.57871094 19.71435547 41.27929688 C19 43 19 43 17 45 C14.625 45.1875 14.625 45.1875 12 44 C7.77075797 37.04477057 5.71742119 28.50008427 3.25 20.8125 C2.83878906 19.56791016 2.42757813 18.32332031 2.00390625 17.04101562 C1.61589844 15.83767578 1.22789062 14.63433594 0.828125 13.39453125 C0.4765332 12.31018799 0.12494141 11.22584473 -0.23730469 10.10864258 C-1.01664369 6.93216256 -1.21620059 4.25704398 -1 1 C-0.67 0.67 -0.34 0.34 0 0 Z " fill="#FCFCFC" transform="translate(380,210)"/>
<path d="M0 0 C3.55462592 0.53360895 4.30803854 1.81752091 6.42993164 4.66967773 C7.11587402 5.58346191 7.80181641 6.49724609 8.50854492 7.4387207 C11.92531184 12.23297334 15.27402526 17.06393589 18.55102539 21.95483398 C19.87178805 23.91504369 21.19335692 25.8747105 22.51586914 27.83374023 C23.08813232 28.68653564 23.66039551 29.53933105 24.25 30.41796875 C25.46469051 32.3035032 25.46469051 32.3035032 26.61352539 33.39233398 C26.94352539 22.83233398 27.27352539 12.27233398 27.61352539 1.39233398 C29.26352539 1.06233398 30.91352539 0.73233398 32.61352539 0.39233398 C34.78075078 2.55955938 33.80253906 7.59469246 33.81665039 10.60717773 C33.82235046 11.53325333 33.82805054 12.45932892 33.83392334 13.41346741 C33.8433879 15.37638196 33.84991308 17.3393125 33.85375977 19.30224609 C33.86347327 22.31367522 33.89448604 25.32442439 33.92602539 28.33569336 C33.93255424 30.23868408 33.93780518 32.1416797 33.94165039 34.04467773 C33.95399719 34.94991684 33.96634399 35.85515594 33.97906494 36.78782654 C33.97606384 37.62531937 33.97306274 38.46281219 33.9699707 39.32568359 C33.97543915 40.43368568 33.97543915 40.43368568 33.98101807 41.56407166 C33.61352539 43.39233398 33.61352539 43.39233398 30.61352539 45.39233398 C27.56881022 45.22687988 26.09299502 44.84963704 23.87084961 42.73022461 C23.35022949 42.0102832 22.82960938 41.2903418 22.29321289 40.54858398 C21.40134277 39.32848633 21.40134277 39.32848633 20.49145508 38.08374023 C19.87173828 37.19557617 19.25202148 36.30741211 18.61352539 35.39233398 C17.97060547 34.47323242 17.32768555 33.55413086 16.6652832 32.60717773 C14.6695477 29.71537764 12.70002528 26.80744845 10.73852539 23.89233398 C9.40869961 21.92297367 8.07801863 19.95419046 6.74633789 17.98608398 C5.878396 16.69734375 5.878396 16.69734375 4.99291992 15.38256836 C3.76463894 13.48399055 3.76463894 13.48399055 2.61352539 12.39233398 C2.28352539 22.95233398 1.95352539 33.51233398 1.61352539 44.39233398 C-0.86147461 44.88733398 -0.86147461 44.88733398 -3.38647461 45.39233398 C-5.55132973 43.22747887 -4.55075265 38.1864513 -4.55444336 35.17749023 C-4.55777176 34.25141464 -4.56110016 33.32533905 -4.56452942 32.37120056 C-4.56960269 30.4082794 -4.57193762 28.44534958 -4.57177734 26.48242188 C-4.57396278 23.47112888 -4.59211135 20.46020265 -4.61108398 17.44897461 C-4.61401797 15.54598108 -4.61600273 13.6429858 -4.61694336 11.73999023 C-4.62412888 10.83475113 -4.63131439 9.92951202 -4.63871765 8.99684143 C-4.63564102 8.1593486 -4.63256439 7.32185577 -4.62939453 6.45898438 C-4.63081955 5.72031631 -4.63224457 4.98164825 -4.63371277 4.22059631 C-4.22283492 1.18226078 -2.89645376 0.47617403 0 0 Z " fill="#FDFDFD" transform="translate(287.386474609375,209.607666015625)"/>
<path d="M0 0 C0.74958984 0.00451172 1.49917969 0.00902344 2.27148438 0.01367188 C4.11852383 0.02543646 5.96552213 0.04337135 7.8125 0.0625 C7.8125 0.7225 7.8125 1.3825 7.8125 2.0625 C9.1325 2.0625 10.4525 2.0625 11.8125 2.0625 C17.93109727 7.87129488 20.82702895 14.09431062 21.125 22.4375 C20.96657389 28.59110363 20.25238975 33.3902398 16.0078125 38.0390625 C9.60245907 43.91265074 4.48317633 45.551873 -4.18359375 45.37109375 C-11.24599295 44.64556769 -15.52393188 41.28316441 -19.9609375 35.94140625 C-24.01598379 29.72969521 -23.98972077 23.25741755 -23.1875 16.0625 C-21.02407847 8.9058243 -17.61136333 4.75027339 -11.1875 1.0625 C-7.42449626 -0.19183458 -3.91539091 -0.04445422 0 0 Z M-12.1875 10.0625 C-12.765 10.495625 -13.3425 10.92875 -13.9375 11.375 C-17.40556679 16.05689016 -17.53160913 21.38538754 -16.73046875 26.91796875 C-15.47627021 31.87160182 -12.48269937 35.42995845 -8.1875 38.0625 C-3.28222524 39.69759159 0.58981827 39.45624496 5.5 37.875 C9.70839193 35.57229498 11.88734733 33.56951992 13.56640625 29.01953125 C15.03652235 23.64759756 15.10193907 19.19213942 12.8125 14.0625 C10.89667273 10.93192717 8.72577161 8.62061043 5.5625 6.6875 C-1.48633993 5.08549092 -6.44016447 5.27305372 -12.1875 10.0625 Z " fill="#FCFCFC" transform="translate(353.1875,209.9375)"/>
<path d="M0 0 C1.57421875 1.265625 1.57421875 1.265625 2.4296875 3.28125 C2.47738281 3.93609375 2.52507812 4.5909375 2.57421875 5.265625 C1.91421875 5.925625 1.25421875 6.585625 0.57421875 7.265625 C-2.23264797 6.95375092 -4.59641315 6.20116406 -7.23828125 5.203125 C-12.41766219 3.67977767 -16.58494627 3.59301222 -21.67578125 5.453125 C-25.66139279 8.08000533 -27.91558656 10.73504092 -29.42578125 15.265625 C-29.99008989 20.96297189 -29.71164503 25.39348216 -26.42578125 30.265625 C-22.27603003 34.20256847 -19.6327753 35.14301422 -14.05078125 35.453125 C-10.46379075 35.26759101 -7.75493708 34.56480776 -4.42578125 33.265625 C-3.93078125 28.315625 -3.93078125 28.315625 -3.42578125 23.265625 C-4.19664062 23.28882813 -4.9675 23.31203125 -5.76171875 23.3359375 C-6.76460937 23.35398438 -7.7675 23.37203125 -8.80078125 23.390625 C-9.79851562 23.41382813 -10.79625 23.43703125 -11.82421875 23.4609375 C-14.42578125 23.265625 -14.42578125 23.265625 -16.42578125 21.265625 C-16.05078125 19.140625 -16.05078125 19.140625 -15.42578125 17.265625 C-12.80050936 17.21180394 -10.17633412 17.17204187 -7.55078125 17.140625 C-6.80441406 17.12386719 -6.05804688 17.10710937 -5.2890625 17.08984375 C-3.33383664 17.0722291 -1.37836104 17.16242311 0.57421875 17.265625 C3.18464087 19.87604712 2.86268663 21.77683685 2.89648438 25.33789062 C2.89326172 26.11841797 2.89003906 26.89894531 2.88671875 27.703125 C2.90283203 28.47978516 2.91894531 29.25644531 2.93554688 30.05664062 C2.94049902 35.8060824 2.94049902 35.8060824 1.26635742 37.90649414 C-4.99028725 42.93184992 -12.78196266 43.04474701 -20.42578125 42.265625 C-25.69468596 40.94360891 -30.51691436 38.09357595 -33.5859375 33.546875 C-37.48793279 26.49810931 -38.33080161 19.26220874 -36.2734375 11.46875 C-34.21469949 6.11792863 -30.83762368 1.7696488 -25.92578125 -1.234375 C-17.70317945 -4.7696203 -7.93671309 -3.69695323 0 0 Z " fill="#FCFCFC" transform="translate(252.42578125,212.734375)"/>
<path d="M0 0 C6.0514546 2.49520479 9.47636333 7.31746702 12.75 12.8125 C15.04849886 18.55874716 14.19108276 25.20675177 11.86328125 30.7890625 C8.72203074 36.49842308 4.97349784 40.72136435 -1.25 42.8125 C-3.82128906 43.05541992 -3.82128906 43.05541992 -6.515625 43.04296875 C-7.48757812 43.04103516 -8.45953125 43.03910156 -9.4609375 43.03710938 C-10.96527344 43.01874023 -10.96527344 43.01874023 -12.5 43 C-13.51835937 42.99935547 -14.53671875 42.99871094 -15.5859375 42.99804688 C-23.10959507 42.95290493 -23.10959507 42.95290493 -24.25 41.8125 C-24.33874135 38.70998799 -24.36518455 35.6298188 -24.34765625 32.52734375 C-24.3462413 31.59652481 -24.34482635 30.66570587 -24.34336853 29.7066803 C-24.33775172 26.72108809 -24.3251964 23.73556971 -24.3125 20.75 C-24.30748716 18.73112087 -24.30292388 16.71224057 -24.29882812 14.69335938 C-24.28777683 9.73304428 -24.27050095 4.77278468 -24.25 -0.1875 C-18.18763038 -3.21868481 -6.39037937 -1.92036867 0 0 Z M-18.25 6.8125 C-18.66833778 9.91889555 -18.66833778 9.91889555 -18.54296875 13.5703125 C-18.53872391 14.23336395 -18.53447906 14.89641541 -18.53010559 15.57955933 C-18.51329971 17.69928441 -18.47564701 19.81806188 -18.4375 21.9375 C-18.42245549 23.37368419 -18.40876668 24.80988328 -18.39648438 26.24609375 C-18.3633909 29.76853764 -18.3115968 33.29042636 -18.25 36.8125 C-16.04229195 36.89415496 -13.83369575 36.95198488 -11.625 37 C-9.78035156 37.05220703 -9.78035156 37.05220703 -7.8984375 37.10546875 C-2.66132727 36.68492992 0.55288878 35.13902864 4.0625 31.25 C7.49703682 26.28900237 7.3444881 21.7322618 6.75 15.8125 C4.44129433 10.92869954 1.60771737 8.15461373 -3.25 5.8125 C-11.1023655 4.23434892 -11.1023655 4.23434892 -18.25 6.8125 Z " fill="#FCFCFC" transform="translate(178.25,211.1875)"/>
<path d="M0 0 C0.96679688 0.00128906 1.93359375 0.00257813 2.9296875 0.00390625 C10.09395995 0.09395995 10.09395995 0.09395995 12.375 2.375 C11.97349711 9.98811257 9.10017614 18.3172196 6.375 25.375 C3.94608818 26.58945591 2.36780557 26.50424198 -0.34375 26.5078125 C-1.27574219 26.50910156 -2.20773438 26.51039063 -3.16796875 26.51171875 C-4.14378906 26.50785156 -5.11960937 26.50398438 -6.125 26.5 C-7.58873047 26.50580078 -7.58873047 26.50580078 -9.08203125 26.51171875 C-10.48001953 26.50978516 -10.48001953 26.50978516 -11.90625 26.5078125 C-12.76283203 26.50668457 -13.61941406 26.50555664 -14.50195312 26.50439453 C-16.625 26.375 -16.625 26.375 -18.625 25.375 C-18.12919964 17.49348391 -17.46429367 8.89940293 -13.18359375 2.078125 C-9.05650543 -0.66906661 -4.83577588 -0.12349428 0 0 Z " fill="#96A17C" transform="translate(68.625,251.625)"/>
<path d="M0 0 C2.33837891 -0.2487793 2.33837891 -0.2487793 5.2265625 -0.07421875 C6.2578125 -0.01943359 7.2890625 0.03535156 8.3515625 0.09179688 C9.97191406 0.20104492 9.97191406 0.20104492 11.625 0.3125 C12.71296875 0.37373047 13.8009375 0.43496094 14.921875 0.49804688 C17.61569749 0.65164202 20.30786572 0.81953408 23 1 C24.72406066 8.52165284 22.23524207 15.631158 19.625 22.75 C18 25 18 25 16.0078125 25.6640625 C11.72026457 26.14293149 7.54859898 25.88278705 3.25 25.625 C2.37472656 25.58117187 1.49945313 25.53734375 0.59765625 25.4921875 C-5.86872691 25.13127309 -5.86872691 25.13127309 -7 24 C-6.5313422 15.8765981 -4.53693576 6.80540363 0 0 Z " fill="#7E9283" transform="translate(113,222)"/>
<path d="M0 0 C2.3125 0.125 2.3125 0.125 5 1 C8.09013049 4.50805798 10.62543428 8.34681545 13.1875 12.25 C15.3728168 15.7967993 15.3728168 15.7967993 18 19 C19.50461417 15.99077166 19.33304718 12.80813928 19.5 9.5 C19.86486486 2.27027027 19.86486486 2.27027027 21 0 C22.32 0.33 23.64 0.66 25 1 C25.2000026 4.14516565 25.38264359 7.29112312 25.5625 10.4375 C25.61857422 11.31599609 25.67464844 12.19449219 25.73242188 13.09960938 C26.05235124 18.87966658 25.78786247 24.26319401 25 30 C22.6875 30.6875 22.6875 30.6875 20 31 C16.76167374 28.4792574 14.62298357 24.78714843 12.3125 21.4375 C11.89677734 20.84775391 11.48105469 20.25800781 11.05273438 19.65039062 C8 15.24422722 8 15.24422722 8 13 C7.01 12.67 6.02 12.34 5 12 C4.67 11.01 4.34 10.02 4 9 C4 15.93 4 22.86 4 30 C2.68 30.33 1.36 30.66 0 31 C-1.85714057 29.14285943 -1.13048681 26.07492951 -1.1328125 23.59375 C-1.13410156 22.29308594 -1.13539063 20.99242187 -1.13671875 19.65234375 C-1.13462402 18.97155762 -1.1325293 18.29077148 -1.13037109 17.58935547 C-1.1250224 15.50871485 -1.1303168 13.42829011 -1.13671875 11.34765625 C-1.13542969 10.04699219 -1.13414062 8.74632812 -1.1328125 7.40625 C-1.13168457 6.20291016 -1.13055664 4.99957031 -1.12939453 3.75976562 C-1 1 -1 1 0 0 Z " fill="#F3DA6B" transform="translate(343,268)"/>
<path d="M0 0 C4.85940247 2.3397123 7.55829963 5.20703262 10 10 C11.37863273 14.79408415 11.48341031 18.71562203 9.4375 23.3125 C7.26696488 27.04403641 4.92081257 29.07803305 1 31 C-4.25012335 32.33639503 -7.98160088 32.04453297 -13 30 C-17.25685902 26.49991591 -19.64371466 23.42924644 -20.21875 17.89453125 C-20.42183972 12.84267436 -19.89939094 9.29909691 -17 5 C-11.44369588 -0.01422567 -7.35941428 -0.80387448 0 0 Z M-13 7 C-15.44895717 10.89606822 -15.76160235 15.51198616 -15 20 C-13.20636089 22.8100346 -11.98119065 24.50940468 -9 26 C-5.9171447 26.47847852 -3.07652779 26.5463489 0 26 C3.15840511 23.42171012 4.60779542 21.95340729 5.40234375 17.99609375 C5.61441188 13.52569752 4.83743612 10.42449187 2 7 C-3.43376433 2.95950858 -7.36763004 3.44915807 -13 7 Z " fill="#EFD869" transform="translate(326,268)"/>
<path d="M0 0 C3.99280807 2.10684341 6.01608975 4.2838224 7.9609375 8.28125 C8.80104357 13.42608562 9.2248088 18.90851049 6.71875 23.61328125 C3.92116003 26.91889129 0.91254075 30.01776824 -3.52734375 30.6171875 C-8.02220797 30.67935713 -11.3126297 30.59823886 -15.4765625 28.78125 C-19.71453648 24.64664124 -21.75446282 20.59870457 -22.4765625 14.71875 C-21.80012713 9.40390066 -20.46214852 5.63318172 -16.5390625 1.90625 C-11.57534913 -1.32016369 -5.62105245 -1.98136715 0 0 Z M-15.8515625 7.90625 C-17.71317571 11.62947642 -17.7144867 15.20691692 -17.0390625 19.28125 C-15.24512582 22.15154869 -14.05642974 23.77256638 -11.0390625 25.28125 C-6.32738864 25.92922087 -3.06142714 25.96282643 0.9609375 23.28125 C3.44239264 19.55906729 4.39272451 16.75151549 3.9609375 12.28125 C2.69906863 8.50302274 0.9869069 5.8711824 -2.5390625 3.84375 C-8.42913656 2.51848334 -11.52298739 4.02545852 -15.8515625 7.90625 Z " fill="#ECD572" transform="translate(200.0390625,268.71875)"/>
<path d="M0 0 C2.33984375 1.0234375 2.33984375 1.0234375 4 2 C4 2.99 4 3.98 4 5 C3.18015625 4.98839844 2.3603125 4.97679687 1.515625 4.96484375 C0.43796875 4.95582031 -0.6396875 4.94679688 -1.75 4.9375 C-2.81734375 4.92589844 -3.8846875 4.91429687 -4.984375 4.90234375 C-7.53368501 4.98489913 -9.57933591 5.25382442 -12 6 C-11.46685251 8.47235021 -11.46685251 8.47235021 -10 11 C-7.03231525 12.50913526 -7.03231525 12.50913526 -3.5625 13.5 C2.53268928 15.40687486 2.53268928 15.40687486 4.9296875 18.44921875 C6.28662285 21.68308293 5.856209 23.6530012 5 27 C4.34 27 3.68 27 3 27 C3 27.66 3 28.32 3 29 C-0.62321021 31.41547347 -3.71731889 32.06634102 -8 32 C-11.16156827 31.3597452 -14.16629211 30.56256978 -17 29 C-17.33 28.01 -17.66 27.02 -18 26 C-17 25 -17 25 -13.83984375 24.90234375 C-12.55207031 24.91394531 -11.26429688 24.92554688 -9.9375 24.9375 C-8.64714844 24.94652344 -7.35679687 24.95554687 -6.02734375 24.96484375 C-5.02832031 24.97644531 -4.02929688 24.98804688 -3 25 C-1.88214887 22.88214887 -1.88214887 22.88214887 -1 20 C-1.80824219 19.76925781 -2.61648438 19.53851563 -3.44921875 19.30078125 C-14.06326889 16.06151142 -14.06326889 16.06151142 -18 11 C-17.2110117 7.2702371 -16.4518633 4.56847318 -14.0625 1.5625 C-9.50432005 -0.76310201 -5.02708047 -0.6443054 0 0 Z " fill="#EFD765" transform="translate(391,268)"/>
<path d="M0 0 C2.0625 0.4375 2.0625 0.4375 4 1 C4.01981934 1.65597168 4.03963867 2.31194336 4.06005859 2.98779297 C4.15512507 5.95061069 4.26487752 8.91270532 4.375 11.875 C4.4059375 12.90753906 4.436875 13.94007813 4.46875 15.00390625 C4.50742188 15.99003906 4.54609375 16.97617187 4.5859375 17.9921875 C4.6173584 18.90339355 4.6487793 19.81459961 4.68115234 20.75341797 C4.79882511 23.19931186 4.79882511 23.19931186 7 25 C12.11733593 25.67778207 12.11733593 25.67778207 16.59130859 23.78271484 C18.4194041 21.46923939 18.42300636 20.04079026 18.51171875 17.11328125 C18.54716797 16.17548828 18.58261719 15.23769531 18.61914062 14.27148438 C18.64169922 13.29501953 18.66425781 12.31855469 18.6875 11.3125 C18.72166016 10.32443359 18.75582031 9.33636719 18.79101562 8.31835938 C18.87350538 5.87901947 18.94265068 3.44003937 19 1 C20.9375 0.4375 20.9375 0.4375 23 0 C25.48710887 2.48710887 24.33062945 8.91414134 24.375 12.25 C24.41238281 13.30058594 24.44976562 14.35117187 24.48828125 15.43359375 C24.57723239 23.23164384 24.57723239 23.23164384 21.6640625 27.109375 C16.12873695 31.03767055 12.73777123 31.88258345 6 31 C2.35230191 28.87217612 0.57440364 26.86318807 -1 23 C-1.24291992 20.54223633 -1.24291992 20.54223633 -1.23046875 17.83203125 C-1.22853516 16.85685547 -1.22660156 15.88167969 -1.22460938 14.87695312 C-1.21236328 13.86568359 -1.20011719 12.85441406 -1.1875 11.8125 C-1.18685547 10.78962891 -1.18621094 9.76675781 -1.18554688 8.71289062 C-1.14032251 1.14032251 -1.14032251 1.14032251 0 0 Z " fill="#F6DA61" transform="translate(239,268)"/>
<path d="M0 0 C1.43472656 -0.02126953 1.43472656 -0.02126953 2.8984375 -0.04296875 C5.65510017 0.19004428 7.27447395 0.77829836 9.625 2.1875 C9.625 3.1775 9.625 4.1675 9.625 5.1875 C4.675 5.1875 -0.275 5.1875 -5.375 5.1875 C-5.705 6.8375 -6.035 8.4875 -6.375 10.1875 C-5.22 10.6 -4.065 11.0125 -2.875 11.4375 C8.97928101 15.89606202 8.97928101 15.89606202 10.625 19.1875 C11 22 11 22 10.625 25.1875 C8.07475635 28.28914769 6.44800753 29.91316416 2.625 31.1875 C0.81627624 31.33109334 -0.99832577 31.40796121 -2.8125 31.4375 C-3.75996094 31.46328125 -4.70742187 31.4890625 -5.68359375 31.515625 C-8.7652834 31.13991828 -10.09472555 30.2359735 -12.375 28.1875 C-11.88 26.7025 -11.88 26.7025 -11.375 25.1875 C-6.425 25.1875 -1.475 25.1875 3.625 25.1875 C4.285 23.5375 4.945 21.8875 5.625 20.1875 C4.90054688 20.01734375 4.17609375 19.8471875 3.4296875 19.671875 C-7.67393238 16.88856762 -7.67393238 16.88856762 -11.375 13.1875 C-12.11310217 10.36876336 -12.07094592 8.01188051 -11.375 5.1875 C-7.99584295 0.79459583 -5.37557917 0.03602935 0 0 Z " fill="#F0D76B" transform="translate(164.375,267.8125)"/>
<path d="M0 0 C4.875 0.875 4.875 0.875 6 2 C6.11355804 4.92197246 6.16418839 7.81940784 6.16796875 10.7421875 C6.17129715 11.62149933 6.17462555 12.50081116 6.17805481 13.4067688 C6.18312837 15.27133662 6.185463 17.13591356 6.18530273 19.00048828 C6.18748544 21.85594665 6.20562604 24.71101651 6.22460938 27.56640625 C6.22754394 29.37499867 6.22952831 31.18359294 6.23046875 32.9921875 C6.23765427 33.84851776 6.24483978 34.70484802 6.25224304 35.58712769 C6.24916641 36.38450348 6.24608978 37.18187927 6.24291992 38.00341797 C6.24434494 38.70433563 6.24576996 39.4052533 6.24723816 40.12741089 C6 42 6 42 4 45 C0.125 44.125 0.125 44.125 -1 43 C-1.10116109 39.99360697 -1.13968674 37.01066703 -1.1328125 34.00390625 C-1.13376923 33.1000267 -1.13472595 32.19614716 -1.13571167 31.26487732 C-1.1363936 29.34902884 -1.13453841 27.43317806 -1.13037109 25.51733398 C-1.12502919 22.57856058 -1.13031245 19.63994045 -1.13671875 16.70117188 C-1.13605785 14.84374966 -1.13477644 12.98632754 -1.1328125 11.12890625 C-1.13483673 10.24554092 -1.13686096 9.3621756 -1.13894653 8.45204163 C-1.11495408 2.22990815 -1.11495408 2.22990815 0 0 Z " fill="#FDFDFD" transform="translate(266,210)"/>
<path d="M0 0 C3.53571429 0.53571429 3.53571429 0.53571429 5 2 C5.11356724 5.0063825 5.16418912 7.98892442 5.16796875 10.99609375 C5.17129715 11.8999733 5.17462555 12.80385284 5.17805481 13.73512268 C5.18312796 15.65096527 5.18546302 17.56681672 5.18530273 19.48266602 C5.18748813 22.42153418 5.20563665 25.36002652 5.22460938 28.29882812 C5.22754337 30.15624871 5.22952813 32.01367109 5.23046875 33.87109375 C5.23765427 34.75445908 5.24483978 35.6378244 5.25224304 36.54795837 C5.22882139 42.77117861 5.22882139 42.77117861 3 45 C-0.53571429 44.46428571 -0.53571429 44.46428571 -2 43 C-2.11356724 39.9936175 -2.16418912 37.01107558 -2.16796875 34.00390625 C-2.17129715 33.1000267 -2.17462555 32.19614716 -2.17805481 31.26487732 C-2.18312796 29.34903473 -2.18546302 27.43318328 -2.18530273 25.51733398 C-2.18748813 22.57846582 -2.20563665 19.63997348 -2.22460938 16.70117188 C-2.22754337 14.84375129 -2.22952813 12.98632891 -2.23046875 11.12890625 C-2.23765427 10.24554092 -2.24483978 9.3621756 -2.25224304 8.45204163 C-2.22882139 2.22882139 -2.22882139 2.22882139 0 0 Z " fill="#FBFBFB" transform="translate(202,210)"/>
<path d="M0 0 C1.51980469 0.00483398 1.51980469 0.00483398 3.0703125 0.00976562 C4.1325 0.01814453 5.1946875 0.02652344 6.2890625 0.03515625 C7.87074219 0.04192383 7.87074219 0.04192383 9.484375 0.04882812 C11.44971835 0.05755744 13.41505439 0.06833537 15.38037109 0.08178711 C17.55823194 0.09542759 19.73615894 0.09765625 21.9140625 0.09765625 C21.9140625 1.74765625 21.9140625 3.39765625 21.9140625 5.09765625 C15.9740625 5.59265625 15.9740625 5.59265625 9.9140625 6.09765625 C9.5840625 13.68765625 9.2540625 21.27765625 8.9140625 29.09765625 C6.9340625 30.08765625 6.9340625 30.08765625 4.9140625 31.09765625 C3.16899635 29.3525901 3.68123466 26.90726482 3.59765625 24.53125 C3.55576172 23.40654297 3.51386719 22.28183594 3.47070312 21.12304688 C3.43138672 19.93904297 3.39207031 18.75503906 3.3515625 17.53515625 C3.28678711 15.75334961 3.28678711 15.75334961 3.22070312 13.93554688 C3.11422704 10.98970841 3.01221409 8.04378195 2.9140625 5.09765625 C1.6353125 5.11828125 0.3565625 5.13890625 -0.9609375 5.16015625 C-4.8359375 5.22265625 -4.8359375 5.22265625 -7.0859375 4.09765625 C-7.0859375 3.10765625 -7.0859375 2.11765625 -7.0859375 1.09765625 C-4.56149865 -0.16456317 -2.82215619 -0.01593192 0 0 Z " fill="#FADD5B" transform="translate(273.0859375,267.90234375)"/>
<path d="M0 0 C0.66 0 1.32 0 2 0 C1.56475238 5.22297145 0.83306407 10.25731702 -0.3125 15.375 C-0.64701172 16.87160156 -0.64701172 16.87160156 -0.98828125 18.3984375 C-2.23520799 21.60482056 -2.98735994 22.34652615 -6 24 C-8.94043142 24.26910486 -11.66155987 24.37337436 -14.59765625 24.328125 C-15.84366859 24.32531525 -15.84366859 24.32531525 -17.11485291 24.32244873 C-18.86738105 24.31573773 -20.61989445 24.3018421 -22.37231445 24.28125 C-25.05629382 24.25007209 -27.73968552 24.24027475 -30.42382812 24.234375 C-32.12761133 24.22520535 -33.83138857 24.2148297 -35.53515625 24.203125 C-36.33832779 24.19887512 -37.14149933 24.19462524 -37.9690094 24.19024658 C-41.22716179 24.14837834 -43.88816357 24.03727881 -47 23 C-47.33 22.01 -47.66 21.02 -48 20 C-46.5625 17.3125 -46.5625 17.3125 -45 15 C-44.25234375 15.34933594 -43.5046875 15.69867188 -42.734375 16.05859375 C-41.74953125 16.51363281 -40.7646875 16.96867187 -39.75 17.4375 C-38.77546875 17.88996094 -37.8009375 18.34242188 -36.796875 18.80859375 C-34.49038887 19.7911053 -32.46893652 20.61016792 -30 21 C-27.78228936 20.14209817 -27.78228936 20.14209817 -26 19 C-26 19.99 -26 20.98 -26 22 C-23.36 22 -20.72 22 -18 22 C-17.731875 21.360625 -17.46375 20.72125 -17.1875 20.0625 C-16 18 -16 18 -13 17 C-12.01 17.33 -11.02 17.66 -10 18 C-9.01 18 -8.02 18 -7 18 C-7 18.66 -7 19.32 -7 20 C-6.34 20 -5.68 20 -5 20 C-3.11406227 16.71736362 -2.4923 13.72974792 -1.9375 10 C-1.42543418 6.61444087 -0.89803885 3.30605454 0 0 Z " fill="#798C7C" transform="translate(106,224)"/>
<path d="M0 0 C1.98 0.495 1.98 0.495 4 1 C4 9.25 4 17.5 4 26 C8.95 26 13.9 26 19 26 C19 27.32 19 28.64 19 30 C15.85463232 30.19594676 12.70869386 30.3803401 9.5625 30.5625 C8.66466797 30.61857422 7.76683594 30.67464844 6.84179688 30.73242188 C5.98779297 30.78076172 5.13378906 30.82910156 4.25390625 30.87890625 C3.46314697 30.9260376 2.6723877 30.97316895 1.85766602 31.02172852 C0 31 0 31 -1 30 C-1.10003289 27.86646826 -1.13081048 25.72962458 -1.1328125 23.59375 C-1.13410156 22.29308594 -1.13539063 20.99242187 -1.13671875 19.65234375 C-1.13462402 18.97155762 -1.1325293 18.29077148 -1.13037109 17.58935547 C-1.1250224 15.50871485 -1.1303168 13.42829011 -1.13671875 11.34765625 C-1.13542969 10.04699219 -1.13414062 8.74632812 -1.1328125 7.40625 C-1.13168457 6.20291016 -1.13055664 4.99957031 -1.12939453 3.75976562 C-1 1 -1 1 0 0 Z " fill="#F8DB63" transform="translate(215,268)"/>
<path d="M0 0 C1.59752849 0.00031727 3.19507824 0.01165096 4.79248047 0.03173828 C6.05341019 0.03598312 6.05341019 0.03598312 7.33981323 0.04031372 C10.02990843 0.05152648 12.71967307 0.07663275 15.40966797 0.10205078 C17.23127775 0.11207918 19.05289274 0.12120527 20.87451172 0.12939453 C25.34469155 0.15146937 29.81462368 0.18600644 34.28466797 0.22705078 C33.95466797 0.88705078 33.62466797 1.54705078 33.28466797 2.22705078 C32.52323486 2.21134033 31.76180176 2.19562988 30.97729492 2.17944336 C27.51732857 2.11696625 24.05748107 2.07801906 20.59716797 2.03955078 C19.39898437 2.01441406 18.20080078 1.98927734 16.96630859 1.96337891 C15.2309082 1.94887695 15.2309082 1.94887695 13.46044922 1.93408203 C11.86583862 1.91051636 11.86583862 1.91051636 10.23901367 1.88647461 C5.55528239 2.42641388 3.05605722 4.32709665 0.03466797 7.85205078 C-2.12187956 12.01110674 -2.50974706 15.6013889 -2.71533203 20.22705078 C-3.49908203 20.49517578 -4.28283203 20.76330078 -5.09033203 21.03955078 C-7.99648126 22.0751951 -7.99648126 22.0751951 -9.71533203 25.22705078 C-10.17204641 19.6322997 -9.27277438 14.75726231 -7.84033203 9.35205078 C-7.57978027 8.35226196 -7.57978027 8.35226196 -7.31396484 7.33227539 C-5.37659938 0.32857389 -5.37659938 0.32857389 0 0 Z " fill="#0B4B99" transform="translate(73.71533203125,203.77294921875)"/>
<path d="M0 0 C1.80597656 0.02513672 1.80597656 0.02513672 3.6484375 0.05078125 C13.51924339 0.31627189 23.38556522 0.75062986 33.25 1.1875 C33.25 1.5175 33.25 1.8475 33.25 2.1875 C29.60431461 2.3575084 25.95843272 2.52288803 22.3125 2.6875 C21.29091797 2.73519531 20.26933594 2.78289062 19.21679688 2.83203125 C14.55367528 3.04060538 9.9142038 3.20982946 5.24609375 3.15625 C1.53359353 3.02821609 1.53359353 3.02821609 -0.85913086 3.71679688 C-3.1379876 4.28408362 -4.54164341 3.8973289 -6.75 3.1875 C-7.47256829 7.66883574 -7.47256829 7.66883574 -7.75 12.1875 C-9.44430377 15.99968348 -11.6676936 19.57816891 -13.75 23.1875 C-14.41 23.1875 -15.07 23.1875 -15.75 23.1875 C-14.85083481 17.62325425 -13.84067831 12.08623378 -12.4375 6.625 C-12.23511719 5.81933594 -12.03273438 5.01367188 -11.82421875 4.18359375 C-10.75 2.1875 -10.75 2.1875 -8.50390625 0.921875 C-5.52078995 0.12637732 -3.08775243 -0.04310314 0 0 Z " fill="#989D7C" transform="translate(94.75,251.8125)"/>
<path d="M0 0 C0.99 0.33 1.98 0.66 3 1 C3.33 10.57 3.66 20.14 4 30 C2.68 30.33 1.36 30.66 0 31 C-1.85714057 29.14285943 -1.13048681 26.07492951 -1.1328125 23.59375 C-1.13410156 22.29308594 -1.13539063 20.99242187 -1.13671875 19.65234375 C-1.13462402 18.97155762 -1.1325293 18.29077148 -1.13037109 17.58935547 C-1.1250224 15.50871485 -1.1303168 13.42829011 -1.13671875 11.34765625 C-1.13542969 10.04699219 -1.13414062 8.74632812 -1.1328125 7.40625 C-1.13168457 6.20291016 -1.13055664 4.99957031 -1.12939453 3.75976562 C-1 1 -1 1 0 0 Z " fill="#F6DC6B" transform="translate(297,268)"/>
<path d="M0 0 C0.33 0 0.66 0 1 0 C2.23039832 5.25715645 1.77817064 8.92238378 0.27734375 14.08203125 C-1.7070179 17.06160791 -3.52200735 17.28885737 -7 18 C-10.31070732 18.08015809 -13.57446951 17.87353392 -16.875 17.625 C-18.19371094 17.53992188 -18.19371094 17.53992188 -19.5390625 17.453125 C-21.69342162 17.31262332 -23.84683563 17.1577566 -26 17 C-26 16.01 -26 15.02 -26 14 C-25.01 14.33 -24.02 14.66 -23 15 C-20.77425665 15.22451458 -18.54418481 15.40782878 -16.3125 15.5625 C-15.13300781 15.64628906 -13.95351562 15.73007813 -12.73828125 15.81640625 C-11.83464844 15.87699219 -10.93101563 15.93757812 -10 16 C-10 15.34 -10 14.68 -10 14 C-10.66 13.67 -11.32 13.34 -12 13 C-11.01 12.01 -10.02 11.02 -9 10 C-8.67 10.66 -8.34 11.32 -8 12 C-7.38125 11.835 -6.7625 11.67 -6.125 11.5 C-4 11 -4 11 -2 11 C-2 10.34 -2 9.68 -2 9 C-2.66 8.67 -3.32 8.34 -4 8 C-4 6.33333333 -4 4.66666667 -4 3 C-3.34 3 -2.68 3 -2 3 C-1.34 2.01 -0.68 1.02 0 0 Z " fill="#9DA478" transform="translate(133,230)"/>
<path d="M0 0 C0.74765625 0.34933594 1.4953125 0.69867188 2.265625 1.05859375 C3.74289063 1.74115234 3.74289063 1.74115234 5.25 2.4375 C6.22453125 2.88996094 7.1990625 3.34242188 8.203125 3.80859375 C10.50961113 4.7911053 12.53106348 5.61016792 15 6 C17.21771064 5.14209817 17.21771064 5.14209817 19 4 C18.67 5.65 18.34 7.3 18 9 C15.2291017 9.02696009 12.4584655 9.04681952 9.6875 9.0625 C8.50897461 9.07506836 8.50897461 9.07506836 7.30664062 9.08789062 C6.54931641 9.09111328 5.79199219 9.09433594 5.01171875 9.09765625 C3.96697388 9.10551147 3.96697388 9.10551147 2.90112305 9.11352539 C1 9 1 9 -2 8 C-2.33 7.01 -2.66 6.02 -3 5 C-1.5625 2.3125 -1.5625 2.3125 0 0 Z " fill="#5F828E" transform="translate(61,239)"/>
<path d="M0 0 C0.66 0.66 1.32 1.32 2 2 C-0.31 2 -2.62 2 -5 2 C-3.68 2.66 -2.36 3.32 -1 4 C-3.87810599 5.43905299 -6.82812939 5.55482518 -10 6 C-10.99 6.33 -11.98 6.66 -13 7 C-13.66 11.29 -14.32 15.58 -15 20 C-15.33 20 -15.66 20 -16 20 C-16 16.04 -16 12.08 -16 8 C-16.66 8 -17.32 8 -18 8 C-15.14063997 -0.00620807 -7.50685433 -1.16113215 0 0 Z " fill="#EFD871" transform="translate(326,268)"/>
<path d="M0 0 C0.66666667 1.33333333 1.33333333 2.66666667 2 4 C2.56847656 4.96679688 2.56847656 4.96679688 3.1484375 5.953125 C4.20105988 8.48328155 4.02095975 10.05747372 3.625 12.75 C3.51414062 13.54921875 3.40328125 14.3484375 3.2890625 15.171875 C3.19367188 15.77515625 3.09828125 16.3784375 3 17 C2.21625 17.268125 1.4325 17.53625 0.625 17.8125 C-2.28114923 18.84814432 -2.28114923 18.84814432 -4 22 C-4.62599202 14.17509977 -2.32514129 7.39062767 0 0 Z " fill="#155196" transform="translate(68,207)"/>
<path d="M0 0 C3.45826342 -0.05789006 6.91640293 -0.09355821 10.375 -0.125 C11.35984375 -0.14175781 12.3446875 -0.15851563 13.359375 -0.17578125 C14.77089844 -0.18544922 14.77089844 -0.18544922 16.2109375 -0.1953125 C17.51490479 -0.21102295 17.51490479 -0.21102295 18.84521484 -0.22705078 C21 0 21 0 23 2 C22.625 4.625 22.625 4.625 22 7 C18.71023192 8.09658936 17.28696233 7.79953138 14 7 C14 6.34 14 5.68 14 5 C14.66 5 15.32 5 16 5 C16 4.01 16 3.02 16 2 C15.09636719 2.08378906 14.19273438 2.16757813 13.26171875 2.25390625 C11.49248047 2.40666016 11.49248047 2.40666016 9.6875 2.5625 C8.51574219 2.66691406 7.34398438 2.77132812 6.13671875 2.87890625 C3 3 3 3 0 2 C0 1.34 0 0.68 0 0 Z " fill="#8C9A81" transform="translate(58,252)"/>
<path d="M0 0 C0.33 0 0.66 0 1 0 C1 8.25 1 16.5 1 25 C-0.98 25.99 -0.98 25.99 -3 27 C-4 26 -4 26 -4.11352539 23.68334961 C-4.10828857 22.68311768 -4.10305176 21.68288574 -4.09765625 20.65234375 C-4.09443359 19.57275391 -4.09121094 18.49316406 -4.08789062 17.38085938 C-4.07951172 16.24455078 -4.07113281 15.10824219 -4.0625 13.9375 C-4.05798828 12.79732422 -4.05347656 11.65714844 -4.04882812 10.48242188 C-4.03699747 7.65489649 -4.0205141 4.8274736 -4 2 C-1.89790143 5.15314785 -1.7565239 5.86103081 -1.8046875 9.44921875 C-1.81113281 10.29677734 -1.81757813 11.14433594 -1.82421875 12.01757812 C-1.84097656 12.89865234 -1.85773438 13.77972656 -1.875 14.6875 C-1.88402344 15.58017578 -1.89304687 16.47285156 -1.90234375 17.39257812 C-1.92590252 19.59532314 -1.95879671 21.79752588 -2 24 C-1.34 24 -0.68 24 0 24 C0 16.08 0 8.16 0 0 Z " fill="#EAD36F" transform="translate(281,272)"/>
<path d="M0 0 C1.98 0.495 1.98 0.495 4 1 C4 9.25 4 17.5 4 26 C3.67 26 3.34 26 3 26 C2.67 18.41 2.34 10.82 2 3 C1.34 2.67 0.68 2.34 0 2 C0 10.91 0 19.82 0 29 C0.66 29.33 1.32 29.66 2 30 C1.01 30 0.02 30 -1 30 C-1.02465746 25.8882744 -1.04283959 21.77657722 -1.05493164 17.66479492 C-1.0599708 16.26504772 -1.06680216 14.8653058 -1.07543945 13.46557617 C-1.0875232 11.45754223 -1.09269807 9.44947043 -1.09765625 7.44140625 C-1.10289307 6.23170166 -1.10812988 5.02199707 -1.11352539 3.77563477 C-1 1 -1 1 0 0 Z " fill="#DAC570" transform="translate(215,268)"/>
<path d="M0 0 C0.515625 0.495 1.03125 0.99 1.5625 1.5 C-0.4375 2.5 -0.4375 2.5 -4.25 2.375 C-8.15761601 2.31847029 -10.22658332 3.18100462 -13.4375 5.5 C-14.76358822 6.18096422 -16.09436601 6.85330586 -17.4375 7.5 C-17.4375 3.5 -17.4375 3.5 -15.6875 1.3125 C-11.27417219 -2.24268074 -4.94084395 -3.04051935 0 0 Z " fill="#F7DB62" transform="translate(199.4375,270.5)"/>
<path d="M0 0 C1.51980469 0.00483398 1.51980469 0.00483398 3.0703125 0.00976562 C4.1325 0.01814453 5.1946875 0.02652344 6.2890625 0.03515625 C7.87074219 0.04192383 7.87074219 0.04192383 9.484375 0.04882812 C11.44971835 0.05755744 13.41505439 0.06833537 15.38037109 0.08178711 C17.55823194 0.09542759 19.73615894 0.09765625 21.9140625 0.09765625 C21.9140625 1.74765625 21.9140625 3.39765625 21.9140625 5.09765625 C17.9540625 5.09765625 13.9940625 5.09765625 9.9140625 5.09765625 C9.9140625 4.76765625 9.9140625 4.43765625 9.9140625 4.09765625 C12.5540625 4.09765625 15.1940625 4.09765625 17.9140625 4.09765625 C17.5840625 3.43765625 17.2540625 2.77765625 16.9140625 2.09765625 C10.3140625 1.76765625 3.7140625 1.43765625 -3.0859375 1.09765625 C-3.0859375 1.75765625 -3.0859375 2.41765625 -3.0859375 3.09765625 C-4.4059375 3.42765625 -5.7259375 3.75765625 -7.0859375 4.09765625 C-7.0859375 3.10765625 -7.0859375 2.11765625 -7.0859375 1.09765625 C-4.56149865 -0.16456317 -2.82215619 -0.01593192 0 0 Z " fill="#E3D184" transform="translate(273.0859375,267.90234375)"/>
<path d="M0 0 C3.43407407 4.57876543 4.03976915 7.41243375 4 13 C3.0625 16.0625 3.0625 16.0625 2 18 C0.95994298 14.61981469 0.91995518 11.5219721 1 8 C0.5359375 9.670625 0.5359375 9.670625 0.0625 11.375 C-1 15 -1 15 -2 17 C-2.66 16.67 -3.32 16.34 -4 16 C-2.68 10.72 -1.36 5.44 0 0 Z " fill="#F0D773" transform="translate(333,274)"/>
<path d="M0 0 C1.98 0.495 1.98 0.495 4 1 C4 7.93 4 14.86 4 22 C3.67 22 3.34 22 3 22 C2.67 15.73 2.34 9.46 2 3 C1.34 3 0.68 3 0 3 C0 9.6 0 16.2 0 23 C-0.33 23 -0.66 23 -1 23 C-1.02887512 19.35418313 -1.04675585 15.70839537 -1.0625 12.0625 C-1.07087891 11.02158203 -1.07925781 9.98066406 -1.08789062 8.90820312 C-1.09272461 7.42416992 -1.09272461 7.42416992 -1.09765625 5.91015625 C-1.10289307 4.99371338 -1.10812988 4.07727051 -1.11352539 3.13305664 C-1 1 -1 1 0 0 Z " fill="#E3CF78" transform="translate(239,268)"/>
<path d="M0 0 C1.32 0.33 2.64 0.66 4 1 C4 8.59 4 16.18 4 24 C3.34 24.33 2.68 24.66 2 25 C1.23700056 16.85351368 0.78478749 9.11388044 2 1 C1.34 0.67 0.68 0.34 0 0 Z " fill="#E7CF71" transform="translate(259,268)"/>
<path d="M0 0 C2.53541298 0.09086451 5.03554784 0.2370945 7.5625 0.4375 C8.62887695 0.51581055 8.62887695 0.51581055 9.71679688 0.59570312 C11.47821999 0.72574107 13.23916173 0.86226897 15 1 C15 1.33 15 1.66 15 2 C12.69 2 10.38 2 8 2 C8.33 3.32 8.66 4.64 9 6 C5.42195344 6.19878036 3.00791911 6.04108797 0 4 C-0.33 3.01 -0.66 2.02 -1 1 C-0.67 0.67 -0.34 0.34 0 0 Z " fill="#ECD66A" transform="translate(374,293)"/>
<path d="M0 0 C4.29 0 8.58 0 13 0 C13 1.65 13 3.3 13 5 C12.34 5 11.68 5 11 5 C10.34 5.66 9.68 6.32 9 7 C8.34 7 7.68 7 7 7 C6.34 7.66 5.68 8.32 5 9 C5.33 6.36 5.66 3.72 6 1 C4.02 1 2.04 1 0 1 C0 0.67 0 0.34 0 0 Z " fill="#BEB96F" transform="translate(115,254)"/>
<path d="M0 0 C0.33 0 0.66 0 1 0 C2.38766322 6.05525768 1.49118146 9.32010626 -1 15 C-1.33 15 -1.66 15 -2 15 C-2 13.02 -2 11.04 -2 9 C-2.66 8.67 -3.32 8.34 -4 8 C-4 6.33333333 -4 4.66666667 -4 3 C-3.34 3 -2.68 3 -2 3 C-1.34 2.01 -0.68 1.02 0 0 Z " fill="#939D77" transform="translate(133,230)"/>
<path d="M0 0 C0.66 0.33 1.32 0.66 2 1 C1.9131252 2.95917659 1.80495488 4.91741871 1.6875 6.875 C1.62949219 7.96554687 1.57148438 9.05609375 1.51171875 10.1796875 C1.34285156 11.11039062 1.17398437 12.04109375 1 13 C0.01 13.66 -0.98 14.32 -2 15 C-2.99 14.67 -3.98 14.34 -5 14 C-4.67 12.68 -4.34 11.36 -4 10 C-3.34 10 -2.68 10 -2 10 C-1.34 6.7 -0.68 3.4 0 0 Z " fill="#F9DE58" transform="translate(333,281)"/>
<path d="M0 0 C0.99 0.33 1.98 0.66 3 1 C4.32286246 5.96073422 4.08893197 10.91111512 4 16 C3.01 15.67 2.02 15.34 1 15 C0.67 10.05 0.34 5.1 0 0 Z " fill="#FBDD61" transform="translate(203,273)"/>
<path d="M0 0 C4.29 0 8.58 0 13 0 C12.67 1.32 12.34 2.64 12 4 C8.85069107 5.04976964 6.61185544 5.10131595 3.3125 5.0625 C2.31863281 5.05347656 1.32476562 5.04445313 0.30078125 5.03515625 C-0.83810547 5.01775391 -0.83810547 5.01775391 -2 5 C-2.33 4.34 -2.66 3.68 -3 3 C0.3 3 3.6 3 7 3 C7.33 2.34 7.66 1.68 8 1 C5.36 1 2.72 1 0 1 C0 0.67 0 0.34 0 0 Z " fill="#E9D26E" transform="translate(158,294)"/>
<path d="M0 0 C2.29295236 0.28138058 4.58435456 0.5754186 6.875 0.875 C8.78925781 1.11863281 8.78925781 1.11863281 10.7421875 1.3671875 C14 2 14 2 16 4 C12.80885219 5.5955739 9.47259755 5.38584417 6 5 C2.5 3.5 2.5 3.5 0 2 C0 1.34 0 0.68 0 0 Z " fill="#FCDE5E" transform="translate(311,293)"/>
<path d="M0 0 C0.99 0.99 1.98 1.98 3 3 C2.34 3.66 1.68 4.32 1 5 C1.66 5.33 2.32 5.66 3 6 C3 7.32 3 8.64 3 10 C1.02 10 -0.96 10 -3 10 C-2.25 3.375 -2.25 3.375 0 0 Z " fill="#E2D065" transform="translate(77,285)"/>
<path d="M0 0 C0.99 0.99 1.98 1.98 3 3 C2.01 6.3 1.02 9.6 0 13 C-0.66 11.68 -1.32 10.36 -2 9 C-3.5412312 7.29078411 -3.5412312 7.29078411 -5 6 C-3 3 -3 3 0 2 C0 1.34 0 0.68 0 0 Z " fill="#CDC370" transform="translate(125,257)"/>
<path d="M0 0 C6.27 0 12.54 0 19 0 C16.1755377 2.8244623 13.99975379 2.43964398 10.0625 2.6875 C8.19271484 2.81705078 8.19271484 2.81705078 6.28515625 2.94921875 C3 3 3 3 0 2 C0 1.34 0 0.68 0 0 Z " fill="#66796F" transform="translate(58,252)"/>
<path d="M0 0 C0.66 0.66 1.32 1.32 2 2 C0.68 6.29 -0.64 10.58 -2 15 C-3.98 15 -5.96 15 -8 15 C-8 14.34 -8 13.68 -8 13 C-6.35 12.67 -4.7 12.34 -3 12 C-3.33 10.35 -3.66 8.7 -4 7 C-3.01 7 -2.02 7 -1 7 C-1.020625 6.030625 -1.04125 5.06125 -1.0625 4.0625 C-1 1 -1 1 0 0 Z " fill="#F3DB6E" transform="translate(120,280)"/>
<path d="M0 0 C0.99 0 1.98 0 3 0 C2.67 1.65 2.34 3.3 2 5 C3.32 5.66 4.64 6.32 6 7 C6 7.66 6 8.32 6 9 C3.625 9.625 3.625 9.625 1 10 C-1 8 -1 8 -1.1875 4.4375 C-1 1 -1 1 0 0 Z " fill="#F3DA5E" transform="translate(156,273)"/>
<path d="M0 0 C0.99 0.33 1.98 0.66 3 1 C1.18690997 4.77727089 -0.9073259 8.37269822 -3 12 C-3.66 12 -4.32 12 -5 12 C-4.34 9.03 -3.68 6.06 -3 3 C-2.34 3 -1.68 3 -1 3 C-0.67 2.01 -0.34 1.02 0 0 Z " fill="#B0AE77" transform="translate(84,263)"/>
<path d="M0 0 C0.66 0 1.32 0 2 0 C1.39700836 7.23589973 -0.1150587 13.99370876 -2 21 C-2.66 21 -3.32 21 -4 21 C-3.52259783 18.24968307 -3.04314736 15.49975 -2.5625 12.75 C-2.42779297 11.97269531 -2.29308594 11.19539062 -2.15429688 10.39453125 C-2.02216797 9.64042969 -1.89003906 8.88632813 -1.75390625 8.109375 C-1.63345947 7.41811523 -1.5130127 6.72685547 -1.38891602 6.01464844 C-0.99755584 3.98733883 -0.51910249 1.99805485 0 0 Z " fill="#67827F" transform="translate(106,224)"/>
<path d="M0 0 C2 1 2 1 3.25 2.6875 C4.30863779 5.95163317 3.26747732 7.9017221 2 11 C1.34 11 0.68 11 0 11 C-1.28571429 3.57142857 -1.28571429 3.57142857 0 0 Z " fill="#E5CD6C" transform="translate(121,267)"/>
<path d="M0 0 C0.33 0.66 0.66 1.32 1 2 C1.99 1.67 2.98 1.34 4 1 C4 1.66 4 2.32 4 3 C4.66 3.33 5.32 3.66 6 4 C6 4.66 6 5.32 6 6 C5.21625 6.268125 4.4325 6.53625 3.625 6.8125 C0.71885077 7.84814432 0.71885077 7.84814432 -1 11 C-1.125 3.375 -1.125 3.375 0 0 Z " fill="#275E9A" transform="translate(65,218)"/>
<path d="M0 0 C1.98 0.66 3.96 1.32 6 2 C6.33 3.65 6.66 5.3 7 7 C5.68 7 4.36 7 3 7 C0 2.92857143 0 2.92857143 0 0 Z " fill="#FADE59" transform="translate(359,290)"/>
<path d="M0 0 C1.65 0.33 3.3 0.66 5 1 C5 1.99 5 2.98 5 4 C4.15695312 3.98839844 3.31390625 3.97679687 2.4453125 3.96484375 C1.34960938 3.95582031 0.25390625 3.94679688 -0.875 3.9375 C-2.51082031 3.92009766 -2.51082031 3.92009766 -4.1796875 3.90234375 C-6.95177546 3.80255697 -6.95177546 3.80255697 -9 5 C-8.67 4.01 -8.34 3.02 -8 2 C-5.36 1.67 -2.72 1.34 0 1 C0 0.67 0 0.34 0 0 Z " fill="#F0DA83" transform="translate(390,269)"/>
<path d="M0 0 C0.33 0.66 0.66 1.32 1 2 C0.37351562 2.04898437 -0.25296875 2.09796875 -0.8984375 2.1484375 C-1.71570313 2.22320312 -2.53296875 2.29796875 -3.375 2.375 C-4.18710937 2.44460938 -4.99921875 2.51421875 -5.8359375 2.5859375 C-8.20334191 2.82892588 -8.20334191 2.82892588 -10 5 C-10.99 4.34 -11.98 3.68 -13 3 C-9.21656826 -0.94792877 -5.07874402 -0.29300446 0 0 Z " fill="#FAE058" transform="translate(390,269)"/>
<path d="M0 0 C0.66 0.66 1.32 1.32 2 2 C-0.64 1.67 -3.28 1.34 -6 1 C-6 1.66 -6 2.32 -6 3 C-8.97 2.505 -8.97 2.505 -12 2 C-11 0 -11 0 -9.375 -0.6875 C-6.07731263 -1.12140623 -3.24647511 -0.661319 0 0 Z " fill="#EFD675" transform="translate(169,282)"/>
<path d="M0 0 C4.62 0 9.24 0 14 0 C10.31265242 2.45823172 7.30300029 3.01242616 3 4 C3 3.01 3 2.02 3 1 C2.01 0.67 1.02 0.34 0 0 Z " fill="#666C58" transform="translate(89,252)"/>
<path d="M0 0 C0.99 0 1.98 0 3 0 C1.71034824 1.37562854 0.37310707 2.70766393 -1 4 C-1.66 4 -2.32 4 -3 4 C-3 3.01 -3 2.02 -3 1 C-5.97 1 -8.94 1 -12 1 C-12 0.67 -12 0.34 -12 0 C-3.72413793 -1.24137931 -3.72413793 -1.24137931 0 0 Z " fill="#EAD26D" transform="translate(258,294)"/>
<path d="M0 0 C0.5625 1.9375 0.5625 1.9375 1 4 C0 5 0 5 -3.5625 5.0625 C-4.696875 5.041875 -5.83125 5.02125 -7 5 C-7.33 4.34 -7.66 3.68 -8 3 C-7.34 3 -6.68 3 -6 3 C-5.67 2.34 -5.34 1.68 -5 1 C-4.34 1.33 -3.68 1.66 -3 2 C-2.01 1.34 -1.02 0.68 0 0 Z " fill="#6C8182" transform="translate(79,243)"/>
<path d="M0 0 C0.66 1.32 1.32 2.64 2 4 C1 5 1 5 -1.06640625 5.09765625 C-1.89011719 5.08605469 -2.71382813 5.07445312 -3.5625 5.0625 C-4.38878906 5.05347656 -5.21507813 5.04445312 -6.06640625 5.03515625 C-6.70449219 5.02355469 -7.34257813 5.01195312 -8 5 C-7.34 4.01 -6.68 3.02 -6 2 C-2.875 1.8125 -2.875 1.8125 0 2 C0 1.34 0 0.68 0 0 Z " fill="#889885" transform="translate(101,242)"/>
<path d="M0 0 C-0.33 0.99 -0.66 1.98 -1 3 C-3.64 3 -6.28 3 -9 3 C-9.33 2.34 -9.66 1.68 -10 1 C-6.78548731 -0.60725635 -3.56387464 -0.05748185 0 0 Z " fill="#FCDD60" transform="translate(198,295)"/>
<path d="M0 0 C-3.75 1.125 -3.75 1.125 -6 0 C-6 0.66 -6 1.32 -6 2 C-7.65 1.67 -9.3 1.34 -11 1 C-11 0.34 -11 -0.32 -11 -1 C-3.57142857 -2.42857143 -3.57142857 -2.42857143 0 0 Z " fill="#FDDD5F" transform="translate(393,296)"/>
<path d="M0 0 C0.66 0 1.32 0 2 0 C2.33 0.66 2.66 1.32 3 2 C3.66 1.34 4.32 0.68 5 0 C5.66 0.99 6.32 1.98 7 3 C6.34 3 5.68 3 5 3 C5.66 4.65 6.32 6.3 7 8 C1.21538462 4.55384615 1.21538462 4.55384615 0.125 1.75 C0.08375 1.1725 0.0425 0.595 0 0 Z " fill="#EBD670" transform="translate(239,291)"/>
<path d="M0 0 C0 0.66 0 1.32 0 2 C-3.08888522 4.05925681 -3.70935927 4.2390374 -7.1875 4.125 C-9.0746875 4.063125 -9.0746875 4.063125 -11 4 C-7.65667474 -0.27945633 -5.29105716 -0.4070044 0 0 Z " fill="#557C83" transform="translate(73,244)"/>
<path d="M0 0 C0.99 0.33 1.98 0.66 3 1 C5.56634861 1.22718496 8.11678107 1.41608184 10.6875 1.5625 C11.7403418 1.62727539 11.7403418 1.62727539 12.81445312 1.69335938 C14.54275206 1.7991736 16.2713511 1.90006581 18 2 C18 2.33 18 2.66 18 3 C12.06 3 6.12 3 0 3 C0 2.01 0 1.02 0 0 Z " fill="#9FA68D" transform="translate(107,244)"/>
<path d="M0 0 C0.66 0 1.32 0 2 0 C2.33 1.65 2.66 3.3 3 5 C1.02 5.66 -0.96 6.32 -3 7 C-1.125 2.25 -1.125 2.25 0 0 Z " fill="#A5AC7A" transform="translate(129,241)"/>
<path d="M0 0 C0.99 0.33 1.98 0.66 3 1 C2.67 4.63 2.34 8.26 2 12 C1.67 12 1.34 12 1 12 C0.63762737 10.37681021 0.28534843 8.7513642 -0.0625 7.125 C-0.25972656 6.22007812 -0.45695312 5.31515625 -0.66015625 4.3828125 C-1 2 -1 2 0 0 Z " fill="#E5CB65" transform="translate(366,285)"/>
<path d="M0 0 C1.09570312 0.00902344 2.19140625 0.01804687 3.3203125 0.02734375 C4.16335938 0.03894531 5.00640625 0.05054688 5.875 0.0625 C5.875 0.3925 5.875 0.7225 5.875 1.0625 C2.575 1.0625 -0.725 1.0625 -4.125 1.0625 C-4.125 1.7225 -4.125 2.3825 -4.125 3.0625 C-5.445 3.3925 -6.765 3.7225 -8.125 4.0625 C-8.125 3.0725 -8.125 2.0825 -8.125 1.0625 C-5.36047967 -0.31976016 -3.0788637 -0.03275387 0 0 Z " fill="#E8D070" transform="translate(274.125,267.9375)"/>
<path d="M0 0 C0.66 1.32 1.32 2.64 2 4 C0.71034824 5.37562854 -0.62689293 6.70766393 -2 8 C-2.66 8 -3.32 8 -4 8 C-2.25 2.25 -2.25 2.25 0 0 Z " fill="#9DA27E" transform="translate(85,258)"/>
<path d="M0 0 C0.33 0.66 0.66 1.32 1 2 C0.34 1.67 -0.32 1.34 -1 1 C-0.67 0.67 -0.34 0.34 0 0 Z M-3 1 C-2.34 1.33 -1.68 1.66 -1 2 C-1.33 3.32 -1.66 4.64 -2 6 C-5.3 6 -8.6 6 -12 6 C-12 5.67 -12 5.34 -12 5 C-9.36 5 -6.72 5 -4 5 C-3.67 3.68 -3.34 2.36 -3 1 Z " fill="#7F938A" transform="translate(92,241)"/>
<path d="M0 0 C6.625 -0.125 6.625 -0.125 10 1 C10 1.99 10 2.98 10 4 C6.58978257 3.21302675 3.31114834 2.12880057 0 1 C0 0.67 0 0.34 0 0 Z " fill="#F8DF5B" transform="translate(318,269)"/>
<path d="M0 0 C1.1725131 0.95117134 2.33787015 1.91117009 3.5 2.875 C4.47453125 3.67550781 4.47453125 3.67550781 5.46875 4.4921875 C5.9740625 4.98976563 6.479375 5.48734375 7 6 C7 6.66 7 7.32 7 8 C5.35 7.67 3.7 7.34 2 7 C2 5.68 2 4.36 2 3 C1.34 3 0.68 3 0 3 C0 2.01 0 1.02 0 0 Z " fill="#FBDE5D" transform="translate(181,288)"/>
<path d="M0 0 C0.99 0.33 1.98 0.66 3 1 C3.6875 3.0625 3.6875 3.0625 4 5 C2.35 5 0.7 5 -1 5 C-1.33 4.34 -1.66 3.68 -2 3 C-1.34 2.01 -0.68 1.02 0 0 Z " fill="#AAB081" transform="translate(74,264)"/>
<path d="M0 0 C0.125 2.875 0.125 2.875 0 6 C-0.66 6.66 -1.32 7.32 -2 8 C-3 7 -3 7 -3.0625 3.9375 C-3.041875 2.968125 -3.02125 1.99875 -3 1 C-1 0 -1 0 0 0 Z " fill="#F9E05C" transform="translate(182,279)"/>
<path d="M0 0 C0.33 0 0.66 0 1 0 C1 1.65 1 3.3 1 5 C-0.65 5.33 -2.3 5.66 -4 6 C-4 5.01 -4 4.02 -4 3 C-3.34 3 -2.68 3 -2 3 C-1.34 2.01 -0.68 1.02 0 0 Z " fill="#8A9B80" transform="translate(133,230)"/>
<path d="M0 0 C0.99 0 1.98 0 3 0 C3.33 2.31 3.66 4.62 4 7 C2 5.1875 2 5.1875 0 3 C0 2.01 0 1.02 0 0 Z " fill="#FCDD5E" transform="translate(169,285)"/>
<path d="M0 0 C0.66 0 1.32 0 2 0 C1.34 2.64 0.68 5.28 0 8 C-1.32 8 -2.64 8 -4 8 C-4 7.34 -4 6.68 -4 6 C-2.68 5.67 -1.36 5.34 0 5 C0 3.35 0 1.7 0 0 Z " fill="#AEB178" transform="translate(75,269)"/>
<path d="M0 0 C1.9375 0.8125 1.9375 0.8125 4 2 C4.33 2.99 4.66 3.98 5 5 C3.35 5 1.7 5 0 5 C-0.5625 3.0625 -0.5625 3.0625 -1 1 C-0.67 0.67 -0.34 0.34 0 0 Z " fill="#537B91" transform="translate(61,239)"/>
<path d="M0 0 C2.475 0.495 2.475 0.495 5 1 C5 2.65 5 4.3 5 6 C3.68 5.67 2.36 5.34 1 5 C1.66 3.68 2.32 2.36 3 1 C2.01 0.67 1.02 0.34 0 0 Z " fill="#366593" transform="translate(108,204)"/>
<path d="M0 0 C3 1 3 1 4.1875 2.8125 C5 5 5 5 5 9 C4.34 9 3.68 9 3 9 C2.01 6.03 1.02 3.06 0 0 Z " fill="#EFD180" transform="translate(392,284)"/>
<path d="M0 0 C0.99 0.33 1.98 0.66 3 1 C2.01 1.33 1.02 1.66 0 2 C0 2.66 0 3.32 0 4 C-0.99 4.33 -1.98 4.66 -3 5 C-2.625 3.0625 -2.625 3.0625 -2 1 C-1.34 0.67 -0.68 0.34 0 0 Z M-5 5 C-4.01 5.495 -4.01 5.495 -3 6 C-3.99 6.495 -3.99 6.495 -5 7 C-5 6.34 -5 5.68 -5 5 Z " fill="#80927E" transform="translate(77,252)"/>
<path d="" fill="#FFFFFF" transform="translate(0,0)"/>
</svg>
