<?xml version="1.0" encoding="UTF-8"?>
<svg version="1.1" xmlns="http://www.w3.org/2000/svg" width="500" height="500">
<path d="M0 0 C165 0 330 0 500 0 C500 165 500 330 500 500 C335 500 170 500 0 500 C0 335 0 170 0 0 Z " fill="#FEFEFE" transform="translate(0,0)"/>
<path d="M0 0 C1.72447904 0.00031742 3.44897767 0.01165954 5.17333984 0.03173828 C6.53415176 0.03598312 6.53415176 0.03598312 7.92245483 0.04031372 C10.82652857 0.05152926 13.73029646 0.07663615 16.63427734 0.10205078 C18.60041873 0.11207881 20.56656494 0.12120497 22.53271484 0.12939453 C27.35835393 0.15147306 32.18376374 0.18601213 37.00927734 0.22705078 C38.1691006 4.18818708 37.63407612 6.53472289 36.50927734 10.53955078 C36.33493164 11.16676025 36.16058594 11.79396973 35.98095703 12.44018555 C33.16666583 22.41909457 30.05800338 32.31869117 27.00927734 42.22705078 C13.14927734 42.22705078 -0.71072266 42.22705078 -14.99072266 42.22705078 C-15.97685461 38.28252296 -16.01877243 37.41031031 -14.91650391 33.77001953 C-14.66288086 32.91126221 -14.40925781 32.05250488 -14.14794922 31.16772461 C-13.86918945 30.25917725 -13.59042969 29.35062988 -13.30322266 28.41455078 C-12.74070703 26.52692213 -12.17951804 24.63889765 -11.61962891 22.75048828 C-11.20221436 21.3520166 -11.20221436 21.3520166 -10.77636719 19.92529297 C-9.33448418 14.97324482 -8.09700668 9.96937481 -6.85009766 4.96533203 C-5.46839686 0.56273085 -4.67314923 0.2658772 0 0 Z " fill="#2C64A0" transform="translate(89.99072265625,252.77294921875)"/>
<path d="M0 0 C0.80060349 0.00022659 1.60120697 0.00045319 2.42607117 0.00068665 C3.28553848 0.0161705 4.1450058 0.03165436 5.03051758 0.04760742 C5.91411453 0.05185226 6.79771149 0.05609711 7.70808411 0.06047058 C10.53071544 0.07726574 13.35263324 0.11491921 16.17504883 0.15307617 C18.08844998 0.16812194 20.00186231 0.18181053 21.9152832 0.1940918 C26.60631342 0.22717199 31.29681014 0.27895987 35.98754883 0.34057617 C37.33400221 4.69649321 36.22674733 8.0277444 34.96801758 12.28198242 C34.74938553 13.04606918 34.53075348 13.81015594 34.30549622 14.59739685 C33.84183017 16.21000819 33.37334538 17.82124075 32.90039062 19.43115234 C32.17756579 21.8944985 31.47103745 24.36208103 30.7668457 26.83081055 C30.31402567 28.39814436 29.86028058 29.96521126 29.40551758 31.53198242 C29.08818916 32.63830772 29.08818916 32.63830772 28.76445007 33.76698303 C27.80305365 37.01881338 26.88414014 39.49568921 24.98754883 42.34057617 C21.87717186 42.61949948 18.96861412 42.71216926 15.85864258 42.66870117 C14.9538063 42.666828 14.04897003 42.66495483 13.11671448 42.6630249 C11.20260945 42.65629676 9.28851835 42.6423672 7.37451172 42.62182617 C4.43354623 42.5906662 1.49311614 42.58085653 -1.44799805 42.57495117 C-3.30412442 42.5657818 -5.16024531 42.55540624 -7.01635742 42.54370117 C-8.34444176 42.53732635 -8.34444176 42.53732635 -9.69935608 42.53082275 C-15.89530591 42.45772143 -15.89530591 42.45772143 -17.01245117 41.34057617 C-16.5562894 34.49814961 -14.63903846 28.28983018 -12.57495117 21.77807617 C-11.95079537 19.77691684 -11.3270865 17.77561806 -10.70385742 15.77416992 C-10.25937256 14.36820557 -10.25937256 14.36820557 -9.8059082 12.93383789 C-9.13354452 10.73634649 -8.54252865 8.53968046 -7.97729492 6.31323242 C-6.51489584 1.80762229 -4.80591275 -0.04548182 0 0 Z " fill="#BCB76F" transform="translate(76.012451171875,204.659423828125)"/>
<path d="M0 0 C6.08613323 3.15879846 9.05395044 7.53487977 11.49609375 13.84375 C12.41012461 21.38450456 11.61163423 27.26572655 7.74609375 33.90625 C3.22806665 39.12601322 -1.37926473 42.2273831 -8.2734375 43.1875 C-14.80800406 43.64526298 -19.91484502 41.61185719 -25.25390625 37.90625 C-30.35903934 32.88461208 -32.2207077 26.64184147 -32.69140625 19.59375 C-32.50458875 13.15404081 -29.88812585 7.43797079 -25.24609375 2.9765625 C-17.51777732 -2.98365201 -9.03279776 -3.92572297 0 0 Z " fill="#FBFCFD" transform="translate(362.25390625,213.09375)"/>
<path d="M0 0 C0.93005859 -0.02900391 1.86011719 -0.05800781 2.81835938 -0.08789062 C9.07692595 -0.14506657 13.75393915 0.6726451 18.9375 4.3125 C20.99609375 6.34765625 20.99609375 6.34765625 22.375 8.375 C22.84808594 9.04660156 23.32117188 9.71820313 23.80859375 10.41015625 C26.90152701 15.62212338 26.53628378 21.46010135 25.9375 27.3125 C24.38171308 33.00382257 21.63429294 37.33494197 16.9375 40.9375 C9.19580324 45.13338145 -1.50476976 44.26138592 -10.0625 43.3125 C-11.98507175 41.38992825 -11.19158424 38.53164892 -11.20144653 35.97375488 C-11.1994223 35.08522827 -11.19739807 34.19670166 -11.1953125 33.28125 C-11.19626923 32.37499878 -11.19722595 31.46874756 -11.19821167 30.53503418 C-11.19889353 28.61498953 -11.19703882 26.69494259 -11.19287109 24.77490234 C-11.18752292 21.82514296 -11.19281588 18.87553586 -11.19921875 15.92578125 C-11.19855797 14.06510383 -11.19727681 12.2044265 -11.1953125 10.34375 C-11.19733673 9.45522339 -11.19936096 8.56669678 -11.20144653 7.65124512 C-11.16606739 -1.52472444 -8.17903077 0.08261647 0 0 Z " fill="#FAFBFD" transform="translate(165.0625,211.6875)"/>
<path d="M0 0 C3.87142019 1.99436798 4.75556455 7.12851656 6.05200195 11.07348633 C7.13968778 14.54273777 8.19987368 18.01920153 9.25 21.5 C9.61802734 22.70849609 9.98605469 23.91699219 10.36523438 25.16210938 C11.26785235 28.12785416 12.16682811 31.09465155 13.0625 34.0625 C13.25360352 33.48918945 13.44470703 32.91587891 13.64160156 32.32519531 C17.11523438 21.90429688 20.58886719 11.48339844 24.0625 1.0625 C25.7125 1.0625 27.3625 1.0625 29.0625 1.0625 C28.54890182 7.26027288 27.48759594 12.55925978 25.33984375 18.37890625 C25.07490616 19.12083725 24.80996857 19.86276825 24.53700256 20.62718201 C23.700481 22.9631991 22.8505358 25.29405389 22 27.625 C21.42553173 29.22168148 20.85195591 30.81868436 20.27929688 32.41601562 C18.88397227 36.30196336 17.47659899 40.18334696 16.0625 44.0625 C14.4125 44.0625 12.7625 44.0625 11.0625 44.0625 C6.90439813 36.82432267 4.85731431 29.09305926 2.63183594 21.10498047 C1.79043929 18.08648803 0.92544588 15.07489366 0.0625 12.0625 C-3.373725 19.45038376 -5.56260293 27.23143966 -7.7890625 35.0546875 C-8.04429687 35.94414062 -8.29953125 36.83359375 -8.5625 37.75 C-8.78164063 38.53761719 -9.00078125 39.32523438 -9.2265625 40.13671875 C-9.9375 42.0625 -9.9375 42.0625 -11.9375 44.0625 C-14.375 44.0625 -14.375 44.0625 -16.9375 43.0625 C-19.53408945 38.65433652 -20.96044558 34.024017 -22.3125 29.125 C-24.32008351 22.03909161 -26.57840494 15.08453978 -29.01953125 8.13671875 C-29.9375 5.0625 -29.9375 5.0625 -29.9375 1.0625 C-28.2875 1.0625 -26.6375 1.0625 -24.9375 1.0625 C-22.60755585 6.94867469 -20.6852409 12.93772712 -18.82739258 18.98632812 C-17.27337688 24.03797002 -15.62645559 29.05439843 -13.9375 34.0625 C-13.64504395 33.10359863 -13.35258789 32.14469727 -13.05126953 31.15673828 C-11.96549891 27.60268638 -10.87146425 24.05122403 -9.77490234 20.50048828 C-9.3012845 18.96277221 -8.82991668 17.42436127 -8.36083984 15.88525391 C-7.68656009 13.67424353 -7.00425216 11.46585097 -6.3203125 9.2578125 C-6.11189728 8.56817413 -5.90348206 7.87853577 -5.68875122 7.16799927 C-3.48502679 0.11242022 -3.48502679 0.11242022 0 0 Z " fill="#0E54B1" transform="translate(408.9375,210.9375)"/>
<path d="M0 0 C7.73348055 3.38576113 13.42322608 15.65089533 17.98461914 22.45874023 C19.3053818 24.41894994 20.62695067 26.37861675 21.94946289 28.33764648 C22.52172607 29.19044189 23.09398926 30.0432373 23.68359375 30.921875 C24.89828426 32.80740945 24.89828426 32.80740945 26.04711914 33.89624023 C26.37711914 23.33624023 26.70711914 12.77624023 27.04711914 1.89624023 C28.69711914 1.56624023 30.34711914 1.23624023 32.04711914 0.89624023 C34.16545949 3.01458058 33.21131028 7.74227397 33.21508789 10.67358398 C33.22008049 11.99610924 33.22008049 11.99610924 33.22517395 13.34535217 C33.23024698 15.21411618 33.23258216 17.08288927 33.23242188 18.95166016 C33.23460722 21.81810368 33.25275569 24.68416183 33.27172852 27.55053711 C33.27466253 29.36238474 33.27664727 31.17423422 33.27758789 32.98608398 C33.28477341 33.84757553 33.29195892 34.70906708 33.29936218 35.59666443 C33.27594074 41.66741864 33.27594074 41.66741864 31.04711914 43.89624023 C28.79711914 44.45874023 28.79711914 44.45874023 26.04711914 43.89624023 C20.77212724 38.33797591 16.615483 32.06096433 12.35961914 25.70874023 C11.04399037 23.75639317 9.72761306 21.80455027 8.41040039 19.85327148 C7.83588135 18.99709229 7.2613623 18.14091309 6.66943359 17.25878906 C5.18551268 15.09778038 3.61998682 12.99339714 2.04711914 10.89624023 C1.71711914 21.45624023 1.38711914 32.01624023 1.04711914 42.89624023 C-1.42788086 43.39124023 -1.42788086 43.39124023 -3.95288086 43.89624023 C-6.09695139 41.7521697 -5.14173186 36.87389114 -5.15600586 33.90014648 C-5.16170593 32.99626694 -5.16740601 32.09238739 -5.17327881 31.16111755 C-5.18274314 29.24528174 -5.18926846 27.32942955 -5.19311523 25.41357422 C-5.20282855 22.47456655 -5.23384133 19.53625567 -5.26538086 16.59741211 C-5.27190974 14.73999441 -5.27716067 12.88257168 -5.28100586 11.02514648 C-5.29335266 10.14178116 -5.30569946 9.25841583 -5.31842041 8.34828186 C-5.30932617 5.87109375 -5.30932617 5.87109375 -4.95288086 1.89624023 C-1.95288086 -0.10375977 -1.95288086 -0.10375977 0 0 Z " fill="#0D53B1" transform="translate(287.952880859375,211.103759765625)"/>
<path d="M0 0 C4.07592745 2.23022446 6.24910972 4.68571945 8.3125 8.8125 C9.07500806 15.65007228 8.48244994 20.29013387 4.3125 25.8125 C-1.0428937 29.72322564 -6.27250192 29.75000987 -12.6875 28.8125 C-16.66770964 26.89469344 -19.05171097 23.87302055 -20.6875 19.8125 C-21.39923414 14.96038936 -21.83303017 9.97338646 -19.484375 5.54296875 C-13.97673528 -1.06341727 -8.36967723 -2.69531979 0 0 Z " fill="#FFFEFB" transform="translate(198.6875,268.1875)"/>
<path d="M0 0 C3.42221167 2.23187718 6.15942871 4.12994437 7.875 7.875 C8.7659753 13.52300862 8.6477845 18.24356606 6.1875 23.4375 C2.08880149 27.75774978 -0.61017658 29.06247015 -6.5625 29.3125 C-11.51291207 29.1592571 -14.43381209 28.38162851 -18.125 24.875 C-21.46386314 20.08929617 -21.8660699 15.52946488 -21.125 9.875 C-19.43335942 5.15621312 -17.26451382 2.66917183 -13.125 -0.125 C-8.46247142 -1.67917619 -4.63746673 -1.66948802 0 0 Z " fill="#FFFEFA" transform="translate(326.125,268.125)"/>
<path d="M0 0 C6.08613323 3.15879846 9.05395044 7.53487977 11.49609375 13.84375 C12.41012461 21.38450456 11.61163423 27.26572655 7.74609375 33.90625 C3.22806665 39.12601322 -1.37926473 42.2273831 -8.2734375 43.1875 C-14.80800406 43.64526298 -19.91484502 41.61185719 -25.25390625 37.90625 C-30.35903934 32.88461208 -32.2207077 26.64184147 -32.69140625 19.59375 C-32.50458875 13.15404081 -29.88812585 7.43797079 -25.24609375 2.9765625 C-17.51777732 -2.98365201 -9.03279776 -3.92572297 0 0 Z M-23.01953125 8.20703125 C-26.62938529 13.17629235 -27.05914063 18.95758101 -26.25390625 24.90625 C-24.89764193 29.27557882 -22.96129468 32.21611495 -19.69140625 35.40625 C-14.26635262 37.77354613 -8.83171892 37.95854784 -3.12890625 36.28125 C1.08285186 34.24798746 3.30016925 31.34769514 5.08203125 27.1796875 C6.54251963 22.17966256 6.80393835 17.46848836 4.79296875 12.59765625 C2.38212398 8.43971195 0.14522968 6.02692385 -4.25390625 3.90625 C-11.41529864 2.73685808 -17.8352852 2.7019779 -23.01953125 8.20703125 Z " fill="#0F54B1" transform="translate(362.25390625,213.09375)"/>
<path d="M0 0 C0.93005859 -0.02900391 1.86011719 -0.05800781 2.81835938 -0.08789062 C9.07692595 -0.14506657 13.75393915 0.6726451 18.9375 4.3125 C20.99609375 6.34765625 20.99609375 6.34765625 22.375 8.375 C22.84808594 9.04660156 23.32117188 9.71820313 23.80859375 10.41015625 C26.90152701 15.62212338 26.53628378 21.46010135 25.9375 27.3125 C24.38171308 33.00382257 21.63429294 37.33494197 16.9375 40.9375 C9.19580324 45.13338145 -1.50476976 44.26138592 -10.0625 43.3125 C-11.98507175 41.38992825 -11.19158424 38.53164892 -11.20144653 35.97375488 C-11.1994223 35.08522827 -11.19739807 34.19670166 -11.1953125 33.28125 C-11.19626923 32.37499878 -11.19722595 31.46874756 -11.19821167 30.53503418 C-11.19889353 28.61498953 -11.19703882 26.69494259 -11.19287109 24.77490234 C-11.18752292 21.82514296 -11.19281588 18.87553586 -11.19921875 15.92578125 C-11.19855797 14.06510383 -11.19727681 12.2044265 -11.1953125 10.34375 C-11.19733673 9.45522339 -11.19936096 8.56669678 -11.20144653 7.65124512 C-11.16606739 -1.52472444 -8.17903077 0.08261647 0 0 Z M-5.0625 5.3125 C-5.0625 16.2025 -5.0625 27.0925 -5.0625 38.3125 C5.77919142 38.68275194 5.77919142 38.68275194 14.9375 35.3125 C18.72527419 31.42504754 21.21491706 27.49391933 21.3125 22 C21.1438554 16.29419097 19.404375 12.76078046 15.3828125 8.76953125 C8.58765677 3.56380036 4.43851569 5.3125 -5.0625 5.3125 Z " fill="#0A51B0" transform="translate(165.0625,211.6875)"/>
<path d="M0 0 C1.8984375 1.265625 1.8984375 1.265625 2.671875 3.40625 C2.74664062 4.01984375 2.82140625 4.6334375 2.8984375 5.265625 C-1.62452858 6.52200447 -1.62452858 6.52200447 -3.875 5.3125 C-8.54282565 3.11780303 -14.07408279 3.75912518 -19.1015625 4.265625 C-23.74896313 6.42907012 -25.82334386 8.748021 -28.1015625 13.265625 C-28.96452006 19.55167862 -29.02280099 26.03730701 -25.1015625 31.265625 C-21.15004155 35.21714595 -17.85089064 35.52389972 -12.4765625 35.578125 C-8.73429707 35.49525432 -5.75540527 35.17908569 -2.1015625 34.265625 C-2.1015625 30.305625 -2.1015625 26.345625 -2.1015625 22.265625 C-6.0615625 22.265625 -10.0215625 22.265625 -14.1015625 22.265625 C-13.7715625 20.615625 -13.4415625 18.965625 -13.1015625 17.265625 C-10.62232449 17.23877405 -8.1433741 17.21885953 -5.6640625 17.203125 C-4.95701172 17.19474609 -4.24996094 17.18636719 -3.52148438 17.17773438 C-1.71462691 17.16908912 0.09231353 17.21342489 1.8984375 17.265625 C4.15733945 19.52452695 3.2248328 24.60945938 3.2734375 27.640625 C3.32951172 28.95546875 3.32951172 28.95546875 3.38671875 30.296875 C3.42003142 32.71759536 3.38973502 34.89419182 2.8984375 37.265625 C0.578125 39.29296875 0.578125 39.29296875 -2.1015625 40.265625 C-3.1740625 40.6575 -4.2465625 41.049375 -5.3515625 41.453125 C-13.26925824 43.16862574 -18.67589458 42.71079028 -25.8671875 38.7578125 C-30.61406652 35.587694 -33.30161005 31.68895998 -35.1015625 26.265625 C-35.93880982 18.66225113 -35.94740662 11.4858752 -31.1015625 5.265625 C-22.12516358 -4.24255111 -11.81616834 -4.69664735 0 0 Z " fill="#0E54B1" transform="translate(251.1015625,213.734375)"/>
<path d="M0 0 C0.91644287 0.00523682 1.83288574 0.01047363 2.77709961 0.01586914 C3.76645508 0.0190918 4.75581055 0.02231445 5.77514648 0.02563477 C6.81606445 0.03401367 7.85698242 0.04239258 8.92944336 0.05102539 C10.49662109 0.05779297 10.49662109 0.05779297 12.09545898 0.06469727 C14.68600996 0.07652627 17.27644895 0.0930085 19.86694336 0.11352539 C20.75439042 3.64010227 20.91421366 6.01246087 19.90600586 9.50415039 C19.56956055 10.69137695 19.56956055 10.69137695 19.22631836 11.90258789 C18.98397461 12.71469727 18.74163086 13.52680664 18.49194336 14.36352539 C18.25733398 15.19110352 18.02272461 16.01868164 17.78100586 16.87133789 C16.02582153 22.95464722 16.02582153 22.95464722 14.86694336 24.11352539 C13.15921978 24.20066371 11.44795687 24.22052546 9.73803711 24.21118164 C8.18632813 24.20634766 8.18632813 24.20634766 6.60327148 24.20141602 C5.5146582 24.19303711 4.42604492 24.1846582 3.30444336 24.17602539 C1.66572266 24.16925781 1.66572266 24.16925781 -0.00610352 24.16235352 C-2.71514159 24.15052366 -5.42407263 24.13404082 -8.13305664 24.11352539 C-9.23419337 20.8162066 -9.02214067 18.88485532 -7.95336914 15.60180664 C-7.54924805 14.34207031 -7.54924805 14.34207031 -7.13696289 13.05688477 C-6.84692383 12.18870117 -6.55688477 11.32051758 -6.25805664 10.42602539 C-5.97575195 9.54624023 -5.69344727 8.66645508 -5.40258789 7.76000977 C-2.92845369 0.15585796 -2.92845369 0.15585796 0 0 Z " fill="#6B898D" transform="translate(59.133056640625,252.886474609375)"/>
<path d="M0 0 C0.9583374 0.00523682 1.9166748 0.01047363 2.90405273 0.01586914 C4.45576172 0.02070313 4.45576172 0.02070313 6.03881836 0.02563477 C7.12743164 0.03401367 8.21604492 0.04239258 9.33764648 0.05102539 C10.97636719 0.05779297 10.97636719 0.05779297 12.64819336 0.06469727 C15.35723144 0.07652713 18.06616248 0.09300996 20.77514648 0.11352539 C19.88361264 11.7371082 19.88361264 11.7371082 18.33764648 17.17602539 C18.09143555 18.07450195 17.84522461 18.97297852 17.59155273 19.89868164 C16.77514648 22.11352539 16.77514648 22.11352539 14.77514648 24.11352539 C12.54443359 24.35644531 12.54443359 24.35644531 9.80249023 24.34399414 C8.82086914 24.34206055 7.83924805 24.34012695 6.82788086 24.33813477 C5.79985352 24.32588867 4.77182617 24.31364258 3.71264648 24.30102539 C2.68075195 24.30038086 1.64885742 24.29973633 0.58569336 24.29907227 C-7.08469355 24.25368536 -7.08469355 24.25368536 -8.22485352 23.11352539 C-7.94062565 17.42896807 -6.94421361 0.35433549 0 0 Z " fill="#7D9385" transform="translate(115.224853515625,222.886474609375)"/>
<path d="M0 0 C2.39869506 0.3029248 3.67186396 0.6730653 5.40039062 2.39526367 C6.02204102 3.27275269 6.02204102 3.27275269 6.65625 4.16796875 C7.12160156 4.81443359 7.58695312 5.46089844 8.06640625 6.12695312 C8.53949219 6.80693359 9.01257813 7.48691406 9.5 8.1875 C9.97308594 8.84814453 10.44617188 9.50878906 10.93359375 10.18945312 C13.70443975 14.07708054 16.35016883 18.02525324 19 22 C19.33 15.4 19.66 8.8 20 2 C21.32 1.67 22.64 1.34 24 1 C24 10.24 24 19.48 24 29 C22.35 29.33 20.7 29.66 19 30 C11.575 19.11 11.575 19.11 4 8 C3.67 14.93 3.34 21.86 3 29 C1.68 29.33 0.36 29.66 -1 30 C-1.02465746 25.8882744 -1.04283959 21.77657722 -1.05493164 17.66479492 C-1.0599708 16.26504772 -1.06680216 14.8653058 -1.07543945 13.46557617 C-1.0875232 11.45754223 -1.09269807 9.44947043 -1.09765625 7.44140625 C-1.10289307 6.23170166 -1.10812988 5.02199707 -1.11352539 3.77563477 C-1 1 -1 1 0 0 Z " fill="#FFE067" transform="translate(342,267)"/>
<path d="M0 0 C4.07592745 2.23022446 6.24910972 4.68571945 8.3125 8.8125 C9.07500806 15.65007228 8.48244994 20.29013387 4.3125 25.8125 C-1.0428937 29.72322564 -6.27250192 29.75000987 -12.6875 28.8125 C-16.66770964 26.89469344 -19.05171097 23.87302055 -20.6875 19.8125 C-21.39923414 14.96038936 -21.83303017 9.97338646 -19.484375 5.54296875 C-13.97673528 -1.06341727 -8.36967723 -2.69531979 0 0 Z M-15.6875 6.8125 C-17.66448481 10.76646963 -17.25819292 15.51369353 -16.6875 19.8125 C-14.4859026 22.70933868 -12.90155538 24.20547231 -9.6875 25.8125 C-5.30799912 25.85477317 -1.73667065 25.59937799 1.8125 22.9375 C4.68081835 18.87404901 4.83988854 14.63433808 4.3125 9.8125 C3.07717542 6.97125347 2.0569561 5.39152141 -0.375 3.5 C-6.72818239 1.61121605 -11.03702748 2.02110407 -15.6875 6.8125 Z " fill="#FFE065" transform="translate(198.6875,268.1875)"/>
<path d="M0 0 C3.42221167 2.23187718 6.15942871 4.12994437 7.875 7.875 C8.7659753 13.52300862 8.6477845 18.24356606 6.1875 23.4375 C2.08880149 27.75774978 -0.61017658 29.06247015 -6.5625 29.3125 C-11.51291207 29.1592571 -14.43381209 28.38162851 -18.125 24.875 C-21.46386314 20.08929617 -21.8660699 15.52946488 -21.125 9.875 C-19.43335942 5.15621312 -17.26451382 2.66917183 -13.125 -0.125 C-8.46247142 -1.67917619 -4.63746673 -1.66948802 0 0 Z M-15.9375 7.5625 C-17.68059798 10.95695396 -17.66959929 14.18055615 -17.125 17.875 C-15.50564157 21.51855647 -13.67487274 24.00145605 -10.125 25.875 C-5.86652291 26.42702481 -3.65636274 26.14569422 0.1875 24.1875 C3.90829272 20.98588766 4.64019801 18.71428223 5.25 13.9375 C4.76552423 9.98094784 3.38268296 7.93994583 0.875 4.875 C-5.07059496 0.51489703 -11.03709989 3.00005852 -15.9375 7.5625 Z " fill="#FFE064" transform="translate(326.125,268.125)"/>
<path d="M0 0 C0.66 0.33 1.32 0.66 2 1 C2 1.99 2 2.98 2 4 C1.08476562 3.98839844 0.16953125 3.97679687 -0.7734375 3.96484375 C-1.96195313 3.95582031 -3.15046875 3.94679688 -4.375 3.9375 C-6.15003906 3.92009766 -6.15003906 3.92009766 -7.9609375 3.90234375 C-10.91921521 3.78533407 -10.91921521 3.78533407 -13 5 C-13 6.65 -13 8.3 -13 10 C-12.01257813 10.32613281 -11.02515625 10.65226562 -10.0078125 10.98828125 C-8.71335727 11.42914644 -7.41909638 11.87058255 -6.125 12.3125 C-5.47402344 12.52583984 -4.82304687 12.73917969 -4.15234375 12.95898438 C-0.53511516 14.20823342 0.81421256 14.72131884 3 18 C3.4375 21.4375 3.4375 21.4375 3 25 C0.31026964 27.79394501 -1.32606071 28.90266238 -5.19140625 29.4609375 C-6.30386719 29.43257813 -7.41632813 29.40421875 -8.5625 29.375 C-9.67753906 29.36210937 -10.79257813 29.34921875 -11.94140625 29.3359375 C-14.82631635 29.01907637 -16.55102599 28.49692788 -19 27 C-18.505 25.515 -18.505 25.515 -18 24 C-17.34 24.165 -16.68 24.33 -16 24.5 C-11.22801644 25.29533059 -6.64367656 25.54789219 -2 24 C-2 22.35 -2 20.7 -2 19 C-2.81984375 18.75765625 -3.6396875 18.5153125 -4.484375 18.265625 C-6.10085937 17.76289063 -6.10085937 17.76289063 -7.75 17.25 C-9.35101563 16.76273437 -9.35101563 16.76273437 -10.984375 16.265625 C-14.18846475 14.9209034 -15.85689523 13.71459937 -18 11 C-18.5 7.5 -18.5 7.5 -18 4 C-13.49554395 -1.90239068 -6.68026883 -2.22675628 0 0 Z " fill="#FFE065" transform="translate(170,268)"/>
<path d="M0 0 C0.77085937 -0.01417969 1.54171875 -0.02835937 2.3359375 -0.04296875 C4.84334888 0.20948393 6.45761902 0.93556533 8.625 2.1875 C8.625 3.1775 8.625 4.1675 8.625 5.1875 C7.70976562 5.17589844 6.79453125 5.16429687 5.8515625 5.15234375 C4.66304688 5.14332031 3.47453125 5.13429688 2.25 5.125 C0.47496094 5.10759766 0.47496094 5.10759766 -1.3359375 5.08984375 C-4.29421521 4.97283407 -4.29421521 4.97283407 -6.375 6.1875 C-6.375 7.8375 -6.375 9.4875 -6.375 11.1875 C-5.39917969 11.50203125 -4.42335938 11.8165625 -3.41796875 12.140625 C-2.13257714 12.57221634 -0.84743361 13.004547 0.4375 13.4375 C1.08009766 13.64246094 1.72269531 13.84742188 2.38476562 14.05859375 C6.26666412 15.38608235 8.69405788 16.48353667 10.625 20.1875 C10.625 24.02047293 10.19447235 25.61388604 7.4765625 28.3515625 C4.03009294 30.57052235 2.06305679 30.66524396 -2 30.5625 C-3.12664062 30.54960937 -4.25328125 30.53671875 -5.4140625 30.5234375 C-8.375 30.1875 -8.375 30.1875 -11.375 28.1875 C-11.375 27.1975 -11.375 26.2075 -11.375 25.1875 C-10.55 25.3525 -9.725 25.5175 -8.875 25.6875 C-1.28997977 26.84815408 -1.28997977 26.84815408 5.625 24.1875 C5.5784108 22.22152488 5.5784108 22.22152488 4.625 20.1875 C1.98467423 18.96241196 1.98467423 18.96241196 -1.1875 18.1875 C-5.69335604 16.95813124 -8.41466523 15.88441095 -11.375 12.1875 C-11.9375 9.25 -11.9375 9.25 -11.375 6.1875 C-7.78412027 1.93514242 -5.50841468 0.04575095 0 0 Z " fill="#FFE063" transform="translate(384.375,266.8125)"/>
<path d="M0 0 C1.32 0 2.64 0 4 0 C4.0093457 0.61520508 4.01869141 1.23041016 4.02832031 1.86425781 C4.08211085 4.66031086 4.16573819 7.4547062 4.25 10.25 C4.26417969 11.21808594 4.27835938 12.18617188 4.29296875 13.18359375 C4.41265625 18.76699963 4.41265625 18.76699963 6.86328125 23.63671875 C9.86154838 25.54968992 11.50839119 25.6413159 15 25 C17.9024388 22.92192252 19.72168984 21.28654884 20.49438477 17.71459961 C20.7158482 15.02983223 20.79536691 12.38120222 20.8125 9.6875 C20.83763672 8.75615234 20.86277344 7.82480469 20.88867188 6.86523438 C20.94735998 4.57639814 20.98377168 2.28946574 21 0 C21.99 0 22.98 0 24 0 C24.14560195 3.72875388 24.23417043 7.45677434 24.3125 11.1875 C24.35439453 12.24259766 24.39628906 13.29769531 24.43945312 14.38476562 C24.56355118 22.25258221 24.56355118 22.25258221 21.60546875 26.17578125 C16.8095091 29.53367204 12.76704512 29.65390118 7 29 C2.85433102 26.6680612 1.32208803 24.49275932 0 20 C-0.2374903 16.55823454 -0.18835145 13.13528078 -0.125 9.6875 C-0.11597656 8.75615234 -0.10695312 7.82480469 -0.09765625 6.86523438 C-0.07418263 4.5765564 -0.04134729 2.28841328 0 0 Z " fill="#FFDF61" transform="translate(237,268)"/>
<path d="M0 0 C2.475 0.495 2.475 0.495 5 1 C5 14.53 5 28.06 5 42 C2.525 42.495 2.525 42.495 0 43 C0 28.81 0 14.62 0 0 Z " fill="#004AAD" transform="translate(266,212)"/>
<path d="M0 0 C1.65 0 3.3 0 5 0 C5 13.86 5 27.72 5 42 C3.02 42.495 3.02 42.495 1 43 C0 42 0 42 -0.11352539 38.03100586 C-0.1133662 36.25894393 -0.10766785 34.4868774 -0.09765625 32.71484375 C-0.0962413 31.78402481 -0.09482635 30.85320587 -0.09336853 29.8941803 C-0.08775172 26.90858809 -0.0751964 23.92306971 -0.0625 20.9375 C-0.05748716 18.91862087 -0.05292388 16.89974057 -0.04882812 14.88085938 C-0.03777683 9.92054428 -0.02050095 4.96028468 0 0 Z " fill="#004AAD" transform="translate(201,212)"/>
<path d="M0 0 C1.32 0 2.64 0 4 0 C4 8.25 4 16.5 4 25 C8.95 25 13.9 25 19 25 C19 26.32 19 27.64 19 29 C16.02077407 29.02683987 13.04178705 29.04676037 10.0625 29.0625 C8.78729492 29.07506836 8.78729492 29.07506836 7.48632812 29.08789062 C6.67744141 29.09111328 5.86855469 29.09433594 5.03515625 29.09765625 C4.2862915 29.10289307 3.53742676 29.10812988 2.76586914 29.11352539 C1 29 1 29 0 28 C-0.08767112 25.92737924 -0.10695873 23.85179706 -0.09765625 21.77734375 C-0.09443359 20.51728516 -0.09121094 19.25722656 -0.08789062 17.95898438 C-0.07953403 16.61848891 -0.07106907 15.27799412 -0.0625 13.9375 C-0.0574866 12.59310058 -0.05292342 11.2486994 -0.04882812 9.90429688 C-0.03699488 6.60282059 -0.02050971 3.30143197 0 0 Z " fill="#FFE065" transform="translate(213,268)"/>
<path d="M0 0 C7.92 0 15.84 0 24 0 C24 0.99 24 1.98 24 3 C20.7 3 17.4 3 14 3 C14 11.58 14 20.16 14 29 C12.68 29 11.36 29 10 29 C10 20.42 10 11.84 10 3 C6.7 3 3.4 3 0 3 C0 2.01 0 1.02 0 0 Z " fill="#FFDF5E" transform="translate(266,268)"/>
<path d="M0 0 C1.32 0 2.64 0 4 0 C4 9.24 4 18.48 4 28 C2.68 28.33 1.36 28.66 0 29 C0 19.43 0 9.86 0 0 Z " fill="#FFE067" transform="translate(295,268)"/>
</svg>
