<?xml version="1.0" encoding="UTF-8"?>
<svg version="1.1" xmlns="http://www.w3.org/2000/svg" width="207" height="40">
<path d="M0 0 C68.31 0 136.62 0 207 0 C207 13.2 207 26.4 207 40 C138.69 40 70.38 40 0 40 C0 26.8 0 13.6 0 0 Z " fill="#FCFCFC" transform="translate(0,0)"/>
<path d="M0 0 C1.09256355 0.00607269 1.09256355 0.00607269 2.2071991 0.01226807 C2.97481064 0.00876343 3.74242218 0.00525879 4.53329468 0.00164795 C7.07768219 -0.00717455 9.621793 -0.00131847 12.16618347 0.00543213 C13.92973382 0.00408563 15.69328381 0.00214522 17.45683289 -0.00036621 C21.15572132 -0.00331817 24.85451327 0.00098247 28.5533905 0.01031494 C33.30178253 0.02170954 38.04994849 0.01515045 42.79833221 0.00317001 C46.44079806 -0.00404665 50.08321005 -0.00176156 53.72567749 0.0034256 C55.47682726 0.00476263 57.22798186 0.0031125 58.97912598 -0.00153351 C61.42377228 -0.0065956 63.86804916 0.00110682 66.31266785 0.01226807 C67.04104355 0.0082196 67.76941925 0.00417114 68.51986694 0 C73.5314046 0.04252826 73.5314046 0.04252826 75.75993347 2.27105713 C76.00285339 4.86895752 76.00285339 4.86895752 75.99040222 8.11871338 C75.98846863 9.28080322 75.98653503 10.44289307 75.98454285 11.64019775 C75.97229675 12.85900635 75.96005066 14.07781494 75.94743347 15.33355713 C75.94646667 17.1675708 75.94646667 17.1675708 75.94548035 19.03863525 C75.90004403 28.13094657 75.90004403 28.13094657 74.75993347 29.27105713 C72.23990896 29.37141529 69.74727147 29.40723425 67.22673035 29.40045166 C66.4381514 29.40220398 65.64957245 29.4039563 64.83709717 29.40576172 C62.21760387 29.41018071 59.59817751 29.40724209 56.97868347 29.40386963 C55.16646817 29.40454265 53.35425296 29.40551267 51.54203796 29.4067688 C47.73884728 29.40824584 43.93568003 29.40609103 40.13249207 29.40142822 C35.24614852 29.39573093 30.3598599 29.3990099 25.47351837 29.40500069 C21.72987958 29.40860614 17.98625392 29.40746779 14.24261475 29.40487289 C12.4403991 29.40420358 10.63818229 29.40503219 8.83596802 29.40735245 C6.32165856 29.40987872 3.8074393 29.40603875 1.2931366 29.40045166 C0.16477135 29.40348801 0.16477135 29.40348801 -0.98638916 29.40658569 C-6.12580393 29.38531973 -6.12580393 29.38531973 -7.24006653 28.27105713 C-7.49348888 23.96458077 -7.42529291 19.64660659 -7.42756653 15.33355713 C-7.44593567 13.50534424 -7.44593567 13.50534424 -7.4646759 11.64019775 C-7.4666095 10.47810791 -7.46854309 9.31601807 -7.47053528 8.11871338 C-7.47464417 7.04629395 -7.47875305 5.97387451 -7.48298645 4.86895752 C-7.01825583 -0.10109121 -4.37780054 0.03715032 0 0 Z " fill="#0A0C0D" transform="translate(62.24006652832031,2.72894287109375)"/>
<path d="M0 0 C1.48357597 0.00187078 2.96715256 0.00329156 4.45072937 0.00428772 C8.30900859 0.00806098 12.16724868 0.01784529 16.0255127 0.0289917 C19.98119579 0.03931905 23.93688536 0.04380932 27.89257812 0.04882812 C35.61980928 0.05947357 43.34700848 0.07648555 51.07421875 0.09765625 C51.07421875 1.08765625 51.07421875 2.07765625 51.07421875 3.09765625 C24.67421875 3.09765625 -1.72578125 3.09765625 -28.92578125 3.09765625 C-28.92578125 2.43765625 -28.92578125 1.77765625 -28.92578125 1.09765625 C-19.27229898 0.1875491 -9.68722116 -0.03649406 0 0 Z " fill="#015390" transform="translate(85.92578125,27.90234375)"/>
<path d="M0 0 C1.670625 0.061875 1.670625 0.061875 3.375 0.125 C3.375 1.115 3.375 2.105 3.375 3.125 C4.035 3.125 4.695 3.125 5.375 3.125 C5.375 2.465 5.375 1.805 5.375 1.125 C6.035 1.125 6.695 1.125 7.375 1.125 C7.705 1.785 8.035 2.445 8.375 3.125 C9.365 2.135 10.355 1.145 11.375 0.125 C11.1584375 0.80046875 10.941875 1.4759375 10.71875 2.171875 C10.4403125 3.06390625 10.161875 3.9559375 9.875 4.875 C9.5965625 5.75671875 9.318125 6.6384375 9.03125 7.546875 C8.21054715 10.32767529 8.21054715 10.32767529 8.375 14.125 C7.385 13.795 6.395 13.465 5.375 13.125 C5.375 12.465 5.375 11.805 5.375 11.125 C5.045 11.785 4.715 12.445 4.375 13.125 C3.055 13.125 1.735 13.125 0.375 13.125 C0.045 11.475 -0.285 9.825 -0.625 8.125 C-1.945 7.795 -3.265 7.465 -4.625 7.125 C-5.25 4.75 -5.25 4.75 -5.625 2.125 C-3.625 0.125 -3.625 0.125 0 0 Z " fill="#303030" transform="translate(115.625,10.875)"/>
<path d="M0 0 C1.32 0 2.64 0 4 0 C4 0.66 4 1.32 4 2 C2.68 2.33 1.36 2.66 0 3 C0 3.66 0 4.32 0 5 C0.66 5 1.32 5 2 5 C2 4.34 2 3.68 2 3 C2.66 3 3.32 3 4 3 C4.33 2.01 4.66 1.02 5 0 C6.65 0 8.3 0 10 0 C10.33 1.32 10.66 2.64 11 4 C11.66 4 12.32 4 13 4 C13.33 2.68 13.66 1.36 14 0 C14 4.29 14 8.58 14 13 C13.34 13 12.68 13 12 13 C12 12.01 12 11.02 12 10 C11.34 10 10.68 10 10 10 C9.67 10.99 9.34 11.98 9 13 C9 12.01 9 11.02 9 10 C8.34 10 7.68 10 7 10 C6.34 11.32 5.68 12.64 5 14 C4.34 14 3.68 14 3 14 C2.9175 13.236875 2.835 12.47375 2.75 11.6875 C1.85384206 8.47626739 0.78388975 7.70625501 -2 6 C-1.125 1.125 -1.125 1.125 0 0 Z " fill="#4C4C4C" transform="translate(95,11)"/>
<path d="M0 0 C1.3921875 0.2784375 1.3921875 0.2784375 2.8125 0.5625 C6.01343771 1.24123881 6.01343771 1.24123881 9 0 C9 4.29 9 8.58 9 13 C6 14 6 14 3.375 13.3125 C1 12 1 12 0.1875 10.375 C-0.08642775 6.90524846 -0.05801118 3.48067063 0 0 Z " fill="#202020" transform="translate(83,11)"/>
<path d="M0 0 C3.96 0 7.92 0 12 0 C12 1.98 12 3.96 12 6 C11.01 5.34 10.02 4.68 9 4 C7.0103005 3.60986284 5.00980131 3.26797351 3 3 C3 5.31 3 7.62 3 10 C4.32 10 5.64 10 7 10 C7 10.66 7 11.32 7 12 C4.69 12 2.38 12 0 12 C0 8.04 0 4.08 0 0 Z " fill="#EDBC31" transform="translate(67,12)"/>
<path d="M0 0 C2.8125 -0.25 2.8125 -0.25 6 0 C8.467339 2.2206051 8.96152446 3.43569203 9.1875 6.75 C9.125625 7.4925 9.06375 8.235 9 9 C8.01 9 7.02 9 6 9 C6 8.34 6 7.68 6 7 C4.02 7 2.04 7 0 7 C0 4.69 0 2.38 0 0 Z " fill="#5C5234" transform="translate(70,15)"/>
<path d="M0 0 C0.66 0.33 1.32 0.66 2 1 C2.625 3.5625 2.625 3.5625 3 6 C3.99 6.33 4.98 6.66 6 7 C6 8.65 6 10.3 6 12 C4.68 12.33 3.36 12.66 2 13 C-0.91360308 8.22169095 -1.19876651 5.44893869 0 0 Z " fill="#0A0A0A" transform="translate(109,12)"/>
<path d="M0 0 C1.32 0 2.64 0 4 0 C4 0.66 4 1.32 4 2 C2.68 2.33 1.36 2.66 0 3 C0 3.66 0 4.32 0 5 C0.66 5 1.32 5 2 5 C2 4.34 2 3.68 2 3 C2.66 3 3.32 3 4 3 C4.33 2.01 4.66 1.02 5 0 C5.66 0 6.32 0 7 0 C7 2.31 7 4.62 7 7 C4.36 7 1.72 7 -1 7 C-1.625 4.625 -1.625 4.625 -2 2 C-1.34 1.34 -0.68 0.68 0 0 Z " fill="#9E9E9E" transform="translate(95,11)"/>
<path d="M0 0 C2.125 0.375 2.125 0.375 4 1 C4.38218767 2.65614657 4.71395102 4.32457024 5 6 C4 7 4 7 1.4375 7.0625 C0.2309375 7.0315625 0.2309375 7.0315625 -1 7 C-1.625 4.625 -1.625 4.625 -2 2 C-1.34 1.34 -0.68 0.68 0 0 Z " fill="#6D6D6D" transform="translate(112,11)"/>
<path d="M0 0 C1.1446875 0.2784375 1.1446875 0.2784375 2.3125 0.5625 C5.08967375 1.22819173 5.08967375 1.22819173 8 0 C8 2.64 8 5.28 8 8 C7.01 8.495 7.01 8.495 6 9 C5.67 8.34 5.34 7.68 5 7 C3.35 7 1.7 7 0 7 C1.32 6.67 2.64 6.34 4 6 C4 4.68 4 3.36 4 2 C2.68 1.67 1.36 1.34 0 1 C0 0.67 0 0.34 0 0 Z " fill="#858585" transform="translate(84,11)"/>
<path d="M0 0 C0.33 0.66 0.66 1.32 1 2 C0.0625 4.625 0.0625 4.625 -1 7 C-1.66 7 -2.32 7 -3 7 C-3.33 6.34 -3.66 5.68 -4 5 C-4.33 5.66 -4.66 6.32 -5 7 C-5.66 7 -6.32 7 -7 7 C-7.33 5.02 -7.66 3.04 -8 1 C-7.67 1.66 -7.34 2.32 -7 3 C-6.34 3 -5.68 3 -5 3 C-5 2.34 -5 1.68 -5 1 C-4.34 1 -3.68 1 -3 1 C-2.67 1.66 -2.34 2.32 -2 3 C-1.34 2.01 -0.68 1.02 0 0 Z " fill="#ABABAB" transform="translate(126,11)"/>
<path d="M0 0 C2.475 0.99 2.475 0.99 5 2 C4.67 3.98 4.34 5.96 4 8 C2.68 8 1.36 8 0 8 C0 5.36 0 2.72 0 0 Z " fill="#4F4F4F" transform="translate(83,11)"/>
<path d="M0 0 C2.875 -0.1875 2.875 -0.1875 6 0 C8.1519437 3.22791555 8.20086443 4.28400809 8 8 C7.01 8 6.02 8 5 8 C5.33 6.35 5.66 4.7 6 3 C5.01 3 4.02 3 3 3 C3 2.34 3 1.68 3 1 C2.01 0.67 1.02 0.34 0 0 Z " fill="#2B2A26" transform="translate(71,16)"/>
<path d="M0 0 C1.98 0.495 1.98 0.495 4 1 C3.67 2.32 3.34 3.64 3 5 C1.68 4.67 0.36 4.34 -1 4 C-0.67 2.68 -0.34 1.36 0 0 Z " fill="#3A3A3A" transform="translate(111,20)"/>
<path d="M0 0 C1.98 0.495 1.98 0.495 4 1 C3.67 2.32 3.34 3.64 3 5 C1.68 4.34 0.36 3.68 -1 3 C-0.67 2.01 -0.34 1.02 0 0 Z " fill="#3D3D3D" transform="translate(88,20)"/>
<path d="M0 0 C0.66 0 1.32 0 2 0 C2 2.31 2 4.62 2 7 C1.01 7 0.02 7 -1 7 C-0.67 4.69 -0.34 2.38 0 0 Z " fill="#858585" transform="translate(100,11)"/>
</svg>
